<svg width="81" height="85" viewBox="0 0 81 85" fill="none" xmlns="http://www.w3.org/2000/svg">
<path d="M23.2919 11.1942C23.4873 11.7806 23.8783 12.1716 24.4647 12.5626C25.6376 13.7355 26.615 14.9083 27.7879 16.0812C28.9608 17.2541 30.1337 18.427 31.3066 19.5999C31.6976 19.9909 32.284 20.3818 32.675 20.7728C33.0659 21.1637 33.2614 21.5547 33.4569 21.9457C34.4343 22.7276 35.6072 21.9457 36.5846 21.5547C37.562 21.1637 38.9304 20.9683 39.9078 21.1637C42.0581 21.5547 44.0129 22.5321 45.1858 24.2914C46.5541 26.2463 46.7496 28.592 46.5541 30.9378C46.5541 31.3288 46.5541 31.9152 46.3587 32.3062C46.1632 32.8926 45.7722 33.0881 45.5767 33.6746C45.3813 34.652 46.7496 36.4113 47.3361 37.1932C50.4638 41.1028 54.7644 43.8396 58.283 47.3583C58.4785 47.1628 58.674 46.7718 58.8695 46.5763C59.2604 47.9447 61.0198 47.7492 61.6062 46.7718C62.3881 45.4034 62.5836 43.4486 62.7791 41.8848C63.3655 39.3435 63.952 36.6068 64.343 34.0655C65.1249 28.2011 63.7565 22.7276 61.6062 17.2541C59.8469 12.758 57.1101 8.45746 53.005 5.72072C47.9225 2.39753 41.4716 1.81109 35.4117 2.59301C32.4795 2.98398 29.5473 3.7659 26.8105 5.13427C25.4422 5.72072 24.2693 6.69812 23.0964 7.67553C23.0964 8.06649 22.3145 8.65294 22.119 9.23938C21.728 10.2168 22.3145 10.9987 23.2919 11.1942ZM37.953 17.4496C37.7575 17.4496 37.3665 17.4496 37.171 17.6451C38.7349 15.4948 40.4942 13.149 42.0581 10.9987C42.84 10.0213 43.6219 9.0439 44.4039 8.06649C45.3813 6.8936 45.3813 6.30716 46.7496 6.8936C45.3813 8.84842 43.6219 10.6078 42.2536 12.5626C41.6671 13.3445 41.0807 14.1264 40.4942 15.1038C40.1033 15.6903 39.9078 16.2767 39.5168 16.8632C38.9304 17.4496 38.9304 17.4496 37.953 17.4496ZM53.005 10.0213C53.2005 10.2168 53.9824 10.8032 53.9824 10.9987C53.9824 11.1942 53.787 11.3897 53.5915 11.3897C53.396 12.3671 52.6141 13.149 52.2231 13.9309C50.6593 16.2767 48.8999 18.6225 47.1406 21.1637C46.1632 19.9909 45.9677 20.1863 46.9451 19.0135C47.727 17.8406 48.7044 16.6677 49.4864 15.4948C50.8547 13.7355 51.8321 11.9761 53.005 10.0213ZM57.1101 15.4948C57.3056 15.8858 57.6966 16.4722 57.8921 17.0586C58.0875 17.8406 58.0875 17.4496 57.6966 18.427C57.1101 19.5999 55.9373 20.7728 55.1553 21.7502C53.396 23.9005 51.4412 26.0508 49.8773 28.3966C49.8773 27.0282 49.4864 26.2463 50.0728 25.0734C50.8547 23.9005 51.6367 22.9231 52.4186 21.9457C53.2005 20.7728 54.1779 19.5999 54.9598 18.427C55.1553 18.036 57.1101 15.6903 57.1101 15.4948ZM56.1327 40.3209C56.1327 40.5164 55.9373 40.5164 55.9373 40.7119C54.9598 39.93 54.7644 39.93 55.5463 38.7571C56.1327 37.9751 56.7192 36.9977 57.3056 36.2158C58.8695 34.261 60.2378 32.3062 61.2153 29.9604C61.2153 30.7423 61.4107 31.9152 61.4107 32.6971C61.2153 33.6746 60.0424 34.8474 59.4559 35.8249C58.283 37.1932 57.3056 38.7571 56.1327 40.3209ZM52.0276 36.8023C53.396 37.7797 60.0424 27.6146 60.6288 26.2463C60.8243 27.4191 61.0198 27.8101 60.6288 28.7875C60.2378 29.7649 59.2604 30.7423 58.674 31.7197C57.1101 34.0655 55.3508 36.2158 53.787 38.5616C52.8096 37.5842 51.4412 36.8023 50.6593 35.6294C50.4638 35.4339 49.8773 35.2384 49.8773 35.0429C49.8773 34.8474 50.6593 33.87 50.8547 33.6746C51.4412 32.8926 52.0276 31.9152 52.6141 31.1333C54.9599 28.0056 57.1101 24.8779 59.4559 21.7502C59.6514 22.3366 60.0424 22.9231 60.0424 23.5095C60.0424 24.4869 59.4559 25.0734 58.8695 25.8553C57.8921 27.2237 56.9147 28.3966 55.9373 29.7649C55.3508 30.7423 50.6593 36.0203 52.0276 36.8023ZM58.8695 19.7954C59.2604 21.1637 58.283 21.7502 57.5011 22.7276C56.5237 23.9005 55.7418 25.0734 54.9598 26.2463C53.2005 28.7875 51.2457 31.1333 49.6818 33.6746C50.0728 32.3062 50.0728 31.3288 50.8547 30.1559C51.8321 28.7875 52.8096 27.6146 53.787 26.2463C55.5463 24.096 57.5011 21.9457 58.8695 19.5999C58.674 19.5999 58.8695 19.5999 58.8695 19.7954ZM60.6288 39.7345C60.2378 41.1029 59.8469 42.4712 59.4559 43.8396C59.065 43.4486 57.6966 42.6667 57.5011 42.0803C57.3056 41.4938 58.283 40.5164 58.674 39.93C59.4559 38.5616 60.2378 37.3887 61.0198 36.0203C61.2153 37.1932 61.0198 38.3661 60.6288 39.7345ZM55.9373 13.54C56.5237 14.5174 55.9373 14.9083 55.1553 15.6903C54.3734 16.6677 53.5915 17.6451 52.8096 18.6225C51.4412 20.3818 50.0728 22.1412 48.8999 24.096C48.7044 23.705 47.9225 22.9231 48.118 22.5321C48.118 22.3366 49.0954 21.1637 49.2909 20.9683C50.0728 19.7954 50.8547 18.818 51.6367 17.6451C52.6141 16.0812 54.5689 13.9309 54.7644 11.9761C54.9598 12.3671 55.5463 12.9535 55.9373 13.54ZM51.8321 9.23938C51.6367 9.0439 48.509 13.54 48.3135 13.7355C47.5316 14.9083 46.7496 16.2767 45.9677 17.4496C45.7722 17.8406 45.3813 18.427 45.1858 18.818C44.5993 19.2089 44.4039 18.818 43.6219 18.6225C46.1632 15.2993 48.509 11.9761 50.6593 8.45746C51.0502 8.65294 51.4412 8.84842 51.8321 9.23938ZM49.8773 8.06649C49.6818 8.06649 46.3587 12.5626 45.9677 13.3445C44.9903 14.5174 44.2084 15.6903 43.4264 17.0586C43.231 17.2541 42.84 18.036 42.6445 18.2315C42.449 18.2315 41.2761 17.8406 41.0807 17.8406C42.449 15.8858 44.0129 13.9309 45.3813 11.9761C46.1632 10.8032 46.9451 9.43486 47.727 8.26197C48.118 7.67553 47.9225 7.67553 48.509 7.67553C48.509 7.28457 49.4864 7.87101 49.8773 8.06649ZM44.0129 6.30716C41.8626 8.45746 40.1033 10.9987 38.3439 13.3445C37.3665 14.7129 36.3891 16.0812 35.4117 17.4496C34.8253 18.427 34.8253 19.2089 34.0433 18.818C32.8704 18.2315 34.8253 16.6677 35.4117 15.6903C36.1936 14.5174 36.9756 13.149 37.7575 11.7806C38.7349 10.4123 39.5168 8.84842 40.4942 7.48005C41.0807 6.69812 41.0807 6.11168 41.8626 5.9162C42.6445 5.9162 43.6219 6.11168 44.0129 6.30716ZM39.1259 6.11168C39.5168 6.11168 39.7123 6.11168 40.1033 6.11168C37.3665 9.63034 35.0207 13.54 32.4795 17.4496C31.6976 16.6677 32.4795 16.0812 33.0659 15.2993C33.8479 14.1264 34.6298 12.9535 35.2162 11.7806C36.1936 10.2168 37.7575 6.11168 39.1259 6.11168ZM37.3665 6.11168C35.0207 9.0439 33.2614 12.5626 31.1111 15.6903C30.1337 14.7129 29.9382 14.7129 30.7202 13.54C31.3066 12.5626 31.893 11.5852 32.284 10.8032C32.8705 9.82583 33.2614 8.26197 34.0433 7.48005C34.6298 6.8936 34.4343 6.8936 35.2162 6.69812C35.9982 6.11168 36.7801 6.11168 37.3665 6.11168ZM32.8705 6.8936C32.4795 7.08909 31.1111 9.63034 30.7202 10.2168C30.1337 11.3897 29.5473 12.5626 28.9608 13.7355C28.3744 13.149 28.1789 12.9535 28.1789 12.5626C28.1789 11.7806 28.9608 10.6078 29.3518 9.82583C29.7427 9.23938 29.9382 8.26197 30.3292 7.87101C30.9156 7.28457 32.284 7.08909 32.8705 6.8936ZM26.615 9.43486C27.2015 9.0439 27.9834 8.65294 28.5699 8.26197C27.9834 9.23938 27.397 10.4123 27.006 11.5852C26.615 11.1942 26.0286 10.6078 25.6376 10.2168C26.0286 9.82583 26.2241 9.63034 26.615 9.43486Z" fill="#6A8E4E"/>
<path d="M76.4628 69.2522C76.0718 68.8612 76.0718 68.2748 75.6809 67.6883C74.899 66.7109 73.9215 65.929 73.1396 65.3426C70.2074 62.8013 67.2752 60.0646 64.343 57.3278C58.8695 52.0498 53.5915 46.5764 48.3135 41.2984C36.5846 29.9604 25.2467 18.427 13.7133 7.28459C12.1494 5.72074 10.5856 4.35237 9.2172 2.78852C8.23979 1.42015 6.67594 -0.339184 4.72113 0.442741C1.00698 1.81111 5.69854 5.52526 7.06691 6.89363C8.43528 8.45748 9.99913 9.82585 11.3675 11.3897C12.1494 12.1716 12.9313 12.9536 13.7133 13.7355C14.4952 14.5174 15.8636 15.4948 16.45 16.4722C16.841 17.2541 16.45 17.8406 16.0591 18.6225C15.8636 19.209 15.6681 19.7954 15.4726 20.1864C14.8862 22.1412 14.2997 24.2915 14.1042 26.4418C13.1268 34.0655 14.6907 41.2984 17.6229 48.3357C20.3596 55.1775 24.0738 61.6284 27.7879 68.0793C29.9382 71.7935 32.284 75.7031 35.0207 79.0263C36.1936 80.3946 37.7575 82.5449 39.3213 83.9133C41.0807 85.2817 41.8626 84.8907 43.231 83.3269C46.3587 80.0037 48.8999 75.7031 51.2457 71.7935C53.9824 67.2974 56.3282 62.8013 58.674 58.3052C62.1927 61.8239 65.7113 65.1471 69.4255 68.4703C70.7938 69.6432 71.9667 70.816 73.3351 71.598C74.117 72.1844 74.8989 72.5754 75.8764 71.7935C76.6583 71.207 77.0493 70.0341 76.4628 69.2522ZM39.3213 39.3435C35.0207 46.5764 31.6976 54.3956 27.006 61.4329C26.8105 61.042 26.2241 60.4555 26.0286 59.8691C25.6376 58.8917 26.0286 58.6962 26.4196 57.7188C27.006 56.7414 27.5925 55.5685 28.1789 54.5911C29.1563 52.8318 29.9382 51.2679 30.9156 49.5086C33.0659 45.5989 35.6072 41.6893 37.562 37.5842C38.3439 38.3661 38.9304 38.7571 39.3213 39.3435ZM36.7801 36.8023C32.675 43.8396 28.3744 50.6815 25.0512 57.9143C24.8557 57.5233 24.2693 56.9369 24.2693 56.3504C24.2693 55.764 24.2693 56.1549 24.4648 55.5685C24.6602 54.7866 25.2467 53.8092 25.6376 53.0272C26.615 50.8769 27.7879 48.9221 28.9608 46.7718C30.9156 42.8622 33.8479 39.3435 35.4117 35.2384C35.8027 35.8249 36.1936 36.2158 36.7801 36.8023ZM15.6681 30.9378C16.6455 31.9152 21.728 23.5095 22.3145 22.3367C23.0964 23.1186 22.7054 23.1186 22.119 23.9005C21.9235 24.2915 21.5325 24.6824 21.337 25.0734C20.7506 26.0508 20.1642 27.0282 19.5777 28.0056C18.4048 29.9604 17.0365 31.7198 15.8636 33.6746C15.6681 32.6972 15.6681 31.9152 15.6681 30.9378ZM16.45 25.8553C17.0365 25.6598 17.6229 23.9005 18.0139 23.3141C18.7958 22.1412 19.5777 21.1638 20.3596 20.1864C21.1416 20.9683 21.337 20.9683 20.7506 22.1412C20.1642 22.9231 19.5777 23.9005 18.9913 24.6824C17.8184 26.2463 16.841 28.0056 15.8636 29.765C16.0591 28.5921 16.2545 27.2237 16.45 25.8553ZM18.7958 18.818C19.5777 19.5999 19.7732 19.4044 18.9913 20.3818C18.6003 20.9683 18.0139 21.5547 17.6229 22.1412C18.0139 20.9683 18.4048 19.7954 18.7958 18.818ZM16.6455 36.8023C16.2545 35.2384 16.45 35.043 17.4274 33.8701C18.0139 32.8927 18.6003 31.9152 19.3822 30.9378C20.9461 28.5921 22.5099 26.0508 23.8783 23.5095C24.8557 24.487 24.8557 24.487 24.2693 25.6598C23.8783 26.2463 23.6828 26.8327 23.2919 27.4192C22.7054 28.5921 21.9235 29.5695 21.1416 30.7424C19.7732 32.8927 18.2093 35.043 16.841 37.1932C16.6455 36.9978 16.6455 36.9978 16.6455 36.8023ZM17.0365 38.5616C20.1642 34.4565 23.4873 30.1559 25.4422 25.4644C25.8331 25.8553 27.006 26.6372 27.006 27.0282C27.006 27.4192 26.2241 28.7875 26.0286 29.1785C25.2467 30.5469 24.4647 31.9152 23.6828 33.2836C21.728 36.4113 20.1642 39.539 18.4048 42.8622C18.0139 41.4938 17.4274 40.1255 17.0365 38.5616ZM18.7958 44.2306C20.3596 41.6893 21.728 39.1481 23.2919 36.6068C24.8557 33.8701 27.006 30.9378 27.9834 28.0056C28.5699 28.5921 29.7427 29.374 29.7427 30.3514C29.7427 31.3288 28.7653 32.5017 28.3744 33.2836C27.5925 35.043 26.615 36.8023 25.6376 38.5616C23.8783 41.8848 21.9235 44.817 20.1642 47.9447C19.5777 46.7718 19.1868 45.4035 18.7958 44.2306ZM20.9461 49.8995C20.3596 48.9221 20.5551 49.1176 21.1416 48.3357C21.5325 47.7492 21.9235 47.1628 22.119 46.7718C23.2919 44.817 24.6602 43.0577 25.6376 41.1029C27.5925 37.7797 29.3518 34.4565 30.5247 30.7424C31.1111 31.3288 32.284 32.1107 32.675 32.8927C32.8705 33.4791 32.8705 33.0881 32.675 33.8701C32.4795 34.261 32.0885 34.8475 31.6976 35.2384C30.3292 37.3887 29.1563 39.7345 27.7879 41.8848C25.8331 45.208 23.8783 48.7267 22.119 52.2453C21.728 51.4634 21.337 50.6815 20.9461 49.8995ZM22.5099 53.0272C22.5099 53.0272 24.8557 49.3131 25.2467 48.9221C26.0286 47.7492 26.615 46.3809 27.397 45.208C29.5473 41.4938 31.6976 37.7797 33.8479 34.0655C34.8253 35.0429 34.2388 35.2384 33.4569 36.4113C33.0659 37.1932 32.4795 37.9752 32.0885 38.5616C30.9156 40.3209 29.7427 42.2758 28.7653 44.2306C26.8105 47.7492 25.0512 51.2679 23.2919 54.9821C23.0964 54.2001 22.9009 53.6137 22.5099 53.0272ZM27.5925 62.4103C32.4795 55.373 36.9756 48.1402 40.2987 40.3209C40.6897 40.7119 41.0807 41.1029 41.6671 41.4938C42.449 42.2758 42.449 42.0803 42.0581 42.8622C41.4716 44.0351 40.4942 45.0125 39.9078 46.1854C38.7349 48.1402 37.562 50.095 36.5846 52.0498C34.2388 56.5459 31.6976 61.042 29.7427 65.7335C28.9608 64.5606 28.3744 63.3878 27.5925 62.4103ZM30.5247 67.2974C32.8705 63.3878 35.0207 59.0872 36.9756 54.9821C38.9304 51.0724 41.2762 47.1628 43.231 43.2532C43.6219 43.6441 43.8174 43.8396 44.2084 44.2306C44.7948 44.817 44.9903 44.817 44.7948 45.4035C44.5993 46.3809 43.4264 47.5538 43.0355 48.3357C41.6671 50.486 40.4942 52.8318 39.1259 54.9821C36.3891 59.6736 33.8479 64.1697 31.3066 68.8612C31.1111 68.2748 30.9156 67.6883 30.5247 67.2974ZM32.284 70.2296C37.171 62.2149 41.6671 54.0046 45.9677 45.5989C46.3587 45.9899 47.1406 46.3809 47.3361 46.9673C47.727 47.7492 47.727 47.5538 47.3361 48.3357C46.7496 49.3131 46.1632 50.486 45.5767 51.4634C44.2084 53.8092 42.6445 56.3504 41.0807 58.6962C38.3439 62.9968 35.8027 67.4929 33.4569 71.9889C33.0659 71.4025 32.675 70.816 32.284 70.2296ZM34.0433 72.9663C36.7801 68.8612 39.1259 64.7561 41.6671 60.4555C44.0129 56.3504 46.9451 52.4408 48.509 47.9447C49.2909 48.7266 49.8773 49.3131 50.6593 50.095C50.6593 50.095 49.4864 50.6815 49.6819 50.2905C49.4864 50.486 49.2909 50.486 49.2909 50.6815C49.0954 51.0724 49.2909 51.2679 49.0954 51.4634C48.7044 52.2453 48.3135 53.2227 47.727 54.0046C46.5542 56.3504 45.1858 58.6962 44.0129 60.8465C41.2762 65.5381 37.953 70.2296 35.9982 75.5076C35.2162 74.7257 34.6298 73.9437 34.0433 72.9663ZM36.9756 76.876C39.5168 71.9889 42.2536 67.2974 44.9903 62.4103C46.1632 60.2601 47.3361 58.3052 48.509 55.9595C49.0954 54.7866 51.2457 51.6589 50.8547 50.2905C51.4412 50.8769 52.0276 51.4634 52.6141 52.0498C52.4186 52.2453 51.8321 52.6363 51.6367 53.0272C51.4412 53.4182 51.8321 53.4182 51.8321 53.6137C51.4412 54.9821 50.2683 56.3504 49.6819 57.7188C48.509 59.8691 47.3361 62.2149 46.1632 64.5606C43.6219 69.4477 41.0807 74.1392 39.1259 79.2218C38.3439 78.4398 37.562 77.6579 36.9756 76.876ZM42.6445 78.8308C42.0581 79.8082 41.4716 80.7856 40.6897 81.763C40.4942 81.5675 39.7123 80.7856 39.7123 80.3946C39.7123 80.1992 40.2987 79.4172 40.4942 79.0263C41.0807 77.6579 41.6671 76.485 42.2536 75.1166C43.4264 72.3799 44.9903 69.8386 46.3587 67.1019C47.5316 64.7561 48.7044 62.4103 49.8773 60.2601C51.0502 57.9143 52.6141 55.5685 53.2005 52.8318C53.9824 53.8092 51.4412 58.1098 50.8547 59.2826C49.8773 61.4329 48.8999 63.5832 48.118 65.929C46.5541 70.4251 44.9903 74.7257 42.6445 78.8308ZM54.7644 58.5007C52.8096 62.0194 51.0502 65.538 49.0954 68.8612C51.0502 63.9742 53.005 59.2826 54.7644 54.2001C55.3508 54.7866 56.1327 55.373 56.1327 55.9595C55.9373 56.7414 54.9598 57.9143 54.7644 58.5007ZM76.4628 69.0567C76.4628 68.8612 76.2673 68.8612 76.4628 69.0567Z" fill="#6A8E4E"/>
</svg>
