<?xml version="1.0" encoding="utf-8"?>
<!-- Generator: Adobe Illustrator 23.0.1, SVG Export Plug-In . SVG Version: 6.00 Build 0)  -->
<svg version="1.1" id="Layer_1" xmlns="http://www.w3.org/2000/svg" xmlns:xlink="http://www.w3.org/1999/xlink" x="0px" y="0px"
	 viewBox="0 0 94 94" style="enable-background:new 0 0 94 94;" xml:space="preserve">
<style type="text/css">
	.st0{fill:#F4F1EA;}
	.st1{fill:#AFC6BD;}
	.st2{fill:#2C473E;}
</style>
<path class="st0" d="M0,47C0,21,21,0,47,0s47,21,47,47S73,94,47,94S0,73,0,47z"/>
<path class="st1" d="M24.6,39.4c0.9-0.6,0.5-3.8,0.5-4.7c0-3-0.4-6.9,1.1-9.6c-0.2,0.4,0.7,0,1.1,0c0.9,0,1.6-0.2,2.5-0.4
	c1.1,0,2.5,0,3.8,0c0.5,0,4,0.6,3.8-0.6c-0.2-0.8-3.3-1.7-3.8-1.7c-2.5-0.8-7.9-0.9-9.8,1.1c-2.3,2.4-1.8,8.8-1.4,11.8
	C22.5,36.6,22.8,40.7,24.6,39.4z"/>
<path class="st1" d="M60.8,25.3c2,0,4.9,0,6.7,0.8c1.8,0.8,1.6,3.9,1.6,5.8c0,1.5-0.7,8.3,1.1,8.4c2.2,0.2,1.8-7.1,1.8-8.4
	c0-2.4,0-6.2-2-7.9c-1.8-1.5-5.1-1.3-7.2-1.1c-1.4,0-4.7,0.6-5.6,1.9C56.3,25.9,59.9,25.3,60.8,25.3z"/>
<path class="st1" d="M69.3,54.2c-0.9,0.6-0.5,3.8-0.5,4.7c0,3,0.4,6.9-1.1,9.6c0.2-0.4-0.7,0-1.1,0c-0.9,0-1.6,0.2-2.3,0.4
	c-1.4,0.2-2.7,0.4-4.2,0.4c-0.5,0-4-0.6-3.8,0.6c0.2,0.6,3.3,1.5,3.8,1.7c2.5,0.8,7.9,0.9,9.8-1.3c2.3-2.4,1.8-8.8,1.4-11.8
	C71.4,57,71.1,52.9,69.3,54.2z"/>
<path class="st1" d="M37.1,68.9c-1.3-0.8-4.2,0-5.6-0.2c-1.4-0.2-4.9,0-5.8-1.1c-1.4-1.7-0.7-6.8-0.7-9c0-0.9,0.4-3.4-0.2-4.3
	c-1.1-1.5-2,0.2-2.2,1.3c-0.9,3.9-1.6,13.7,3.3,15.2c2.3,0.8,5.2,0.8,7.6,0.2c0.9-0.2,1.6-0.6,2.3-0.9
	C35.8,70.2,38.4,68.9,37.1,68.9z"/>
<path class="st1" d="M61.5,56.9c1.1-2.4,0.4-6,0.2-8.6c-0.2-2.3,1.1-6.6-0.9-8.3c-1.8-1.5-4.5-0.8-6.5-0.9c1.1-1.3,0.2-4.9-1.3-5.6
	c-0.9-0.4-2,0-2.7,0c-1.3,0.2-2.7,0.2-4.2,0c-1.4,0-4.2-0.6-5.2,0.4c-1.4,1.1-1.6,3.8-1.1,5.1c-1.6,0-3.4,0.2-5.2,0.6
	c-2,0.4-2.5,0.9-2.9,3c-0.2,2.3,0,4.7-0.2,7.1c0,2.1-0.4,4.5,0.4,6.4c0.9,1.7,1.8,2.4,3.4,2.6c2.5,0.2,5.4,0.4,7.9,0.4
	c4.5,0.2,9.4,0.2,13.7,0C59,58.7,60.6,58.7,61.5,56.9z M47.6,35.7c0.9,0,3.8-0.8,4.3-0.2c0.4,0.4,0.2,1.7,0.2,2.1
	c0,1.1,0.2,0.9-0.7,1.3c-0.4,0.2-1.4,0-1.8,0c-2.5,0-5.1,0-7.6,0c0.4-0.9-0.2-2.3,0-3.4c0,0,0.2,0,0.4,0
	C44.2,35.7,46,35.8,47.6,35.7z M46,56.5c-1.8,0-3.6,0-5.4,0c-1.6,0-3.6,0.4-5.1,0c-1.8-0.4-1.8-2.1-1.8-4.1c0-1.3,0-2.8,0.2-4.1
	c0-1.7-0.4-3.8-0.2-5.3c0.5-2.6,7.8-1.5,9.8-1.3c2.9,0.2,6,0,8.9,0c2.3,0,5.1-0.2,7.2,0.4c0,0,0-0.2-0.2-0.2c-0.2,0,0.4,0.2,0.4,0.2
	c0.5,0.4,0,6,0.2,7.1c0.2,1.9,0.4,3.9,0,5.8c-0.5,2.4-2.5,1.5-4.5,1.3C52.1,55.9,49,56.3,46,56.5z"/>
<path class="st1" d="M48.9,42.6c-1.4-0.6-2.9,0-4.3,0.8c-2.9,1.5-4.7,4.9-3.4,8.1c3.1,7.9,15.4,2.3,11.6-5.3
	C51.9,44.8,50.3,43.2,48.9,42.6z M51,49.7c-0.9,4.9-9.2,4.3-8.1-1.1c0.4-1.9,2.7-4.3,4.7-4.1C49.4,44.8,51.4,47.9,51,49.7z"/>
<path class="st1" d="M59.1,44.5c0-0.6-0.2-0.9-0.5-1.3c-0.4-0.6-0.9-0.6-1.4-0.6c-1.1,0-1.8,0.9-1.6,2.1V45c0,0.2,0,0.2,0.2,0.4
	c0.4,0.8,1.1,0.9,1.6,0.8c0.2,0,0.4,0,0.5,0C58.6,45.8,59,45.2,59.1,44.5z"/>
<path class="st2" d="M47,91C22.7,91,3,71.3,3,47h-6c0,27.6,22.4,50,50,50V91z M91,47c0,24.3-19.7,44-44,44v6c27.6,0,50-22.4,50-50
	H91z M47,3c24.3,0,44,19.7,44,44h6C97,19.4,74.6-3,47-3V3z M47-3C19.4-3-3,19.4-3,47h6C3,22.7,22.7,3,47,3V-3z"/>
</svg>
