<svg xmlns="http://www.w3.org/2000/svg" viewBox="0 0 45.54 31.37"><defs><style>.cls-1{fill:#fff;}</style></defs><title>back_ico</title><g id="Layer_2" data-name="Layer 2"><g id="Layer_1-2" data-name="Layer 1"><path class="cls-1" d="M43.7,13.7c-4.78.67-9.62.25-14.43.29-5.78,0-11.57-.53-17.34-.27-2.76.12-5.54.34-8.28.64a67.58,67.58,0,0,1,7.43-5.61c1.66-1.06,3.37-2,5-3.06a31,31,0,0,0,4.5-3.48c.46-.4,1.29-1,1.53-1.55.31-.75-.38-.75-.76-.53-1.27.74-2.62,1.35-3.92,2.06C14.2,4,11.07,6.1,8,8.16a40,40,0,0,0-3.49,2.6c-1.31,1.08-3.1,2.21-4,3.66-1.71,2.66,1.85,4.22,3.63,5.51,3.1,2.24,6,4.68,9,7.05a33.52,33.52,0,0,0,4.63,3.21c.64.36,4.21,2,4.59.72.23-.78-1.45-1.34-1.95-1.65-.81-.49-1.61-1-2.39-1.51-1.78-1.22-3.47-2.56-5.15-3.91-3-2.45-6.16-4.81-9.38-7,2.79.56,5.71.21,8.55.13,3.09-.09,6.18.08,9.27.17,3.46.11,6.92.15,10.39.15,2.81,0,5.63.18,8.45.11a9.93,9.93,0,0,0,4.63-.89A1.5,1.5,0,0,0,43.7,13.7ZM2.86,15.28c.21.1-.88.58-.07-.17A.87.87,0,0,1,2.86,15.28Z"/></g></g></svg>