<svg xmlns="http://www.w3.org/2000/svg" viewBox="0 0 66.99 61.23"><defs><style>.cls-1{fill:#e75e5a;fill-rule:evenodd;}.cls-2{fill:#fff;}</style></defs><title>erase_icon</title><g id="Layer_2" data-name="Layer 2"><g id="Layer_1-2" data-name="Layer 1"><path class="cls-1" d="M12.27,27.55c4.75,6.73,14,12.38,20.07,18.31,6.41,6.29,5.37,9.19,12.35,2.38C50.05,43,64.81,32,64.71,23.92c-.1-7.74-11.9-15.23-17.47-19.42C40-1,35.63,4,29.09,8.78"/><path d="M61,15c-2.55-2.59-5.13-5.19-7.72-7.74S47.72.83,43.76.13s-7.43,1.72-10.3,4.18C27,9.85,20.88,15.79,14.91,21.84c-2.87,2.91-5.42,6.08-8.32,9C4,33.41,1,36.24.21,40c-.91,4.19,1.18,7,4.21,9.65,3.29,2.89,6.66,5.65,10.06,8.41-3.3,0-6.59-.16-9.89-.2-.12,0-.36,0-.66-.06a2.89,2.89,0,0,1-1.05.34,3.91,3.91,0,0,1-.34.59.86.86,0,0,0,0,.35c0,.15.45.8.67,1.23a6,6,0,0,1,1.38.37c.67,0,1.32,0,1.88,0,4.82.15,9.65.36,14.47.42s9.66.27,14.51,0c2.19-.1,4.39-.16,6.58-.31,1.63-.11,4.57,0,5.51-1.55,1.47-2.51-3.94-1.37-4.94-1.3-2.58.21-5.17.27-7.75.38,6.49-5.59,13-11.29,19-17.42,2.8-2.86,5.54-5.77,8.26-8.71,2-2.12,4.95-4.58,4.85-7.77C66.87,20.67,63.43,17.53,61,15ZM35.53,54c-.9.81-1.8,1.63-2.68,2.46-.52.5-1,1.1-1.45,1.6s-.57.39-1.16.39c-2.37,0-4.75-.14-7.12-.18-1,0-2.08,0-3.11-.05a8.7,8.7,0,0,1-1.84-.09c-.71-.21-.29-.37-.62-1-.66-1.32-2.71-2.46-3.84-3.34a92.79,92.79,0,0,1-8.83-7.62A5.92,5.92,0,0,1,3.7,38.61c1.81-3.51,5.5-6.17,8.15-9,.52,1.2,2.11,2,3.08,2.82,1.16,1,2.24,2,3.3,3.14a86.41,86.41,0,0,0,6.67,6.16A135,135,0,0,1,36.52,53.16ZM60.93,29.3q-3.28,3.52-6.58,7.06C49.41,41.66,44,46.47,38.63,51.3a111,111,0,0,0-11.9-11.76,80.31,80.31,0,0,1-6.42-5.95c-1.06-1.13-2.15-2.2-3.31-3.22-1-.88-2.3-2.24-3.66-2.48,3.08-3.61,6.48-7,9.89-10.27,4.05-3.91,8.19-7.79,12.49-11.42,2.54-2.14,5.88-4.45,9.2-2.57,2.28,1.29,4,3.47,5.86,5.29,1.7,1.67,3.28,3.45,5,5.11,1.93,1.85,3.81,3.7,5.6,5.69,1.14,1.26,2.88,3.06,2.73,4.94S62.15,28,60.93,29.3Z"/><path class="cls-2" d="M36.52,53.16l-1,.88c-.9.81-1.8,1.63-2.68,2.46-.52.5-1,1.1-1.45,1.6s-.57.39-1.16.39c-2.37,0-4.75-.14-7.12-.18-1,0-2.08,0-3.11-.05a8.7,8.7,0,0,1-1.84-.09c-.71-.21-.29-.37-.62-1-.66-1.32-2.71-2.46-3.84-3.34a92.79,92.79,0,0,1-8.83-7.62A5.92,5.92,0,0,1,3.7,38.61c1.81-3.51,5.5-6.17,8.15-9,.52,1.2,2.11,2,3.08,2.82,1.16,1,2.24,2,3.3,3.14a86.41,86.41,0,0,0,6.67,6.16A135,135,0,0,1,36.52,53.16Z"/></g></g></svg>