<svg xmlns="http://www.w3.org/2000/svg" viewBox="0 0 66.99 61.23"><defs><style>.cls-1{fill:#e75e5a;fill-rule:evenodd;}</style></defs><title>erase_icon</title><g id="Layer_2" data-name="Layer 2"><g id="Layer_1-2" data-name="Layer 1"><path class="cls-1" d="M12.27,27.55c4.75,6.73,14,12.38,20.07,18.31,6.41,6.29,5.37,9.2,12.35,2.39C50.05,43,64.81,32,64.71,23.92c-.1-7.74-11.9-15.23-17.46-19.42C40-1,35.63,4,29.09,8.78"/><path d="M61,15q-3.82-3.9-7.72-7.75C50.55,4.61,47.73.83,43.77.13S36.34,1.84,33.46,4.31C27,9.85,20.89,15.79,14.92,21.84c-2.87,2.91-5.42,6.08-8.33,9C4,33.41,1,36.23.21,40c-.9,4.2,1.19,7,4.22,9.66,3.29,2.88,6.65,5.65,10.05,8.41-3.3,0-6.59-.16-9.89-.2-.11,0-.35,0-.65-.06a2.89,2.89,0,0,1-1,.34,4.88,4.88,0,0,1-.34.58.89.89,0,0,0,0,.36c.05.14.44.8.66,1.23a6.07,6.07,0,0,1,1.39.37c.67,0,1.32,0,1.88,0,4.82.15,9.65.35,14.47.42s9.66.26,14.5,0c2.2-.1,4.39-.16,6.59-.31,1.62-.11,4.57,0,5.51-1.55,1.47-2.51-3.94-1.38-5-1.3-2.57.2-5.16.27-7.74.38,6.49-5.59,13-11.29,19-17.42,2.79-2.86,5.53-5.78,8.25-8.71,2-2.12,5-4.58,4.86-7.77C66.87,20.66,63.44,17.52,61,15ZM35.54,54c-.9.81-1.81,1.62-2.68,2.46-.53.5-.95,1.1-1.45,1.59s-.58.4-1.17.39c-2.37,0-4.74-.14-7.11-.17-1,0-2.08,0-3.12-.05a9.32,9.32,0,0,1-1.83-.1c-.71-.2-.29-.36-.62-1-.66-1.32-2.72-2.46-3.84-3.34a93,93,0,0,1-8.84-7.63A5.92,5.92,0,0,1,3.7,38.6c1.82-3.5,5.51-6.16,8.16-9,.52,1.2,2.11,2,3.07,2.81a42.74,42.74,0,0,1,3.3,3.15,86.42,86.42,0,0,0,6.68,6.15A138.09,138.09,0,0,1,36.53,53.16ZM60.94,29.3l-6.59,7.05C49.41,41.66,44,46.47,38.63,51.3A109.12,109.12,0,0,0,26.74,39.54a77,77,0,0,1-6.42-6c-1.06-1.12-2.15-2.19-3.31-3.22-1-.87-2.3-2.23-3.66-2.47,3.07-3.61,6.47-7,9.88-10.27,4.06-3.91,8.19-7.79,12.5-11.43,2.54-2.14,5.88-4.45,9.2-2.56,2.27,1.29,4,3.47,5.86,5.29,1.69,1.67,3.28,3.45,5,5.1,1.93,1.86,3.81,3.71,5.6,5.69,1.14,1.27,2.88,3.07,2.72,4.94S62.16,28,60.94,29.3Z"/></g></g></svg>