<svg width="107" height="107" viewBox="0 0 107 107" fill="none" xmlns="http://www.w3.org/2000/svg">
<g filter="url(#filter0_d)">
<path d="M6.5 51.0449C6.5 25.0875 27.5426 4.04492 53.5 4.04492V4.04492C79.4574 4.04492 100.5 25.0875 100.5 51.0449V51.0449C100.5 77.0023 79.4574 98.0449 53.5 98.0449V98.0449C27.5426 98.0449 6.5 77.0023 6.5 51.0449V51.0449Z" fill="#6A8E4E"/>
<g clip-path="url(#clip0)">
<path d="M78.7668 73.6877C78.7668 71.9717 77.1924 70.3567 76.0679 69.1455C74.606 67.5305 72.9191 66.0164 71.3448 64.5023C69.7704 62.9883 68.421 61.3733 67.0715 59.7583C66.1719 58.7489 65.3847 57.8404 64.4851 56.8311C63.8103 56.0235 62.6858 55.317 62.1235 54.4085C61.7862 53.8029 62.1235 53.8029 62.7983 53.0964C63.3605 52.4907 63.8103 51.8851 64.2602 51.2795C65.1598 49.9673 65.947 48.4532 66.3968 46.9391C67.2964 44.2138 67.4089 41.5894 66.7342 38.7632C65.1598 33.3125 59.8744 28.0638 53.577 26.4487C50.6532 25.7422 47.7294 26.045 44.8056 26.4487C41.7693 26.8525 38.3957 28.1647 35.9217 29.6788C30.4114 33.1106 28.0499 38.8641 28.6121 44.7185C29.062 50.7748 33.4477 55.8217 39.4078 58.3451C42.444 59.6573 45.8177 60.2629 49.0788 59.8592C50.6532 59.6573 52.1151 59.3545 53.577 58.9507C54.3642 58.6479 55.2638 58.4461 56.051 58.0423C56.7257 57.7395 57.9627 56.8311 58.4125 57.0329C58.7499 57.1339 59.1997 57.9414 59.4246 58.2442C59.8744 58.8498 60.4367 59.5564 60.8865 60.162C62.0111 61.6761 63.2481 63.1901 64.5975 64.6033C66.6217 66.9248 68.6459 69.4483 70.6701 71.7699C71.3448 72.5774 72.132 73.3849 72.9191 74.1924C73.7063 74.9999 73.9312 75.9083 75.2807 76.1102C77.0799 76.6149 78.7668 75.4036 78.7668 73.6877ZM57.9627 54.5095C51.7777 58.6479 43.7935 58.9507 37.496 54.9132C31.536 50.9767 29.7367 44.6176 31.536 38.3594C32.3231 35.735 34.4598 33.3125 36.8213 31.6975C38.0583 30.89 39.4078 30.2844 40.7572 29.6788C42.2191 29.0731 43.9059 28.1647 45.5927 27.9628C48.7415 27.4581 52.9023 28.2656 55.7136 29.5778C58.8624 31.0919 61.3363 33.6153 63.0232 36.3407C67.0715 42.4979 64.1477 50.371 57.9627 54.5095ZM63.1356 61.0704C61.7862 59.4554 60.6616 57.7395 59.3122 56.2254C59.762 55.9226 60.2118 55.6198 60.6616 55.216C61.5613 56.3264 62.5733 57.3357 63.473 58.4461C63.6979 58.7489 63.9228 58.9507 64.1477 59.2536C64.4851 59.8592 64.4851 59.5564 64.3726 59.9601C64.2602 60.3639 63.473 60.7676 63.1356 61.0704ZM65.0473 63.2911C64.4851 62.6855 64.0353 62.1808 63.473 61.5751C64.1477 61.3733 64.71 60.9695 65.1598 60.4648C65.6096 61.0704 66.1719 61.3733 66.0594 61.9789C65.947 62.3826 65.2722 62.7864 65.0473 63.2911ZM76.855 73.6877C76.855 74.1924 76.5177 74.4952 75.9554 74.5961C74.7184 74.798 74.2686 73.4858 73.5939 72.6783C70.895 69.7511 68.1961 66.723 65.4972 63.6948C65.947 63.5939 67.0715 62.8873 67.4089 62.9883C67.7462 63.0892 68.6459 64.3005 68.8708 64.6033C69.8829 65.7136 71.0074 66.622 72.0195 67.6314C73.1441 68.7417 74.2686 69.852 75.2807 70.9624C75.7305 71.6689 76.855 72.7792 76.855 73.6877Z" fill="white"/>
<path d="M62.236 45.0213C63.473 39.5707 60.4367 34.0191 55.1514 31.2938C52.2276 29.7797 49.5286 29.7797 46.2675 30.1834C43.7935 30.4863 41.0946 31.1928 38.9579 32.505C34.1224 35.4322 32.0982 41.0847 33.5601 46.1316C35.022 51.3804 40.8697 55.4179 46.9422 55.6198C53.9144 55.8217 60.7741 51.2795 62.236 45.0213ZM60.2118 42.9016C59.8744 47.7466 55.9385 51.6832 50.8781 52.9954C45.5927 54.4085 39.7451 52.2888 36.9338 48.0495C34.4598 44.3148 35.1345 38.8641 38.3957 35.6341C39.8576 34.12 41.9942 33.2116 44.0184 32.4041C44.6931 32.1013 45.5927 31.6975 46.3799 31.5966C47.5045 31.3947 49.0788 31.6975 50.2034 31.8994C55.7136 32.7069 60.5492 37.7538 60.2118 42.9016Z" fill="white"/>
<path d="M55.6012 39.5707C54.9265 37.5519 53.2396 36.1388 51.3279 35.1294C50.6532 34.7257 49.1913 34.0191 49.9785 35.2303C50.7656 36.5425 52.0026 37.5519 52.9023 38.8641C53.3521 39.5707 53.6895 40.4791 54.3642 40.9838C55.6012 41.8922 55.9385 40.5801 55.6012 39.5707Z" fill="white"/>
</g>
<path d="M53.5 95.0449C29.1995 95.0449 9.5 75.3455 9.5 51.0449H3.5C3.5 78.6592 25.8858 101.045 53.5 101.045V95.0449ZM97.5 51.0449C97.5 75.3455 77.8005 95.0449 53.5 95.0449V101.045C81.1142 101.045 103.5 78.6592 103.5 51.0449H97.5ZM53.5 7.04492C77.8005 7.04492 97.5 26.7444 97.5 51.0449H103.5C103.5 23.4307 81.1142 1.04492 53.5 1.04492V7.04492ZM53.5 1.04492C25.8858 1.04492 3.5 23.4307 3.5 51.0449H9.5C9.5 26.7444 29.1995 7.04492 53.5 7.04492V1.04492Z" fill="#2C473E"/>
</g>
<defs>
<filter id="filter0_d" x="0.5" y="0.0449219" width="106" height="106" filterUnits="userSpaceOnUse" color-interpolation-filters="sRGB">
<feFlood flood-opacity="0" result="BackgroundImageFix"/>
<feColorMatrix in="SourceAlpha" type="matrix" values="0 0 0 0 0 0 0 0 0 0 0 0 0 0 0 0 0 0 127 0"/>
<feOffset dy="2"/>
<feGaussianBlur stdDeviation="3"/>
<feColorMatrix type="matrix" values="0 0 0 0 0 0 0 0 0 0 0 0 0 0 0 0 0 0 0.5 0"/>
<feBlend mode="normal" in2="BackgroundImageFix" result="effect1_dropShadow"/>
<feBlend mode="normal" in="SourceGraphic" in2="effect1_dropShadow" result="shape"/>
</filter>
<clipPath id="clip0">
<rect width="50" height="50" fill="white" transform="translate(28.5 26.0449)"/>
</clipPath>
</defs>
</svg>
