<svg width="100" height="167" viewBox="0 0 100 167" fill="none" xmlns="http://www.w3.org/2000/svg">
<g clip-path="url(#clip0)">
<path d="M99.5327 30.8736C98.1309 22.4534 93.9253 14.0332 87.3832 7.95201C79.9066 1.40299 70.0935 -0.468158 60.2804 -0.000370564C42.0561 1.40299 21.4954 8.4198 7.94397 20.5823C6.07481 22.4534 4.20565 24.3246 2.80378 26.6635C1.8692 28.5346 4.05191e-05 32.2769 4.05191e-05 34.6159C-0.467249 43.036 4.20565 52.8596 9.81312 58.473C12.6169 61.2797 14.9533 64.5542 18.2243 60.3442C19.6262 58.473 21.0281 56.6019 22.8972 54.7307C28.0374 49.5851 33.6449 45.375 39.7197 41.6327C46.729 37.8904 56.0748 33.2125 64.0187 34.1481C68.6916 34.6159 72.4299 38.3582 69.6262 43.036C66.3552 49.1173 57.944 53.3274 52.3365 56.6019C45.3271 60.812 38.3178 65.4898 32.243 71.1033C26.1683 76.7167 22.4299 83.7335 21.4954 92.1537C20.5608 100.106 23.3645 108.526 25.701 116.011C27.1028 119.753 28.5047 128.173 32.7103 129.109C35.5141 130.044 38.7851 128.173 41.5888 127.238C44.8599 125.834 51.8692 123.963 53.7384 120.689C55.1402 117.414 53.2711 111.333 53.2711 108.058C53.2711 103.381 53.2711 98.7027 54.6729 94.4926C57.944 85.6047 65.8879 79.0556 73.3645 73.91C80.3739 69.2321 87.3832 66.4254 92.5234 59.4086C98.1309 50.9884 101.402 41.1649 99.5327 30.8736ZM94.8599 39.7615C93.9253 49.1173 87.8505 58.473 79.4393 63.1509C71.4954 67.361 63.5514 72.0388 57.4767 79.0556C49.5328 88.4114 46.729 97.7671 47.6636 109.462C47.6636 111.801 48.5982 114.14 48.1309 116.479C48.1309 117.882 48.5982 117.414 47.6636 118.35C46.729 119.285 44.3926 119.753 43.458 119.753C41.5888 120.689 38.7851 122.092 36.9159 122.56C36.4486 122.56 35.5141 123.028 35.0468 123.028C34.1122 122.56 33.6449 119.285 33.1776 118.818C30.3739 111.801 27.5701 102.913 27.5701 94.9604C27.5701 85.6047 32.7103 78.5879 39.7197 72.9744C47.6636 66.4254 56.0748 62.2153 64.486 56.1341C71.4954 51.4562 79.9066 43.036 74.2991 34.1481C67.7571 23.8568 51.4019 29.938 42.9907 34.1481C32.7103 38.826 22.4299 46.3105 16.3552 56.1341C12.6169 50.0528 10.2804 43.036 7.47668 36.487C5.60752 33.2125 3.73836 31.8091 6.5421 29.0024C14.9533 19.6467 26.6356 13.5655 38.3178 9.35537C50 5.61307 66.3552 1.40299 78.0374 7.01644C89.2524 13.0977 96.2617 27.5991 94.8599 39.7615Z" fill="black"/>
<path d="M94.8603 39.7623C93.9257 49.118 87.8509 58.4738 79.4397 63.1517C71.4958 67.3617 63.5519 72.0396 57.4771 79.0564C49.5332 88.4122 46.7295 97.7679 47.664 109.463C47.664 111.802 48.5986 114.14 48.1313 116.479C48.1313 117.883 48.5986 117.415 47.664 118.351C46.7295 119.286 44.393 119.754 43.4584 119.754C41.5893 120.689 38.7855 122.093 36.9164 122.561C36.4491 122.561 35.5145 123.028 35.0472 123.028C34.1126 122.561 33.6453 119.286 33.178 118.818C30.3743 111.802 27.5706 102.914 27.5706 94.9612C27.5706 85.6054 32.7108 78.5886 39.7201 72.9752C47.664 66.4262 56.0752 62.2161 64.4865 56.1348C71.4958 51.457 79.907 43.0368 74.2995 34.1489C67.7575 23.8575 51.4023 29.9388 42.9911 34.1489C32.7108 38.8267 22.4304 46.3113 16.3556 56.1348C12.6173 50.0536 10.2809 43.0368 7.47711 36.4878C5.60795 33.2133 3.73879 31.8099 6.54253 29.0032C14.9537 19.6475 26.636 13.5662 38.3182 9.35614C50.0005 5.61384 66.3556 1.40376 78.0379 7.0172C89.2528 13.0984 96.2622 27.5998 94.8603 39.7623Z" fill="white"/>
<path d="M59.3463 143.61C56.5426 135.19 51.4024 135.658 44.3931 137.997C40.6548 139.4 34.1127 140.803 31.309 144.078C28.9725 146.885 30.8417 152.966 31.309 156.24C31.7763 159.515 31.7763 165.596 35.9819 166.532C40.1875 167.467 45.7949 164.661 49.5333 163.257C53.2716 161.386 58.8791 159.047 60.7482 155.305C62.6174 152.03 60.7482 146.885 59.3463 143.61ZM53.7389 154.837C50.4678 157.176 44.3931 160.918 40.1875 160.918C37.851 160.918 38.7856 161.386 37.851 159.515C37.3837 158.579 37.3837 157.176 36.9164 156.24C36.4492 153.434 35.9819 150.627 35.0473 148.288C39.2529 147.352 42.0566 146.417 45.3277 145.014C46.7295 144.546 50.0006 142.675 51.4024 142.675C53.2716 142.675 53.2716 144.078 54.2062 145.949C55.1407 149.224 57.0099 152.498 53.7389 154.837Z" fill="black"/>
<path d="M53.738 154.838C50.4669 157.177 44.3922 160.919 40.1866 160.919C37.8501 160.919 38.7847 161.387 37.8501 159.516C37.3828 158.58 37.3828 157.177 36.9155 156.241C36.4483 153.434 35.981 150.628 35.0464 148.289C39.252 147.353 42.0557 146.418 45.3268 145.014C46.7286 144.546 49.9997 142.675 51.4015 142.675C53.2707 142.675 53.2707 144.079 54.2053 145.95C55.1398 149.224 57.009 152.499 53.738 154.838Z" fill="white"/>
</g>
<defs>
<clipPath id="clip0">
<rect width="100" height="167" fill="white"/>
</clipPath>
</defs>
</svg>
