<svg xmlns="http://www.w3.org/2000/svg" viewBox="0 0 46.06 53.38"><defs><style>.cls-1{fill:#fff;}</style></defs><title>leaf_icon</title><g id="Layer_2" data-name="Layer 2"><g id="Layer_1-2" data-name="Layer 1"><path d="M43.84,48.1a3.56,3.56,0,0,1-1.48-.58,11,11,0,0,1-2.26-2.34,15.08,15.08,0,0,0-1.63-1.86,2,2,0,0,0-.22-.29l-.13-.17a5.59,5.59,0,0,1-.57-1,6.29,6.29,0,0,1-.31-2.8,18.12,18.12,0,0,1,.65-3.41,19.81,19.81,0,0,0,.69-3.88c.16-3.62-.76-7.83-2.81-12.88a24.84,24.84,0,0,0-8.44-11c-3.95-2.82-8.37-4.42-13-6A33.83,33.83,0,0,0,7.18.07a19.87,19.87,0,0,0-5.89.5C.59.7.17,1,0,1.42A1.45,1.45,0,0,0,.58,2.84C1.25,3.53,1.86,4.3,2.39,5a12.81,12.81,0,0,1,2.42,5.35,41.66,41.66,0,0,1,.73,5.75c.24,3.06.5,6.23,1.89,9.24,1.79,3.88,4.94,7.05,9.89,10a66,66,0,0,0,8.63,4c1.53.62,3.1,1.26,4.62,2a12.84,12.84,0,0,1,5.18,3.84c.53.68,1,1.41,1.49,2.12a26.28,26.28,0,0,0,2.16,3,7.81,7.81,0,0,0,.71.68,6,6,0,0,1,.9.93.68.68,0,0,0,.12.12,1.57,1.57,0,0,1,.24.21.48.48,0,0,0,.35.16,2.44,2.44,0,0,1,.23.16.39.39,0,0,1,.14.17,4.06,4.06,0,0,0,.26.36.75.75,0,0,0,.47.38.41.41,0,0,0,.16,0,1.41,1.41,0,0,0,.93-.52l.21-.17c.88-.65,2.07-1.54,1.92-3C45.72,48.48,44.63,48.26,43.84,48.1Zm-8.73-13c-.16.61-.32,1.23-.45,1.87-.28-.82-.53-1.65-.77-2.46l-.42-1.35a32.83,32.83,0,0,0-2.94-6.85,17.83,17.83,0,0,0-4.7-5.47c-.64-.48-1.33-.9-2-1.32a14.06,14.06,0,0,1-3.68-2.9,10.77,10.77,0,0,1-1.5-2.52,5.18,5.18,0,0,1-.18-.53c-.39-1.26-.84-2.67-1.79-2.54a.85.85,0,0,0-.59.39c-.58.85-.12,3.07,0,3.51a8.93,8.93,0,0,0,1.72,3.33,16.55,16.55,0,0,0,4.74,3.8l1.22.77a15,15,0,0,1,4.51,4.76A36.72,36.72,0,0,1,31.11,34,44.74,44.74,0,0,0,33.4,39.4a73.3,73.3,0,0,0-7-3.14c-3.78-1.53-7.7-3.12-11-5.69a17.93,17.93,0,0,1-5.7-7.29,25.71,25.71,0,0,1-1.31-7.75c-.06-1-.13-2.06-.24-3.08C7.77,9.42,7,5.3,3.75,2.61l.54.05c.86.07,1.71.15,2.57.25a27.77,27.77,0,0,1,5.46,1.34l1.52.5a50,50,0,0,1,9.55,3.9,21.7,21.7,0,0,1,8.05,7.82A34.13,34.13,0,0,1,35,25.19a23.28,23.28,0,0,1,.83,6.3A17.33,17.33,0,0,1,35.11,35.1Z"/><path class="cls-1" d="M35.78,31.49a17.33,17.33,0,0,1-.67,3.61c-.16.61-.32,1.23-.45,1.87-.28-.82-.53-1.65-.77-2.46l-.42-1.35a32.83,32.83,0,0,0-2.94-6.85,17.83,17.83,0,0,0-4.7-5.47c-.64-.48-1.33-.9-2-1.32a14.06,14.06,0,0,1-3.68-2.9,10.77,10.77,0,0,1-1.5-2.52,5.18,5.18,0,0,1-.18-.53c-.39-1.26-.84-2.67-1.79-2.54a.85.85,0,0,0-.59.39c-.58.85-.12,3.07,0,3.51a8.93,8.93,0,0,0,1.72,3.33,16.55,16.55,0,0,0,4.74,3.8l1.22.77a15,15,0,0,1,4.51,4.76A36.72,36.72,0,0,1,31.11,34,44.74,44.74,0,0,0,33.4,39.4a73.3,73.3,0,0,0-7-3.14c-3.78-1.53-7.7-3.12-11-5.69a17.93,17.93,0,0,1-5.7-7.29,25.71,25.71,0,0,1-1.31-7.75c-.06-1-.13-2.06-.24-3.08C7.77,9.42,7,5.3,3.75,2.61l.54.05c.86.07,1.71.15,2.57.25a27.77,27.77,0,0,1,5.46,1.34l1.52.5a50,50,0,0,1,9.55,3.9,21.7,21.7,0,0,1,8.05,7.82A34.13,34.13,0,0,1,35,25.19,23.28,23.28,0,0,1,35.78,31.49Z"/></g></g></svg>