<svg width="94" height="94" viewBox="0 0 94 94" fill="none" xmlns="http://www.w3.org/2000/svg">
<rect width="94" height="94" rx="47" fill="white"/>
<g clip-path="url(#clip0)">
<path d="M69.2349 69.6428C69.2349 67.9268 67.8494 66.3118 66.8598 65.1006C65.5734 63.4855 64.089 61.9715 62.7035 60.4574C61.3181 58.9433 60.1306 57.3283 58.9431 55.7133C58.1514 54.704 57.4587 53.7955 56.667 52.7861C56.0732 51.9786 55.0836 51.2721 54.5888 50.3636C54.2919 49.758 54.5888 49.758 55.1826 49.0514C55.6774 48.4458 56.0732 47.8402 56.4691 47.2345C57.2607 45.9224 57.9535 44.4083 58.3493 42.8942C59.141 40.1689 59.2399 37.5445 58.6462 34.7182C57.2607 29.2676 52.6096 24.0188 47.0679 22.4038C44.4949 21.6973 41.922 22.0001 39.349 22.4038C36.6771 22.8076 33.7083 24.1198 31.5312 25.6338C26.6822 29.0657 24.604 34.8192 25.0988 40.6736C25.4946 46.7299 29.3541 51.7768 34.5989 54.3002C37.2709 55.6124 40.2397 56.218 43.1095 55.8143C44.4949 55.6124 45.7814 55.3096 47.0679 54.9058C47.7606 54.603 48.5523 54.4011 49.245 53.9974C49.8388 53.6946 50.9273 52.7861 51.3232 52.988C51.62 53.0889 52.0159 53.8964 52.2138 54.1993C52.6096 54.8049 53.1044 55.5115 53.5003 56.1171C54.4899 57.6311 55.5784 59.1452 56.7659 60.5583C58.5472 62.8799 60.3285 65.4034 62.1098 67.7249C62.7035 68.5324 63.3962 69.3399 64.089 70.1474C64.7817 70.955 64.9796 71.8634 66.1671 72.0653C67.7505 72.57 69.2349 71.3587 69.2349 69.6428ZM50.9273 50.4646C45.4845 54.603 38.4584 54.9058 32.9166 50.8683C27.6718 46.9317 26.0884 40.5726 27.6718 34.3145C28.3645 31.6901 30.2447 29.2676 32.3229 27.6526C33.4114 26.8451 34.5989 26.2395 35.7865 25.6338C37.0729 25.0282 38.5573 24.1198 40.0417 23.9179C42.8126 23.4132 46.4741 24.2207 48.9481 25.5329C51.719 27.047 53.8961 29.5704 55.3805 32.2957C58.9431 38.453 56.3701 46.3261 50.9273 50.4646ZM55.4795 57.0255C54.2919 55.4105 53.3023 53.6946 52.1148 52.1805C52.5107 51.8777 52.9065 51.5749 53.3023 51.1711C54.094 52.2814 54.9847 53.2908 55.7763 54.4011C55.9743 54.7039 56.1722 54.9058 56.3701 55.2086C56.667 55.8143 56.667 55.5115 56.568 55.9152C56.4691 56.319 55.7763 56.7227 55.4795 57.0255ZM57.1618 59.2462C56.667 58.6405 56.2711 58.1358 55.7763 57.5302C56.3701 57.3283 56.8649 56.9246 57.2607 56.4199C57.6566 57.0255 58.1514 57.3283 58.0524 57.934C57.9535 58.3377 57.3597 58.7415 57.1618 59.2462ZM67.5526 69.6428C67.5526 70.1474 67.2557 70.4503 66.7609 70.5512C65.6723 70.7531 65.2765 69.4409 64.6827 68.6334C62.3077 65.7062 59.9327 62.678 57.5576 59.6499C57.9535 59.549 58.9431 58.8424 59.2399 58.9433C59.5368 59.0443 60.3285 60.2555 60.5264 60.5583C61.4171 61.6687 62.4066 62.5771 63.2973 63.5865C64.2869 64.6968 65.2765 65.8071 66.1671 66.9174C66.563 67.624 67.5526 68.7343 67.5526 69.6428Z" fill="#4F4F4F"/>
<path d="M54.6878 40.9764C55.7763 35.5258 53.1044 29.9742 48.4533 27.2488C45.8804 25.7348 43.5053 25.7348 40.6355 26.1385C38.4584 26.4413 36.0833 27.1479 34.2031 28.4601C29.9478 31.3873 28.1666 37.0398 29.453 42.0867C30.7395 47.3355 35.8854 51.373 41.2293 51.5749C47.3648 51.7768 53.4013 47.2345 54.6878 40.9764ZM52.9065 38.8567C52.6096 43.7017 49.146 47.6383 44.6928 48.9505C40.0417 50.3636 34.8958 48.2439 32.4218 44.0045C30.2447 40.2698 30.8385 34.8192 33.7083 31.5892C34.9948 30.0751 36.875 29.1667 38.6563 28.3592C39.2501 28.0563 40.0417 27.6526 40.7345 27.5517C41.7241 27.3498 43.1095 27.6526 44.0991 27.8545C48.9481 28.662 53.2034 33.7089 52.9065 38.8567Z" fill="#4F4F4F"/>
<path d="M48.8492 35.5258C48.2554 33.507 46.771 32.0939 45.0887 31.0845C44.4949 30.6807 43.2085 29.9742 43.9012 31.1854C44.5939 32.4976 45.6824 33.507 46.4741 34.8192C46.87 35.5258 47.1668 36.4342 47.7606 36.9389C48.8492 37.8473 49.146 36.5351 48.8492 35.5258Z" fill="#4F4F4F"/>
</g>
<defs>
<clipPath id="clip0">
<rect width="44" height="50" fill="white" transform="translate(25 22)"/>
</clipPath>
</defs>
</svg>
