<svg width="114" height="113" viewBox="0 0 114 113" fill="none" xmlns="http://www.w3.org/2000/svg">
<path d="M112.426 42.6391C104.421 31.4818 81.2075 43.8346 75.6043 29.4894C71.6019 19.5274 62.3966 -15.1401 49.9894 7.57309C45.9871 14.7457 44.7864 29.0909 38.783 34.2711C31.979 40.6467 16.7702 37.4589 8.36536 39.8498C-12.0464 45.03 9.96629 66.9463 20.7725 70.931C20.7725 70.931 21.573 71.3295 22.3735 71.728C22.7737 72.525 22.7737 73.3219 23.1739 73.7204C23.5742 77.7052 23.5742 79.6976 22.3735 84.0808C19.9721 91.6519 11.167 114.764 26.776 112.771C38.3827 111.576 45.1867 98.426 55.5927 96.8321C58.3943 96.4336 67.5996 102.809 71.2017 104.802C76.0045 107.193 87.211 114.365 93.2144 112.771C109.624 108.786 86.4105 80.4945 86.4105 72.9234C90.4128 65.3524 121.231 54.9919 112.426 42.6391ZM91.2133 105.599C87.211 105.2 76.0045 98.8245 74.8038 98.0275C69.2006 95.2382 62.3966 88.8625 55.5927 89.261C45.5869 89.6595 35.5811 107.193 25.1751 105.599C23.1739 101.614 28.7772 89.6595 29.5776 85.6747C31.1786 80.096 32.7795 74.5174 29.1774 69.7356C28.3769 68.5402 25.9756 66.1493 23.9744 65.3524C22.7737 63.7585 21.573 61.7661 19.1716 60.1722C15.1693 56.9843 8.36536 53.7965 7.5649 48.2178C11.5672 45.03 21.573 46.2254 26.3758 45.827C32.7795 45.03 40.3839 44.6315 45.1867 39.4513C52.3908 31.4818 50.7899 14.3472 59.1948 7.57309C67.1994 11.9563 66.3989 32.6772 72.4024 39.0528C76.4047 43.4361 82.4082 43.4361 88.0114 44.233C92.0137 45.03 102.42 44.6315 106.822 47.0224C102.82 57.7813 82.8084 59.7737 79.6066 70.5326C76.0045 81.2915 94.4151 94.4412 91.2133 105.599Z" fill="black"/>
</svg>
