<svg xmlns="http://www.w3.org/2000/svg" viewBox="0 0 27.64 26.46"><defs><style>.cls-1{fill:#fff;}</style></defs><title>RA_icon</title><g id="Layer_2" data-name="Layer 2"><g id="Layer_1-2" data-name="Layer 1"><path class="cls-1" d="M.13,7.25c0,.54.13,2.26,1,2.17s.56-2,.56-2.64c0-1.54-.24-3.64.56-5-.16.28.43.06.58,0,.45-.08.91-.13,1.37-.18.76-.08,1.55-.16,2.32-.18.42,0,2.38.27,1.9-.37A5.27,5.27,0,0,0,6.3.23C4.91-.1,1.68-.27.77,1.14S0,5.5.13,7.25Z"/><path class="cls-1" d="M27.63,5.25a9.41,9.41,0,0,0-.57-3.53A2.49,2.49,0,0,0,25,.59a10.94,10.94,0,0,0-3.33,0A5.12,5.12,0,0,0,20.52.9c-.26.12-1.14.35-1.27.57-.36.57,1.74.34,2.1.35.94,0,1.89.12,2.83.25.36.05,1,0,1.31.23s.28.6.35,1A18,18,0,0,1,26.05,7a9.82,9.82,0,0,0,.07,2.17c.13.53.61.88,1,.33a4.34,4.34,0,0,0,.42-2A21,21,0,0,0,27.63,5.25Z"/><path class="cls-1" d="M27.29,19.21c0-.54-.13-2.27-1-2.17s-.56,2.05-.56,2.64c0,1.54.24,3.63-.56,5,.16-.28-.43-.06-.58,0-.45.08-.91.13-1.37.18-.76.08-1.55.16-2.32.18-.41,0-2.38-.27-1.9.37a5.27,5.27,0,0,0,2.08.84c1.39.33,4.62.49,5.53-.91S27.45,21,27.29,19.21Z"/><path class="cls-1" d="M8.3,25c-.55-.3-1.87,0-2.54,0a25.18,25.18,0,0,1-3.12-.32c-.94-.19-.86-1.13-1-2-.12-1.23-.05-2.46-.07-3.69,0-.44.11-1.36-.19-1.7-.45-.51-.86,0-1,.4A10.64,10.64,0,0,0,0,21.43,10.53,10.53,0,0,0,.58,25a2.33,2.33,0,0,0,2,1.2,10,10,0,0,0,3.7,0,7.57,7.57,0,0,0,1.23-.46C7.57,25.72,9,25,8.3,25Z"/><path class="cls-1" d="M19.31,19.33a35.61,35.61,0,0,0,3.05-2.57c-.1,0,.28-.38.27-.58s-.22-.31-.24-.45a3.09,3.09,0,0,1,0-.67c.05-1,0-2,.05-3s0-1.83,0-2.74c0-.61,0-2-.31-2.43-.21-.26-.56-.18-.95-.31s-1-.39-1.55-.6c-1.17-.48-2.28-1.09-3.45-1.56-.51-.19-1-.35-1.51-.55a1.83,1.83,0,0,0-1.31-.17,10.37,10.37,0,0,0-2.84,1.59C9.65,5.87,8.82,6.54,8,7.17A25.37,25.37,0,0,0,5.41,9.09c-.17.17-.2.08-.31.38a3.14,3.14,0,0,0-.1.87c-.06,1.1,0,2.2-.06,3.3s0,2.16-.12,3.24c0,.5-.32,1.48,0,1.92.15.18.69.31.88.4.41.19.83.34,1.25.49.92.33,1.82.69,2.71,1.08a20.67,20.67,0,0,0,4.83,1.79c.63.1.51,0,1-.33s.92-.52,1.34-.83C17.67,20.75,18.48,20,19.31,19.33Zm-3.75-2.51c0-1,0-2-.12-3,0-.54-.13-.64.13-1a4.55,4.55,0,0,1,.93-1A41.64,41.64,0,0,0,15.56,16.82ZM7.77,8.5C8.89,7.7,10,6.85,11.08,6.05c.59-.42,1.63-1.58,2.32-1.48a4.62,4.62,0,0,1,1.13.62c.46.24,1,.42,1.42.63a16.26,16.26,0,0,0,4.24,1.61c-1,.75-2,1.46-3,2.23-.58.45-1.19.87-1.76,1.33-.17.15-.7.78-.9.79s-.54-.31-.71-.39a24.22,24.22,0,0,0-3.89-1.27,13.31,13.31,0,0,0-3.09-1Zm5.92,12.61a32.47,32.47,0,0,0-6.9-2.63c-.33-.07-.93,0-1.1-.31s0-.68,0-.93c.06-.95.1-1.91.11-2.86A39.25,39.25,0,0,0,5.68,10a11.23,11.23,0,0,0,4.21,1.8c.91.26,1.84.49,2.76.72.37.1,1.83.15,2.06.44s-.17,1.76-.21,2.15c-.06.71-.06,1.43-.08,2.14,0,1.37-.09,2.75,0,4.12Zm4.75-2.79c-1,.83-2.05,1.62-2.93,2.54,0-.95,0-1.91,0-2.86.41.14,1.07-3.75,1.19-4.23a12.93,12.93,0,0,0,.32-1.4,4.39,4.39,0,0,1,.09-1c.25-.58,1.48-1.27,2-1.68-.62,2.16-1.31,4.29-1.91,6.45-.24.84-.54,1.68-.73,2.53-.14.61.17.87.45.22a37.12,37.12,0,0,0,1.74-5.35c.31-1.19.54-2.39.81-3.58a1.44,1.44,0,0,1,.73-1.06c.42-.32.82-.66,1.25-1-.19,1.72-.13,3.45-.15,5.18l0,1.37a5,5,0,0,1,0,1.4c-.25.64-1.5,1.32-2.06,1.78a27,27,0,0,0,1.53-5.05c.14-.81.25-1.62.34-2.45,0-.3.16-1.39-.26-.66a7.42,7.42,0,0,0-.36,1.77c-.19.85-.43,1.69-.66,2.53s-.5,1.84-.76,2.77C18.94,17.06,18.85,18,18.44,18.32Z"/></g></g></svg>