<?xml version="1.0" encoding="utf-8"?>
<!-- Generator: Adobe Illustrator 23.0.1, SVG Export Plug-In . SVG Version: 6.00 Build 0)  -->
<svg version="1.1" id="Layer_1" xmlns="http://www.w3.org/2000/svg" xmlns:xlink="http://www.w3.org/1999/xlink" x="0px" y="0px"
	 viewBox="0 0 106 106" style="enable-background:new 0 0 106 106;" xml:space="preserve">
<style type="text/css">
	.st0{fill:#6A8E4E;}
	.st1{fill:#2C473E;}
	.st2{fill:#FFFFFF;}
</style>
<g>
	<path class="st0" d="M6.4,53c0-26,21-47,47-47l0,0c26,0,47,21,47,47l0,0c0,26-21,47-47,47l0,0C27.4,100,6.4,79,6.4,53L6.4,53z"/>
	<g>
		<defs>
			<rect id="SVGID_3_" x="28.4" y="28" width="50" height="50"/>
		</defs>
		<clipPath id="SVGID_1_">
			<use xlink:href="#SVGID_3_"  style="overflow:visible;"/>
		</clipPath>
	</g>
	<path class="st1" d="M53.4,97c-24.3,0-44-19.7-44-44h-6c0,27.6,22.4,50,50,50V97z M97.4,53c0,24.3-19.7,44-44,44v6
		c27.6,0,50-22.4,50-50H97.4z M53.4,9c24.3,0,44,19.7,44,44h6c0-27.6-22.4-50-50-50V9z M53.4,3c-27.6,0-50,22.4-50,50h6
		c0-24.3,19.7-44,44-44V3z"/>
</g>
<path class="st2" d="M78,69.1c0.5-2.8,0.7-6-0.4-8.6c-0.3-0.6-0.4-1.1-1.2-1.1c-0.8-0.1-1.7,0.1-2.4,0.4c-1.4,0.2-2.8,0.3-4.2,0.3
	c-0.4,0-1,0.2-1.4,0.2c-0.8,0.1-0.9,0.3-1,1.1c-0.1,0.8,0,1.7,0.1,2.5c0.1,2.8-1,5.1-3.4,6.7c-2.7,1.8-6.3,2.2-9.4,2.2
	c-3.3,0-7-0.7-9.9-2.4C42,68.8,40,66.1,39.3,63c-0.9-3.1-1.4-6.5-0.9-9.7c0.6-3.4,3.1-7,5.8-9c2.7-2.1,6.5-2.4,9.7-2.2
	c-0.2,1.2-0.1,2.5,0,3.6c0,1.2-0.2,2.3-0.4,3.5c-0.1,0.4-0.2,0.9-0.2,1.3c0,0.7,0.1,0.6,0.3,1c0.1,0.3-0.1,0.5,0.4,0.8
	c0.5,0.3,0.5-0.3,0.7-0.2c0.4,0,0.8,0.1,1.4-0.1c2-0.5,4.1-2,6-2.9c2.8-1.5,5.6-3.2,8.3-4.8c1.1-0.7,2.1-1.4,3.4-2.1
	c1.1-0.6,2.5-1.2,3.3-2.1c1.6-2-1.3-3.5-2.7-4.2c-2-1.2-4.1-2.5-6-4.1c-2.3-1.9-4.3-4.2-6.8-5.9c-1-0.8-2.1-1.5-3.4-1.9
	c-0.7-0.3-0.9-0.2-1.6,0.2c-0.3,0.2-0.4,0-0.6,0.3c-0.2,0.2-0.4,1-0.4,1.3c-0.7,2.2-0.9,4.9-0.8,7.1c-4-0.1-7.6-0.1-11,1.2
	c-3.3,1.1-6.1,2.8-8.5,5.4c-4.7,5-8.1,11.5-7.6,18.5c0.3,3.7,1,7.3,2.5,10.7c1.5,3.5,4.1,6.2,7.3,8.4c6.5,4.5,14.7,6.4,22.4,5.3
	C67.3,81.2,76.6,77.7,78,69.1z M55.6,42.1c0.2-0.1,0.1,0-0.1,0.3C55.4,42.2,55.4,42.2,55.6,42.1z M75.1,70.3
	c-2.4,7.1-11.4,9.3-18,9.6c-7.7,0.5-16.5-2.3-21.8-8.1c-2.4-2.6-3.9-6.2-4.5-9.6c-0.7-3.5-1-7.1-0.2-10.5c0.8-3.1,2.6-6,4.4-8.5
	c2-2.7,4.4-5,7.5-6.3c2-0.9,4.1-1.6,6.4-1.9c2-0.3,4.1-0.1,6.1-0.2c1.5,0,1.8-1.8,2-3.1c0.3-1.7,0.5-3.6,0.4-5.4
	c1.3,1,2.7,1.9,3.9,3c1.6,1.4,3,2.8,4.6,4.2c2.5,2.3,5.3,3.8,8,5.5c-5.9,3.7-11.9,7-17.9,10.2c0.2-1.3,0.4-2.7,0.4-4
	c0-1.2,0.2-3-0.5-4c-0.5-0.8-2-0.9-2.8-1.1c-1.6-0.3-3.2-0.4-4.8-0.1c-5.9,1.2-11.1,6.4-12.2,12.6c-0.6,3-0.2,6.4,0.5,9.3
	c0.6,3,1.7,5.8,4,8c4.6,4.7,11.6,5.9,18,5.1c3.4-0.4,6.7-1.5,9.1-4.1c2.2-2.3,3.2-5.7,2.3-8.8c2,0.3,4.1,0.3,5.9-0.5
	C75.7,64.5,76.1,67.3,75.1,70.3z"/>
</svg>
