<svg width="106" height="106" viewBox="0 0 106 106" fill="none" xmlns="http://www.w3.org/2000/svg">
<g filter="url(#filter0_d)">
<rect x="6" y="4" width="94" height="94" rx="47" fill="white"/>
<path d="M76.4034 66.884C76.9424 64.126 77.0575 60.8511 76.0411 58.262C75.779 57.6472 75.6149 57.1941 74.8041 57.1328C73.9934 57.0716 73.1189 57.2699 72.3743 57.5002C70.9487 57.701 69.555 57.772 68.1613 57.843C67.74 57.8773 67.157 58.0096 66.7357 58.0439C65.8931 58.1124 65.8294 58.3721 65.7681 59.1828C65.7069 59.9936 65.7755 60.8362 65.844 61.6788C65.9861 64.4663 64.8617 66.8054 62.4049 68.4049C59.7546 70.2321 56.0927 70.5725 53.0456 70.6508C49.7389 70.6655 46.0721 69.9036 43.1793 68.2306C40.4164 66.5895 38.4594 63.9073 37.7001 60.8308C36.811 57.7225 36.2771 54.2884 36.7817 51.109C37.35 47.67 39.8632 44.1576 42.5772 42.0707C45.2912 39.9838 49.083 39.6753 52.326 39.9203C52.1692 41.1205 52.2721 42.3844 52.277 43.4866C52.25 44.7187 52.125 45.7891 51.8384 46.9575C51.7429 47.3469 51.6155 47.8662 51.6498 48.2875C51.6204 48.9685 51.7821 48.8705 51.9462 49.3236C52.0123 49.6151 51.8188 49.8429 52.3062 50.1001C52.7937 50.3573 52.7912 49.8062 53.0509 49.8699C53.4722 49.8356 53.8616 49.9311 54.4446 49.7989C56.485 49.336 58.5205 47.7708 60.3968 46.8547C63.243 45.3508 65.9913 43.6853 68.7396 42.0197C69.8713 41.3339 70.8731 40.6162 72.1346 39.9623C73.2344 39.4062 74.6256 38.7841 75.3997 37.8729C76.9796 35.9208 74.055 34.3776 72.7225 33.6378C70.6748 32.4474 68.659 31.1271 66.7068 29.5472C64.4289 27.6121 62.3763 25.3194 59.9048 23.6121C58.8638 22.8062 57.791 22.1301 56.5246 21.6819C55.7776 21.361 55.6159 21.459 54.9693 21.8509C54.6459 22.0468 54.548 21.8851 54.3544 22.1129C54.1609 22.3407 53.9699 23.1196 53.9062 23.3793C53.235 25.5544 52.9876 28.2463 53.1271 30.4826C49.1713 30.338 45.5731 30.4188 42.1096 31.6337C38.8077 32.7506 36.0594 34.4161 33.6393 36.988C28.9608 42.0337 25.5854 48.5002 26.0703 55.5006C26.4107 59.1625 27.0426 62.7583 28.5489 66.1557C30.0234 69.6829 32.6614 72.3945 35.8481 74.5525C42.3194 79.0302 50.5299 80.9066 58.2088 79.9C65.7262 78.9914 74.9826 75.4815 76.4034 66.884ZM53.9794 39.9129C54.141 39.815 54.1092 39.9448 53.9157 40.1726C53.8177 40.0109 53.8177 40.0109 53.9794 39.9129ZM73.4911 68.0964C71.0586 75.2071 62.1206 77.4188 55.4435 77.7077C47.7621 78.1632 38.9319 75.4466 33.6216 69.6021C31.2433 66.9543 29.7688 63.4271 29.1051 59.9611C28.4413 56.4951 28.1009 52.8332 28.9289 49.4579C29.6932 46.3423 31.496 43.4814 33.3649 40.912C35.3956 38.2446 37.752 35.9323 40.826 34.622C42.8321 33.7377 44.9362 33.0152 47.2044 32.7458C49.2129 32.4127 51.3537 32.6626 53.2986 32.5891C54.8221 32.55 55.1063 30.8305 55.2949 29.5004C55.5791 27.7809 55.7652 25.8998 55.66 24.0848C56.9287 25.0841 58.3592 25.9856 59.5961 27.1148C61.1907 28.4693 62.6236 29.9219 64.2181 31.2764C66.692 33.5349 69.4868 35.0462 72.2179 36.8172C66.3661 40.4741 60.3184 43.8077 54.3026 47.0114C54.4912 45.6814 54.6798 44.3513 54.7386 42.9894C54.7656 41.7574 54.92 40.006 54.2023 39.0042C53.7124 38.1959 52.2207 38.1052 51.4418 37.9142C49.8521 37.6619 48.2306 37.5394 46.6434 37.8382C40.7157 38.9991 35.5841 44.2089 34.4768 50.406C33.8742 53.4237 34.2783 56.8259 34.9396 59.7408C35.5691 62.7854 36.6835 65.5361 38.8977 67.7309C43.5222 72.4437 50.53 73.6122 56.9132 72.8382C60.3155 72.4342 63.6173 71.3173 66.0374 68.7454C68.264 66.4013 69.2218 63.0579 68.3327 59.9495C70.3118 60.2974 72.3865 60.2558 74.2309 59.4696C74.0815 62.3231 74.4831 65.1743 73.4911 68.0964Z" fill="#2C473E"/>
<rect x="7.5" y="5.5" width="91" height="91" rx="45.5" stroke="#2C473E" stroke-width="3"/>
</g>
<defs>
<filter id="filter0_d" x="0" y="0" width="106" height="106" filterUnits="userSpaceOnUse" color-interpolation-filters="sRGB">
<feFlood flood-opacity="0" result="BackgroundImageFix"/>
<feColorMatrix in="SourceAlpha" type="matrix" values="0 0 0 0 0 0 0 0 0 0 0 0 0 0 0 0 0 0 127 0"/>
<feOffset dy="2"/>
<feGaussianBlur stdDeviation="3"/>
<feColorMatrix type="matrix" values="0 0 0 0 0 0 0 0 0 0 0 0 0 0 0 0 0 0 0.5 0"/>
<feBlend mode="normal" in2="BackgroundImageFix" result="effect1_dropShadow"/>
<feBlend mode="normal" in="SourceGraphic" in2="effect1_dropShadow" result="shape"/>
</filter>
</defs>
</svg>
