<svg width="49" height="46" viewBox="0 0 49 46" fill="none" xmlns="http://www.w3.org/2000/svg">
<path d="M48.6221 5.41638C48.5221 3.61638 45.3221 0.316381 43.6221 0.0163805C41.2221 -0.283619 39.2221 3.61638 37.8221 5.21638C34.7221 8.71638 31.5221 12.0164 28.2221 15.4164C24.0221 19.7164 19.2221 24.0164 15.6221 28.8164C14.3221 27.2164 7.82208 15.9164 6.12208 16.3164C6.12208 16.3164 5.12208 16.2164 5.02208 16.2164C3.82208 16.4164 2.62208 17.4164 1.62208 18.0164C-0.177917 19.1164 -0.377917 19.0164 0.522083 21.0164C2.42208 25.5164 5.62208 29.8164 8.02208 34.0164C10.1221 37.8164 12.1221 41.8164 14.8221 45.2164C15.0221 45.1164 14.6221 44.8164 15.0221 44.5164C14.9221 44.7164 15.2221 45.6164 15.4221 45.6164C16.4221 46.0164 21.0221 38.4164 21.5221 37.7164C24.6221 33.5164 27.6221 29.2164 30.9221 25.2164C34.0221 21.4164 37.4221 17.9164 40.8221 14.4164C41.5221 13.7164 49.8221 5.81638 48.6221 5.41638ZM45.9221 6.91638C39.6221 12.0164 33.7221 18.7164 28.6221 25.0164C25.8221 28.5164 23.2221 32.1164 20.6221 35.8164C19.7221 37.0164 16.5221 44.0164 15.3221 44.2164C16.3221 43.0164 10.4221 34.7164 9.52208 33.2164C6.92208 28.7164 4.32208 24.1164 1.52208 19.7164C2.82208 19.2164 4.32208 18.5164 5.32208 17.6164C7.32208 21.3164 10.4221 24.9164 12.9221 28.2164C14.7221 30.7164 15.0221 31.5164 17.2221 29.2164C26.0221 20.2164 35.4221 11.5164 43.3221 1.61638C44.3221 3.51638 48.2221 5.01638 45.9221 6.91638Z" fill="black"/>
<path d="M43.4221 1.71631C35.5221 11.6163 26.1221 20.2163 17.3221 29.3163C15.1221 31.5163 14.9221 30.7163 13.0221 28.3163C10.5221 24.9163 7.32207 21.4163 5.42207 17.7163C4.42207 18.7163 2.82207 19.3163 1.62207 19.8163C4.42207 24.2163 7.02207 28.8163 9.62207 33.3163C10.4221 34.8163 16.4221 43.1163 15.4221 44.3163C16.6221 44.0163 19.8221 37.1163 20.7221 35.9163C23.3221 32.3163 25.9221 28.6163 28.7221 25.1163C33.8221 18.7163 39.7221 12.1163 46.0221 6.91631C48.2221 5.01631 44.3221 3.51631 43.4221 1.71631ZM15.9221 30.8163C16.0221 30.6163 16.2221 30.5163 16.4221 30.5163C16.4221 30.6163 15.9221 30.9163 15.9221 30.8163Z" fill="white"/>
<path d="M16.3223 30.6166C16.4223 30.6166 15.9223 30.9166 15.8223 30.9166C16.0223 30.6166 16.1223 30.5166 16.3223 30.6166Z" fill="black"/>
</svg>
