<svg xmlns="http://www.w3.org/2000/svg" viewBox="0 0 31.41 35.71"><defs><style>.cls-1{fill:#fff;}</style></defs><title>seed</title><g id="Layer_2" data-name="Layer 2"><g id="Layer_1-2" data-name="Layer 1"><path class="cls-1" d="M.9,1.47A65.65,65.65,0,0,0,7.13,8.58a23.31,23.31,0,0,0,6.75,5.6,5.81,5.81,0,0,0,3.92.68c.34-.09,1.15-.4,1.14-.88s-.83-.4-1.18-.33c-2.78.49-5.45-1.74-7.39-3.48A70.06,70.06,0,0,1,2.52,1.43a44.88,44.88,0,0,1,9.52,2c2.5.84,5.2,2.21,6.76,4.42.11.15.61,1.08.89.86s-.18-.9-.26-1.08a8.12,8.12,0,0,0-2.61-3.15C14.5,2.71,11.59,2,8.79,1.29,7,.85,5.24.47,3.43.2A4.45,4.45,0,0,0,1.48.08,1,1,0,0,0,.9,1.47Z"/><path class="cls-1" d="M30.91,11.93c-1.54-.19-2.79-1.19-4.44-1a10.83,10.83,0,0,0-4.88,1.74c0-1.17,0-2.31.08-3.48a15.17,15.17,0,0,0,0-3.3c-.12-1-.56-3.74-1.78-4.15s-.15,2.26,0,2.73c.64,2.37.14,4.78-.18,7.18-1.53-1.29-3.38-2.13-5-3.37-.71-.56-1.4-1.14-2.12-1.7-.25-.19-1.85-1.61-2.17-1.4-.5.34,2.31,3,2.61,3.28a31.58,31.58,0,0,0,4.49,3.38l1.21.82s.69.39.7.41c.16.44-.38,1.67-.5,2.08a20.76,20.76,0,0,0-.76,2.47,16.07,16.07,0,0,1-.91,2.69c-.36.91-.74,1.81-1.13,2.7-.29.67-.46,1.64-1.17,2-.3.13-.63.14-.94.3s-.62.43-.94.63a4.57,4.57,0,0,1-2.2.58,5.3,5.3,0,0,0-2.22.5c-.84.47-1.11,1.37-1.77,2-1.13,1.12-2.87,1.14-4.32,1.54a3.14,3.14,0,0,0-2.62,3c0,.84.6,1,1.32,1.08,1,.13,2,.28,3,.38,4.19.43,8.47.64,12.67.71a61.33,61.33,0,0,0,10.9-1c1.15-.19,3.36-.68,3.27-2.24-.07-1.27-1.83-2.14-2.84-2.54s-1.94-.11-3-.28a3.06,3.06,0,0,1-1.76-1.33,9.8,9.8,0,0,0-5.09-3.19c.39-1,.73-1.91,1.07-2.87a26.17,26.17,0,0,1,.88-2.63c.34-.69.85-.5,1.54-.58a11.24,11.24,0,0,0,3.11-.81,15.76,15.76,0,0,0,4.42-3.08C29.74,14.92,32.52,12.14,30.91,11.93Zm-1,1.21a20.1,20.1,0,0,1-3.85,3.4A13.12,13.12,0,0,1,20.94,18c0-.14.1-.94.22-1s.91.07,1.11,0a4.64,4.64,0,0,0,1.78-.7c.57-.35,1.11-.75,1.68-1.09a3.53,3.53,0,0,0,1.12-.74c.53-.84-.79-.39-1.17-.28-1.41.4-2.85.78-4.28,1.14.09-.85.09-1.13.9-1.57A15.13,15.13,0,0,1,25,12.65c1.82-.58,3.29-.06,5.08.34Z"/></g></g></svg>