<svg xmlns="http://www.w3.org/2000/svg" viewBox="0 0 240.28 38.22"><defs><style>.cls-1{fill:#fff;}</style></defs><title>star_ico</title><g id="Layer_2" data-name="Layer 2"><g id="Layer_1-2" data-name="Layer 1"><path d="M38,14.42c-2.71-3.77-10.56.4-12.45-4.45C24.21,6.6,21.1-5.12,16.91,2.56c-1.36,2.43-1.76,7.28-3.79,9-2.31,2.16-7.45,1.08-10.29,1.89C-4.07,15.23,3.37,22.64,7,24l.54.27c.13.27.13.54.27.67a8,8,0,0,1-.27,3.5C6.75,31,3.78,38.81,9.06,38.14c3.92-.41,6.22-4.85,9.74-5.39.95-.14,4.06,2,5.28,2.69,1.62.81,5.41,3.24,7.44,2.7,5.55-1.35-2.3-10.92-2.3-13.48C30.58,22.1,41,18.6,38,14.42ZM30.85,35.71c-1.36-.13-5.15-2.29-5.55-2.56-1.9-.94-4.2-3.1-6.5-3-3.38.13-6.77,6.06-10.29,5.52C7.84,34.36,9.73,30.32,10,29c.54-1.88,1.09-3.77-.13-5.39A5,5,0,0,0,8.11,22.1a6.36,6.36,0,0,0-1.63-1.75c-1.35-1.08-3.65-2.16-3.92-4,1.35-1.08,4.74-.68,6.36-.81,2.17-.27,4.74-.41,6.36-2.16,2.44-2.69,1.9-8.49,4.74-10.78,2.71,1.48,2.43,8.49,4.47,10.65,1.35,1.48,3.38,1.48,5.27,1.75,1.36.27,4.88.13,6.37.94-1.36,3.64-8.13,4.31-9.21,8S31.93,31.94,30.85,35.71Z"/><path class="cls-1" d="M26.92,23.85c-1.22,3.64,5,8.09,3.93,11.86-1.36-.13-5.15-2.29-5.55-2.56-1.9-.94-4.2-3.1-6.5-3-3.38.13-6.77,6.06-10.29,5.52C7.84,34.36,9.73,30.32,10,29c.54-1.88,1.09-3.77-.13-5.39A5,5,0,0,0,8.11,22.1a6.36,6.36,0,0,0-1.63-1.75c-1.35-1.08-3.65-2.16-3.92-4,1.35-1.08,4.74-.68,6.36-.81,2.17-.27,4.74-.41,6.36-2.16,2.44-2.69,1.9-8.49,4.74-10.78,2.71,1.48,2.43,8.49,4.47,10.65,1.35,1.48,3.38,1.48,5.27,1.75,1.36.27,4.88.13,6.37.94C34.77,19.54,28,20.21,26.92,23.85Z"/><path d="M88.45,14.42C85.74,10.65,77.89,14.82,76,10,74.64,6.6,71.53-5.12,67.34,2.56,66,5,65.58,9.84,63.55,11.59c-2.31,2.16-7.45,1.08-10.29,1.89-6.9,1.75.54,9.16,4.2,10.51l.54.27c.13.27.13.54.27.67a8,8,0,0,1-.27,3.5c-.82,2.57-3.79,10.38,1.49,9.71,3.92-.41,6.22-4.85,9.74-5.39,1-.14,4.06,2,5.28,2.69,1.62.81,5.41,3.24,7.44,2.7,5.55-1.35-2.3-10.92-2.3-13.48C81,22.1,91.43,18.6,88.45,14.42ZM81.28,35.71c-1.36-.13-5.15-2.29-5.55-2.56-1.9-.94-4.2-3.1-6.5-3-3.38.13-6.77,6.06-10.29,5.52-.67-1.35,1.22-5.39,1.49-6.74.54-1.88,1.09-3.77-.13-5.39a5,5,0,0,0-1.76-1.48,6.36,6.36,0,0,0-1.63-1.75c-1.35-1.08-3.65-2.16-3.92-4,1.35-1.08,4.74-.68,6.36-.81,2.17-.27,4.74-.41,6.36-2.16,2.44-2.69,1.9-8.49,4.74-10.78,2.71,1.48,2.43,8.49,4.47,10.65,1.35,1.48,3.38,1.48,5.27,1.75,1.36.27,4.88.13,6.37.94-1.36,3.64-8.13,4.31-9.21,8S82.36,31.94,81.28,35.71Z"/><path class="cls-1" d="M77.35,23.85c-1.22,3.64,5,8.09,3.93,11.86-1.36-.13-5.15-2.29-5.55-2.56-1.9-.94-4.2-3.1-6.5-3-3.38.13-6.77,6.06-10.29,5.52-.67-1.35,1.22-5.39,1.49-6.74.54-1.88,1.09-3.77-.13-5.39a5,5,0,0,0-1.76-1.48,6.36,6.36,0,0,0-1.63-1.75c-1.35-1.08-3.65-2.16-3.92-4,1.35-1.08,4.74-.68,6.36-.81,2.17-.27,4.74-.41,6.36-2.16,2.44-2.69,1.9-8.49,4.74-10.78,2.71,1.48,2.43,8.49,4.47,10.65,1.35,1.48,3.38,1.48,5.27,1.75,1.36.27,4.88.13,6.37.94C85.2,19.54,78.43,20.21,77.35,23.85Z"/><path d="M138.88,14.42c-2.71-3.77-10.56.4-12.45-4.45C125.07,6.6,122-5.12,117.77,2.56,116.41,5,116,9.84,114,11.59c-2.31,2.16-7.45,1.08-10.29,1.89-6.9,1.75.54,9.16,4.2,10.51l.54.27c.13.27.13.54.27.67a8,8,0,0,1-.27,3.5c-.82,2.57-3.79,10.38,1.49,9.71,3.92-.41,6.22-4.85,9.74-5.39,1-.14,4.06,2,5.28,2.69,1.62.81,5.41,3.24,7.44,2.7,5.55-1.35-2.3-10.92-2.3-13.48C131.44,22.1,141.86,18.6,138.88,14.42Zm-7.17,21.29c-1.36-.13-5.15-2.29-5.55-2.56-1.9-.94-4.2-3.1-6.5-3-3.38.13-6.77,6.06-10.29,5.52-.67-1.35,1.22-5.39,1.49-6.74.54-1.88,1.09-3.77-.13-5.39A5,5,0,0,0,109,22.1a6.36,6.36,0,0,0-1.63-1.75c-1.35-1.08-3.65-2.16-3.92-4,1.35-1.08,4.74-.68,6.36-.81,2.17-.27,4.74-.41,6.36-2.16,2.44-2.69,1.9-8.49,4.74-10.78,2.71,1.48,2.43,8.49,4.47,10.65,1.35,1.48,3.38,1.48,5.27,1.75,1.36.27,4.88.13,6.37.94-1.36,3.64-8.13,4.31-9.21,8S132.79,31.94,131.71,35.71Z"/><path class="cls-1" d="M127.78,23.85c-1.22,3.64,5,8.09,3.93,11.86-1.36-.13-5.15-2.29-5.55-2.56-1.9-.94-4.2-3.1-6.5-3-3.38.13-6.77,6.06-10.29,5.52-.67-1.35,1.22-5.39,1.49-6.74.54-1.88,1.09-3.77-.13-5.39A5,5,0,0,0,109,22.1a6.36,6.36,0,0,0-1.63-1.75c-1.35-1.08-3.65-2.16-3.92-4,1.35-1.08,4.74-.68,6.36-.81,2.17-.27,4.74-.41,6.36-2.16,2.44-2.69,1.9-8.49,4.74-10.78,2.71,1.48,2.43,8.49,4.47,10.65,1.35,1.48,3.38,1.48,5.27,1.75,1.36.27,4.88.13,6.37.94C135.63,19.54,128.86,20.21,127.78,23.85Z"/><path d="M189.31,14.42c-2.71-3.77-10.56.4-12.45-4.45-1.36-3.37-4.47-15.09-8.66-7.41-1.36,2.43-1.76,7.28-3.79,9-2.31,2.16-7.45,1.08-10.29,1.89-6.9,1.75.54,9.16,4.2,10.51l.54.27c.13.27.13.54.27.67a8,8,0,0,1-.27,3.5c-.82,2.57-3.79,10.38,1.49,9.71,3.92-.41,6.22-4.85,9.74-5.39.95-.14,4.06,2,5.28,2.69,1.62.81,5.41,3.24,7.44,2.7,5.55-1.35-2.3-10.92-2.3-13.48C181.87,22.1,192.29,18.6,189.31,14.42Zm-7.17,21.29c-1.36-.13-5.15-2.29-5.55-2.56-1.9-.94-4.2-3.1-6.5-3-3.38.13-6.77,6.06-10.29,5.52-.67-1.35,1.22-5.39,1.49-6.74.54-1.88,1.09-3.77-.13-5.39a5,5,0,0,0-1.76-1.48,6.36,6.36,0,0,0-1.63-1.75c-1.35-1.08-3.65-2.16-3.92-4,1.35-1.08,4.74-.68,6.36-.81,2.17-.27,4.74-.41,6.36-2.16,2.44-2.69,1.9-8.49,4.74-10.78,2.71,1.48,2.43,8.49,4.47,10.65,1.35,1.48,3.38,1.48,5.27,1.75,1.36.27,4.88.13,6.37.94-1.36,3.64-8.13,4.31-9.21,8S183.22,31.94,182.14,35.71Z"/><path class="cls-1" d="M178.21,23.85c-1.22,3.64,5,8.09,3.93,11.86-1.36-.13-5.15-2.29-5.55-2.56-1.9-.94-4.2-3.1-6.5-3-3.38.13-6.77,6.06-10.29,5.52-.67-1.35,1.22-5.39,1.49-6.74.54-1.88,1.09-3.77-.13-5.39a5,5,0,0,0-1.76-1.48,6.36,6.36,0,0,0-1.63-1.75c-1.35-1.08-3.65-2.16-3.92-4,1.35-1.08,4.74-.68,6.36-.81,2.17-.27,4.74-.41,6.36-2.16,2.44-2.69,1.9-8.49,4.74-10.78,2.71,1.48,2.43,8.49,4.47,10.65,1.35,1.48,3.38,1.48,5.27,1.75,1.36.27,4.88.13,6.37.94C186.06,19.54,179.29,20.21,178.21,23.85Z"/><path d="M239.75,14.42c-2.71-3.77-10.56.4-12.45-4.45-1.36-3.37-4.47-15.09-8.66-7.41-1.36,2.43-1.76,7.28-3.79,9-2.31,2.16-7.45,1.08-10.29,1.89-6.9,1.75.54,9.16,4.2,10.51l.54.27c.13.27.13.54.27.67a8,8,0,0,1-.27,3.5c-.82,2.57-3.79,10.38,1.49,9.71,3.92-.41,6.22-4.85,9.74-5.39.95-.14,4.06,2,5.28,2.69,1.62.81,5.41,3.24,7.44,2.7,5.55-1.35-2.3-10.92-2.3-13.48C232.31,22.1,242.73,18.6,239.75,14.42Zm-7.17,21.29c-1.36-.13-5.15-2.29-5.55-2.56-1.9-.94-4.2-3.1-6.5-3-3.38.13-6.77,6.06-10.29,5.52-.67-1.35,1.22-5.39,1.49-6.74.54-1.88,1.09-3.77-.13-5.39a5,5,0,0,0-1.76-1.48,6.36,6.36,0,0,0-1.63-1.75c-1.35-1.08-3.65-2.16-3.92-4,1.35-1.08,4.74-.68,6.36-.81,2.17-.27,4.74-.41,6.36-2.16,2.44-2.69,1.9-8.49,4.74-10.78,2.71,1.48,2.43,8.49,4.47,10.65,1.35,1.48,3.38,1.48,5.27,1.75,1.36.27,4.88.13,6.37.94-1.36,3.64-8.13,4.31-9.21,8S233.66,31.94,232.58,35.71Z"/><path class="cls-1" d="M228.65,23.85c-1.22,3.64,5,8.09,3.93,11.86-1.36-.13-5.15-2.29-5.55-2.56-1.9-.94-4.2-3.1-6.5-3-3.38.13-6.77,6.06-10.29,5.52-.67-1.35,1.22-5.39,1.49-6.74.54-1.88,1.09-3.77-.13-5.39a5,5,0,0,0-1.76-1.48,6.36,6.36,0,0,0-1.63-1.75c-1.35-1.08-3.65-2.16-3.92-4,1.35-1.08,4.74-.68,6.36-.81,2.17-.27,4.74-.41,6.36-2.16,2.44-2.69,1.9-8.49,4.74-10.78,2.71,1.48,2.43,8.49,4.47,10.65,1.35,1.48,3.38,1.48,5.27,1.75,1.36.27,4.88.13,6.37.94C236.5,19.54,229.73,20.21,228.65,23.85Z"/></g></g></svg>