<svg width="80" height="80" viewBox="0 0 80 80" fill="none" xmlns="http://www.w3.org/2000/svg">
<circle cx="40" cy="40" r="40" fill="#F6AE22"/>
<path d="M45.7113 33.9423C43.9838 31.9231 41.6804 31.0577 39.089 31.0577C38.2253 31.0577 36.7857 31.0577 35.9219 31.3462C35.0581 31.9231 34.7702 32.5 34.4823 33.0769C31.3151 36.8269 29.5875 41.4423 33.0426 45.4808C36.2098 49.2308 41.6804 48.9423 44.8475 45.7692C48.3026 42.8846 48.5906 37.4038 45.7113 33.9423ZM42.2562 43.1731C36.7857 48.9423 30.4513 39.4231 35.346 34.8077C39.377 31.0577 46.5751 38.5577 42.2562 43.1731Z" fill="white"/>
<path d="M39.089 27.8846C39.9528 27.8846 40.5287 25.5769 40.8166 25C41.9683 21.8269 42.5441 18.0769 41.9683 14.9038C41.3924 12.0192 37.9374 11.1538 37.6494 14.6154C36.7857 17.5 37.6494 21.5385 38.2253 24.1346C38.2253 25 37.9374 27.5962 39.089 27.8846Z" fill="white"/>
<path d="M47.4389 28.75C49.1664 28.75 52.0456 26.7308 53.4853 25.2885C55.2128 23.8462 58.0921 18.9423 54.0611 18.3654C51.4698 18.0769 49.4543 21.5385 48.3026 23.2692C47.7268 24.4231 47.1509 25.5769 46.5751 26.7308C46.5751 27.0192 45.9992 27.5962 45.9992 27.8846C46.2872 28.75 46.863 29.6154 47.4389 28.75Z" fill="white"/>
<path d="M27.2842 26.4423C28.1479 27.0192 29.2996 28.1731 30.4513 28.4615C32.4668 28.75 31.3151 27.5962 31.3151 26.4423C30.4513 24.1346 29.2996 22.1154 27.5721 20.3846C26.9962 19.5192 26.1325 18.6538 25.2687 18.3654C23.5411 18.0769 22.9653 19.8077 23.2532 20.9615C23.8291 22.9808 25.5566 25 27.2842 26.4423Z" fill="white"/>
<path d="M40.5287 52.9808C39.377 49.2308 38.2253 55.8654 38.2253 57.0192C37.6494 59.3269 36.4977 65.0962 38.2253 67.1154C39.089 68.2692 40.8166 67.9808 41.6804 66.8269C42.5441 65.6731 42.2562 64.2308 41.9683 62.7885C41.3924 59.6154 41.1045 56.1538 40.5287 52.9808Z" fill="white"/>
<path d="M30.1634 50.0962C27.86 51.25 25.2687 52.4038 23.8291 54.4231C22.9653 55.5769 22.1015 56.7308 22.3894 58.4615C22.9653 60.1923 25.2687 60.7692 26.7083 59.3269C29.0117 57.8846 30.1634 55.5769 31.3151 52.9808C32.1789 51.25 33.0426 48.9423 30.1634 50.0962Z" fill="white"/>
<path d="M51.4698 52.4038C50.606 51.8269 49.4543 50.6731 48.3026 50.3846C46.2872 50.0962 47.4389 51.25 47.4389 52.4038C48.3026 54.4231 49.4543 56.7308 50.8939 58.4615C51.4698 59.0385 52.3336 60.1923 53.1973 60.4808C54.9249 60.7692 55.5007 59.0385 54.9249 57.8846C54.637 55.5769 52.9094 53.8462 51.4698 52.4038Z" fill="white"/>
<path d="M64.1385 37.9808C60.6834 36.8269 56.9404 37.1154 53.4853 37.4038C52.0456 37.4038 47.7268 37.4038 50.3181 39.4231C52.9094 41.4423 57.5162 42.8846 60.6834 42.5962C62.123 42.3077 64.4264 42.8846 65.5781 41.4423C67.0177 40 65.5781 38.5577 64.1385 37.9808Z" fill="white"/>
<path d="M29.0117 38.5577C29.2996 35.6731 23.5411 36.5385 22.1015 37.1154C20.6619 37.4038 14.6155 38.5577 14.6155 39.7115C14.6155 41.1538 20.9498 41.7308 21.8136 41.7308C23.8291 41.7308 28.7238 40.8654 29.0117 38.5577Z" fill="white"/>
<path d="M42.2562 43.1731C36.7857 48.9423 30.4513 39.4231 35.346 34.8077C39.377 31.0577 46.5751 38.5577 42.2562 43.1731Z" fill="white"/>
</svg>
