<?xml version="1.0" encoding="utf-8"?>
<!-- Generator: Adobe Illustrator 23.0.1, SVG Export Plug-In . SVG Version: 6.00 Build 0)  -->
<svg version="1.1" id="Layer_1" xmlns="http://www.w3.org/2000/svg" xmlns:xlink="http://www.w3.org/1999/xlink" x="0px" y="0px"
	 viewBox="0 0 69 128" style="enable-background:new 0 0 69 128;" xml:space="preserve">
<style type="text/css">
	.st0{fill-rule:evenodd;clip-rule:evenodd;fill:#FFFFFF;}
</style>
<path class="st0" d="M34.9,10.8c-9.1,5.6-20.6-2.1-26.5,9.2c-4,7.7-1.4,38.4,4.3,46c5.8,7.4,18.5,7.2,27.4,6.4
	c16.2-1.3,19-7.6,21.2-23.3c1.9-14,5.6-29.7-10.1-35.3"/>
<path d="M68.5,37.2L68.5,37.2c0-1-0.1-2-0.1-3.1c-0.2-8.4-0.3-18.9-7.4-24.6C56.5,6,51,5.9,46.2,5.8l-0.4,0
	c-3.4-0.2-6.8-0.2-10.1-0.3c-2.2,0-4.5-0.1-6.8-0.2c-0.7,0-1.5,0-2.2,0c-9-0.1-22.6-0.2-25.4,10.8c-1.5,6.1-1,12.8-0.5,18.1
	c0.1,1.8,0.2,3.5,0.3,5.3c0.3,4.7,0.6,9.6,1.3,14.4c0.2,1.1,0.3,2.4,0.4,3.8c0.7,6.3,1.5,14.1,6.9,18c5.5,3.8,13.4,3.8,20,3.6
	c-0.1,7.3-0.2,15.6,0.2,23.9c0.1,1.6,0.2,3.2,0.3,4.8c0.1,1.7,0.2,3.4,0.3,5.2c0,0.6,0,1.5,0,2.5c0,2.2-0.1,4.7,0.5,6.6l0,0
	c0.9,1.3,1.9,2.2,3.5,2.2c1.2,0,2.5-0.1,3.7-0.4c0.2-0.1,0.3-0.2,0.5-0.2c0.8-1.5,0.7-3.4,0.6-5c0-0.4-0.1-0.8-0.1-1.2
	c-0.1-2.9-0.3-5.8-0.6-8.6c-0.1-1.8-0.3-3.6-0.4-5.4c-0.3-4.9-0.3-9.8-0.3-14.9l0-8.9c0-0.3,0-0.6,0-0.9c0.3,0,0.7,0,0.9,0
	c0.7,0,1.4,0,2.1-0.1c8.5-0.2,19-0.4,23.4-10.1C69.1,59.2,68.8,47,68.5,37.2z M29.8,70.9c-4.2,0.1-9.1,0.2-12.8-1.5
	c-4.6-2.1-4.5-8.5-5-12.8c-1-6.4-1.4-12.8-1.9-19.2C9.9,32.2,9.3,26.7,10,21.4c1.3-8.5,12.4-7.4,19.1-7.4c4.9,0,9.9,0,14.8,0.3
	c3.7,0.2,8.3-0.2,11.3,2.5c3,2.5,3.5,6.4,3.7,10.1c0.4,5.6,0.8,11.2,0.8,16.7c-0.2,5.2-0.4,10.6-1.6,15.7c-0.7,3.6-1.6,7.7-5,9.6
	c-3,1.7-7.4,1.4-10.7,1.6c-1.4,0.2-3.6,0.7-5,0.3c-1.6-0.4-0.7,0.8-1.4-1.2c-0.4-1,0.2-1.7,0.2-2.7c0.2-3.7-0.3-6.2,2-9.6
	c2.1-3.1,5.6-5.2,7.6-8.5c0.7-1.2,2.1-3.3,1.2-4.6c-1.4-1.9-2.9,0.2-3.6,1.3c-1.9,3-4.3,5.2-6.8,7.7c0.4-2.3,1.6-5,1.7-7.3
	c0.2-2.3-1.3-4.1-3-1.6c-3,4.2-3,12.3-3,17.1c-2.7-2.5-3-5-3.3-8.6c0-0.7-0.8-13-3-12.4c-1.9,0.4-1.2,7-1,8.3
	c0.3,3.3,0.2,7.3,1.3,10.5c1,2.5,3.3,4,4.9,6.2c1.2,1.7,1.2,3.3,1.3,5.6c-0.6,0-1.3,0-1.9,0c-0.3-0.1-0.5-0.1-0.8-0.2
	C29.8,70.8,29.8,70.9,29.8,70.9z"/>
<path d="M16.2,45.4c0.7-0.4,1.2-2,0.3-2.5c0,0.2,0.2,0.3,0.2,0.3c-0.6-1.3-1.6-1.2-2.1-0.3c-0.6,0.6-0.7,1.4-0.3,1.9
	c0,0.2,0.2,0.3,0.2,0.4c0.2,0.3,0.6,0.3,0.8,0.4c-0.3-0.2-0.6-0.3-0.7-0.4C15.1,45.5,15.5,45.9,16.2,45.4z"/>
<path d="M19.1,55.3c2.1-2.5-3.6-4.9-2.9-1.3c0,0.2,0.2,0.4,0.3,0.6C16.8,55.8,17.9,56.6,19.1,55.3z M19,53.5
	C19,53.5,19,53.3,19,53.5C19,53.3,19,53.3,19,53.5C19,53.3,19,53.5,19,53.5z M17.7,52.7c0,0-0.2,0-0.3,0.2h-0.2
	C17.3,52.7,17.5,52.7,17.7,52.7z"/>
<path d="M20.1,62.8c-0.3-0.3-0.7-0.4-1.2-0.3c-0.3,0-0.4,0.2-0.6,0.3c-0.3,0-0.6,0.2-0.8,0.4c-0.6,0.4-0.4,1.4,0.3,1.9
	C19.4,66.9,21.4,63.5,20.1,62.8z"/>
<path d="M19.7,40.3c0.8,0.4,1.9-1.2,1.7-1.9c0,0.2,0,0.2-0.2,0.2c0.3-1.6-0.7-2-2-1.7c-0.3,0.3-0.7,0.7-0.8,1.3
	C18.3,39.1,18.5,39.9,19.7,40.3z M21.2,38.2C21.2,38.2,21.2,38.1,21.2,38.2C21.2,38.1,21.2,38.2,21.2,38.2z"/>
<path d="M23,59.3c0-1.6-1.3-2.1-2.3-1.2c-0.6-0.2-1.2,0.6-1.2,1.2c0,0.4,0.3,0.7,0.6,0.8C21,61,23.3,60.8,23,59.3z"/>
<path d="M14.1,60.9C14.4,61,14.1,60.9,14.1,60.9L14.1,60.9z"/>
<path d="M14.1,60.9C14.2,61,14.2,60.9,14.1,60.9L14.1,60.9z"/>
<path d="M15.1,56.9c-0.6,0-1.2,0.3-1.2,1V58c-0.4,0.8-0.6,2.1,0.2,2.9c0.3,0.3,0.6,0.4,1,0.4c2,0.3,1.7-3,1-3.9
	C15.8,57,15.5,56.9,15.1,56.9z M16.1,58.6c0-0.2,0-0.3,0-0.4c0.2,0.2,0.2,0.4,0.2,0.6C16.2,58.7,16.1,58.7,16.1,58.6z"/>
<path d="M14.4,48.8c0-0.3,0-0.6,0-0.8c0.2-0.8-0.4-1.4-1.3-1.3c-0.4,0.2-0.6,0.4-0.7,0.7c0-0.2,0,0-0.2,0.2
	c-0.2,0.2-0.2,0.3-0.2,0.4C11.3,49.6,13.5,50.6,14.4,48.8z M13.5,48.8C13.5,48.7,13.6,48.7,13.5,48.8C13.6,48.7,13.6,48.8,13.5,48.8
	z"/>
<path d="M11.8,49C11.8,48.8,11.5,48.4,11.8,49L11.8,49z"/>
<path d="M11.9,39.5c0.2,0.4,0.6,0.3,1,0.2c0.7,0.2,1.3-0.2,1.7-0.7c0.2-0.2,0.2-0.3,0.2-0.6c0.3-0.8,0.2-2.1-0.8-2.5
	c-0.8-0.4-2-0.2-2.7,0.4c-1,1-0.6,2.1,0.3,2.9C11.8,39.3,11.8,39.3,11.9,39.5z"/>
<path d="M25.1,67.6c0-0.7-0.4-1.4-1.2-0.8c-0.4,0-0.7,0.2-1,0.4c-0.3,0.4-0.3,1-0.2,1.4c0.2,0.4,0.6,0.7,1,0.8
	c0.4,0,0.7-0.2,0.8-0.3C25.1,68.8,25.1,68.2,25.1,67.6z"/>
<path d="M24.3,61.2c-0.4,0.2-0.7,0.3-0.8,0.6c-0.2,0.2-0.2,0.4-0.3,0.6v0.2c0,0.4,0.3,1,0.7,1.3c0.4,0.3,1,0.2,1.3-0.2l0.2-0.2
	c0.2-0.2,0.3-0.3,0.3-0.6c0,0.2,0,0.2,0,0.3c0.3-0.2,0.3-0.7-0.2-1.2C25.3,61.4,24.9,61.2,24.3,61.2z M25.6,62.6c0,0.2,0,0.3,0,0.3
	C25.6,62.8,25.6,62.6,25.6,62.6z M25.6,62.4C25.6,62.2,25.6,62.2,25.6,62.4L25.6,62.4z"/>
<path d="M19.3,45.7c-1.3,1-0.7,3.1,1,3.3h0.2c0.4,0.3,0.8,0.3,1.2-0.3c0.2-0.2,0.3-0.2,0.4-0.3c0.4-0.6,0.6-1.4,0.2-2.1
	c-0.2-0.3-0.4-0.4-0.7-0.6C20.8,45.3,19.8,45.1,19.3,45.7z"/>
<path d="M14.6,34.8c0.4,0.6,1.2,0.6,1.7,0.3c0.3,0,0.6-0.3,0.7-0.4c0.7-0.4,1.3-1.3,1-2.3c-0.4-1.7-3.1-1.6-3.9-0.3
	c-0.4,0.6-0.6,1.4-0.2,2.1C14.1,34.5,14.2,34.7,14.6,34.8z"/>
</svg>
