<?xml version="1.0" encoding="utf-8"?>
<!-- Generator: Adobe Illustrator 23.0.1, SVG Export Plug-In . SVG Version: 6.00 Build 0)  -->
<svg version="1.1" id="Layer_1" xmlns="http://www.w3.org/2000/svg" xmlns:xlink="http://www.w3.org/1999/xlink" x="0px" y="0px"
	 viewBox="0 0 84.8 137.8" style="enable-background:new 0 0 84.8 137.8;" xml:space="preserve">
<style type="text/css">
	.st0{fill:#B0D182;}
</style>
<title>tree_icon</title>
<g>
	<g id="Layer_1-2">
		<path class="st0" d="M73.2,78.1c-4.7-5.8-9.5-11.3-14.4-16.9c4.3-0.2,11.6-1.1,12.8-6.2c1.2-5.4-1.7-10.6-3.9-15.3
			c-4.6-9.9-8.8-20-13.6-29.9c-1.5-3-4.9-10.5-9.1-9.9c-5.4,0.8-7.5,4.7-9.9,9.2c-3.2,6-6,12.2-9.2,18.2c-2.9,5.5-6.2,10.9-9.3,16.4
			c-2.2,4-5.8,9.9-2.9,14.5s9.9,3.8,14.3,2.8c-6.2,5.2-11.4,12.1-16.5,18.4c-4.1,5.1-10,10.9-11.4,17.7s6.3,8.7,11.3,9.4
			c7.1,0.9,14.2,1.3,21.3,1.2c-0.8,3-0.7,6.1-0.9,9.1c-0.4,3.9-0.4,7.7,0,11.6c0.8,5.9,3.7,9.5,9.9,9.4c2.9,0,5.8-0.8,8.2-2.4
			c2.1-1.5,2.9-4,3.6-6.4c0.9-3.3,0.7-6.8,0.6-10.2c0-3.6-0.2-7.2-0.7-10.7c6.7,0,13.6,0.1,20.2-0.8c4.9-0.7,11.4-2.9,11.1-9
			C84.4,90.6,77.8,83.7,73.2,78.1z M77.1,98.6c-0.4,0.6-2.3,0.8-2.9,0.9c-7.6,1.6-15.6,0.6-23.3,1.4c-1.8,0.2-3.5,0.7-4,2.7
			c-0.3,1.1,0.1,2.1,0.1,3.1c-0.1,1.2-0.5,2.3-0.6,3.6c-0.3,4.7,0.2,9.5,0,14.2c-0.1,2.2-0.2,4.6-2.3,5.3c-1.2,0.4-3.1,0.8-3.9-0.2
			s-0.6-3.7-0.6-5c0-5,0.6-10.3-0.2-15.3c-0.3-1.5-1.3-2.8-1.5-4.3c-0.2-1.1,0.2-1.8-0.6-2.8c-0.7-0.8-1.7-1.3-2.8-1.3
			c-4.5-0.8-9.4-0.8-14-1.1c-4-0.2-8.9-0.2-12.7-1.7c0.9-2.9,3.2-5.6,5-8c2.7-3.4,5.4-6.7,8.2-10.1c3-3.6,6.1-7.1,9.1-10.7
			c2.3-2.7,4.3-5.3,5.3-8.8c0.4-1.4,2.1-3.1,0.3-3.7c-1.3-0.5-3.4-0.2-4.8-0.3c-2-0.3-4-0.6-6-1.1c-1-0.3-3.9-0.3-4.5-1.2
			c-1-1.3,2.5-6.3,3.2-7.5c2.3-4,4.6-7.9,6.9-11.9c4.8-8.7,8.3-18.5,14-26.6c4.8,6.3,7.3,14.7,10.6,21.9l4.7,10.2
			c0.9,1.9,1.8,3.9,2.7,5.8c0.7,1.6,1.9,3.8,2,5.5c0.1,1.3,0.3,0.7-0.8,1.3c-0.7,0.3-1.5,0.5-2.2,0.6c-1.9,0.3-3.8,0.4-5.7,0.6
			s-4.8,0.2-5.9,2c-0.4,0.8-0.6,1.7-0.3,2.6c0.1,1.1,0.3,2.3,0.8,3.3c1.6,3.5,5.2,6.4,7.7,9.3c2.1,2.5,4.2,4.9,6.2,7.4
			c3.2,3.9,6.6,7.8,9.5,12c1.2,1.7,2.3,3.5,3.1,5.4C76.8,96.8,77.4,98.1,77.1,98.6z"/>
	</g>
</g>
</svg>
