<?xml version="1.0" encoding="utf-8"?>
<!-- Generator: Adobe Illustrator 23.0.1, SVG Export Plug-In . SVG Version: 6.00 Build 0)  -->
<svg version="1.1" id="Layer_1" xmlns="http://www.w3.org/2000/svg" xmlns:xlink="http://www.w3.org/1999/xlink" x="0px" y="0px"
	 viewBox="0 0 69 128" style="enable-background:new 0 0 69 128;" xml:space="preserve">
<style type="text/css">
	.st0{fill-rule:evenodd;clip-rule:evenodd;fill:#FFFFFF;}
</style>
<path class="st0" d="M34.9,1.1C24.2,7.7,10.5-1.4,3.6,12c-4.7,9.1-1.7,45.4,5.1,54.4c6.8,8.8,21.9,8.5,32.4,7.6
	c19.1-1.5,22.5-9,25.1-27.6c2.2-16.6,6.6-35.1-11.9-41.7"/>
<path d="M68.5,33c-0.3-9,0.5-22.2-7.1-28.5C57.1,1.1,51.7,1.1,46.6,1c-5.9-0.3-11.9-0.3-17.8-0.5c-9,0-24.4-1.2-27.1,10
	c-1.5,6.1-1,12.9-0.5,19c0.5,7.1,0.7,14.2,1.7,21.3c1,6.8,0.8,17.8,6.9,22.2c5.9,4.2,15.3,3.6,22.2,3.4c-0.2,9.5-0.3,18.8,0.2,28.3
	c0.2,3.6,0.5,7.1,0.7,10.8c0.2,2.5-0.5,8.1,0.8,10.3c-0.2-0.2,1.7-1,1.7-0.8c-0.2,0.5-1.4,0.8-1,1.5c0.3,0.8,0.7,0.2,0.8,1.2
	c0.2,0.7,1.9-1,1.9-1.2c1-1.4,0.5-4.1,0.5-5.8c-0.2-5.1-0.7-10.2-1-15.2c-0.3-5.4-0.3-10.8-0.3-16.4c0-2.9,0-5.9,0-8.8
	c0-3.9-0.3-4.1,3.2-4.1c9.3-0.3,20.7,0.3,25.1-9.7C69.1,56.5,68.8,43.8,68.5,33z M62.5,58.4c-0.8,4.2-1.9,9.1-5.9,11.3
	c-3.6,2-8.8,1.7-12.7,1.9c-1.7,0.2-4.2,0.8-5.9,0.3c-1.9-0.5-0.8,1-1.7-1.4c-0.5-1.2,0.2-2,0.2-3.2c0.2-4.4-0.3-7.3,2.4-11.3
	c2.5-3.7,6.6-6.1,9-10c0.8-1.4,2.5-3.9,1.4-5.4c-1.7-2.2-3.4,0.2-4.2,1.5c-2.2,3.6-5.1,6.1-8,9.1c0.5-2.7,1.9-5.9,2-8.6
	c0.2-2.7-1.5-4.9-3.6-1.9C32,45.7,31.9,55.2,32,60.9c-3.2-3-3.6-5.9-3.9-10.2c0-0.8-1-15.4-3.6-14.7c-2.2,0.5-1.4,8.3-1.2,9.8
	c0.3,3.9,0.2,8.6,1.5,12.4c1.2,3,3.9,4.7,5.8,7.3c1.4,2,1.4,3.9,1.5,6.6c-5.6,0-13,0.7-18.3-1.7c-5.4-2.5-5.3-10-5.9-15.1
	c-1.2-7.6-1.7-15.1-2.2-22.7c-0.3-6.3-1-12.7-0.2-19C7,3.5,20.2,4.9,28.1,4.9c5.8,0,11.7,0,17.5,0.3C50,5.4,55.4,5,59,8.1
	c3.6,3,4.1,7.6,4.4,11.9c0.5,6.6,1,13.2,1,19.8C64.2,46,63.9,52.3,62.5,58.4z"/>
<path d="M12.9,42c0.8-0.5,1.4-2.4,0.3-3c0,0.2,0.2,0.3,0.2,0.3c-0.7-1.5-1.9-1.4-2.5-0.3c-0.7,0.7-0.8,1.7-0.3,2.2
	c0,0.2,0.2,0.3,0.2,0.5c0.2,0.3,0.7,0.3,1,0.5c-0.3-0.2-0.7-0.3-0.8-0.5C11.5,42.1,12,42.5,12.9,42z"/>
<path d="M16.3,53.7c2.5-3-4.2-5.8-3.4-1.5c0,0.2,0.2,0.5,0.3,0.7C13.6,54.2,14.9,55.2,16.3,53.7z M16.1,51.5
	C16.1,51.5,16.1,51.3,16.1,51.5C16.1,51.3,16.1,51.3,16.1,51.5C16.1,51.3,16.1,51.5,16.1,51.5z M14.6,50.6c0,0-0.2,0-0.3,0.2h-0.2
	C14.2,50.6,14.4,50.6,14.6,50.6z"/>
<path d="M17.5,62.5c-0.3-0.3-0.8-0.5-1.4-0.3c-0.3,0-0.5,0.2-0.7,0.3c-0.3,0-0.7,0.2-1,0.5c-0.7,0.5-0.5,1.7,0.3,2.2
	C16.6,67.4,19,63.3,17.5,62.5z"/>
<path d="M17,35.9c1,0.5,2.2-1.4,2-2.2c0,0.2,0,0.2-0.2,0.2c0.3-1.9-0.8-2.4-2.4-2c-0.3,0.3-0.8,0.8-1,1.5
	C15.3,34.5,15.6,35.4,17,35.9z M18.7,33.5C18.7,33.5,18.8,33.3,18.7,33.5C18.8,33.3,18.7,33.5,18.7,33.5z"/>
<path d="M20.9,58.4c0-1.9-1.5-2.5-2.7-1.4c-0.7-0.2-1.4,0.7-1.4,1.4c0,0.5,0.3,0.8,0.7,1C18.5,60.4,21.2,60.1,20.9,58.4z"/>
<path d="M10.4,60.3C10.7,60.4,10.4,60.3,10.4,60.3L10.4,60.3z"/>
<path d="M10.4,60.3C10.5,60.4,10.5,60.3,10.4,60.3L10.4,60.3z"/>
<path d="M11.5,55.5c-0.7,0-1.4,0.3-1.4,1.2v0.2c-0.5,1-0.7,2.5,0.2,3.4c0.3,0.3,0.7,0.5,1.2,0.5c2.4,0.3,2-3.6,1.2-4.6
	C12.4,55.7,12,55.5,11.5,55.5z M12.7,57.6c0-0.2,0-0.3,0-0.5c0.2,0.2,0.2,0.5,0.2,0.7C12.9,57.7,12.7,57.7,12.7,57.6z"/>
<path d="M10.7,46c0-0.3,0-0.7,0-1c0.2-1-0.5-1.7-1.5-1.5c-0.5,0.2-0.7,0.5-0.8,0.8c0-0.2,0,0-0.2,0.2C8,44.7,8,44.8,8,45
	C7,46.9,9.7,48.1,10.7,46z M9.7,46C9.7,45.9,9.8,45.9,9.7,46C9.8,45.9,9.8,46,9.7,46z"/>
<path d="M7.6,46.2C7.6,46,7.3,45.5,7.6,46.2L7.6,46.2z"/>
<path d="M7.8,35C8,35.5,8.5,35.4,9,35.2c0.8,0.2,1.5-0.2,2-0.8c0.2-0.2,0.2-0.3,0.2-0.7c0.3-1,0.2-2.5-1-3c-1-0.5-2.4-0.2-3.2,0.5
	c-1.2,1.2-0.7,2.5,0.3,3.4C7.6,34.7,7.6,34.7,7.8,35z"/>
<path d="M23.4,68.2c0-0.8-0.5-1.7-1.4-1c-0.5,0-0.8,0.2-1.2,0.5c-0.3,0.5-0.3,1.2-0.2,1.7c0.2,0.5,0.7,0.8,1.2,1
	c0.5,0,0.8-0.2,1-0.3C23.4,69.6,23.4,68.9,23.4,68.2z"/>
<path d="M22.4,60.6c-0.5,0.2-0.8,0.3-1,0.7c-0.2,0.2-0.2,0.5-0.3,0.7v0.2c0,0.5,0.3,1.2,0.8,1.5c0.5,0.3,1.2,0.2,1.5-0.2l0.2-0.2
	c0.2-0.2,0.3-0.3,0.3-0.7c0,0.2,0,0.2,0,0.3c0.3-0.2,0.3-0.8-0.2-1.4C23.6,60.9,23.1,60.6,22.4,60.6z M23.9,62.3c0,0.2,0,0.3,0,0.3
	C23.9,62.5,23.9,62.3,23.9,62.3z M23.9,62C23.9,61.8,23.9,61.8,23.9,62L23.9,62z"/>
<path d="M16.5,42.3c-1.5,1.2-0.8,3.7,1.2,3.9h0.2c0.5,0.3,1,0.3,1.4-0.3c0.2-0.2,0.3-0.2,0.5-0.3c0.5-0.7,0.7-1.7,0.2-2.5
	c-0.2-0.3-0.5-0.5-0.8-0.7C18.3,41.8,17.1,41.6,16.5,42.3z"/>
<path d="M10.9,29.4c0.5,0.7,1.4,0.7,2,0.3c0.3,0,0.7-0.3,0.8-0.5c0.8-0.5,1.5-1.5,1.2-2.7c-0.5-2-3.7-1.9-4.6-0.3
	c-0.5,0.7-0.7,1.7-0.2,2.5C10.4,29.1,10.5,29.3,10.9,29.4z"/>
</svg>
