<svg xmlns="http://www.w3.org/2000/svg" viewBox="0 0 84.82 137.77"><title>tree_icon</title><g id="Layer_2" data-name="Layer 2"><g id="Layer_1-2" data-name="Layer 1"><path d="M84.81,98.28c-.39-7.66-7-14.54-11.59-20.15S63.73,66.79,58.8,61.27c4.32-.24,11.58-1.09,12.75-6.16,1.23-5.36-1.69-10.59-3.87-15.33-4.57-9.94-8.82-20-13.63-29.86-1.49-3-4.92-10.5-9.13-9.88-5.44.78-7.46,4.66-9.86,9.15-3.2,6-6,12.2-9.16,18.2C23,32.93,19.67,38.26,16.62,43.74c-2.23,4-5.79,9.87-2.94,14.49S23.62,62.08,28,61.05c-6.21,5.22-11.35,12.12-16.45,18.38C7.4,84.56,1.52,90.38.16,97.13s6.25,8.66,11.34,9.42a153,153,0,0,0,21.3,1.18c-.78,2.94-.68,6.06-.88,9.08a60.44,60.44,0,0,0,0,11.57c.75,5.93,3.65,9.47,9.86,9.39A14.35,14.35,0,0,0,50,135.33c2.13-1.5,2.93-4,3.57-6.42.87-3.3.66-6.79.6-10.18A81.91,81.91,0,0,0,53.51,108c6.67,0,13.59.11,20.2-.77C78.63,106.57,85.12,104.32,84.81,98.28ZM74.15,99.44c-7.56,1.56-15.61.63-23.29,1.4-1.82.18-3.49.71-4,2.7-.28,1.06.14,2.09.07,3.09-.1,1.2-.52,2.35-.59,3.58-.25,4.72.15,9.47,0,14.21-.08,2.19-.17,4.55-2.3,5.29-1.23.42-3.13.81-3.9-.2s-.58-3.75-.59-5c0-5.05.61-10.24-.22-15.24-.26-1.55-1.28-2.83-1.54-4.34-.18-1.09.21-1.75-.62-2.77a4.15,4.15,0,0,0-2.76-1.35c-4.53-.85-9.39-.81-14-1.07-4-.23-8.86-.21-12.69-1.65.84-2.91,3.15-5.64,5-8Q16.74,85,20.93,80c3-3.59,6.06-7.14,9.11-10.7,2.33-2.72,4.28-5.33,5.29-8.79.41-1.41,2.11-3.12.36-3.7-1.35-.44-3.41-.14-4.82-.34a54.51,54.51,0,0,1-6-1.09c-1-.25-3.93-.29-4.55-1.16-.94-1.35,2.5-6.25,3.21-7.5,2.28-4,4.65-7.9,6.86-11.91C35.2,26.1,38.65,16.31,44.33,8.2c4.81,6.32,7.3,14.72,10.6,21.88l4.71,10.23c.9,1.94,1.82,3.87,2.68,5.82.71,1.63,1.91,3.76,2,5.56.09,1.25.33.69-.78,1.32a7.63,7.63,0,0,1-2.22.62c-1.88.35-3.82.41-5.72.6s-4.79.19-5.93,2.05a3.47,3.47,0,0,0-.33,2.62,12.45,12.45,0,0,0,.75,3.33c1.65,3.5,5.2,6.41,7.7,9.34C59.91,74,62,76.44,64,78.91c3.24,3.93,6.57,7.82,9.49,12a28,28,0,0,1,3.13,5.37c.22.52.82,1.79.46,2.27S74.74,99.32,74.15,99.44Z"/></g></g></svg>