<svg xmlns="http://www.w3.org/2000/svg" viewBox="0 0 84.82 137.77"><defs><style>.cls-1{fill:#fff;}</style></defs><title>tree_icon</title><g id="Layer_2" data-name="Layer 2"><g id="Layer_1-2" data-name="Layer 1"><path d="M73.22,78.14C68.55,72.39,63.73,66.8,58.8,61.27c4.32-.24,11.58-1.09,12.75-6.16,1.23-5.36-1.69-10.59-3.87-15.33-4.57-9.93-8.82-20-13.63-29.86C52.56,6.87,49.13-.57,44.92,0,39.48.83,37.46,4.7,35.06,9.2c-3.2,6-6,12.19-9.16,18.19C23,32.94,19.67,38.26,16.62,43.74c-2.23,4-5.79,9.87-2.94,14.49S23.62,62.08,28,61.06c-6.21,5.21-11.35,12.11-16.46,18.38C7.4,84.57,1.52,90.38.16,97.13s6.25,8.67,11.34,9.43a152.87,152.87,0,0,0,21.3,1.17c-.78,3-.68,6.06-.88,9.08a61.37,61.37,0,0,0,0,11.58c.76,5.92,3.66,9.47,9.87,9.38A14.27,14.27,0,0,0,50,135.33c2.13-1.5,2.93-4,3.57-6.41.87-3.3.66-6.8.6-10.19A81.91,81.91,0,0,0,53.51,108c6.67,0,13.59.11,20.2-.76,4.92-.65,11.41-2.9,11.1-9C84.42,90.63,77.77,83.74,73.22,78.14Zm3.86,20.41c-.41.55-2.35.78-2.93.9-7.56,1.55-15.61.62-23.29,1.39-1.82.18-3.49.71-4,2.7-.28,1.06.14,2.09.07,3.09-.1,1.2-.53,2.35-.59,3.58-.26,4.73.15,9.48,0,14.21-.08,2.19-.17,4.55-2.31,5.29-1.22.42-3.13.81-3.89-.2s-.58-3.74-.59-5c0-5,.61-10.25-.22-15.25-.26-1.54-1.28-2.83-1.54-4.33-.18-1.1.21-1.76-.62-2.78a4.21,4.21,0,0,0-2.77-1.35c-4.52-.85-9.38-.8-14-1.07-4-.23-8.86-.2-12.7-1.65.85-2.91,3.15-5.64,5-8Q16.74,85,20.93,80c3-3.6,6.06-7.14,9.11-10.7,2.33-2.73,4.28-5.34,5.29-8.8.41-1.4,2.11-3.11.35-3.69-1.34-.45-3.4-.15-4.82-.34a54.36,54.36,0,0,1-6-1.1c-1-.25-3.94-.28-4.55-1.16-1-1.34,2.5-6.25,3.21-7.5,2.28-4,4.64-7.89,6.86-11.91C35.2,26.1,38.65,16.32,44.33,8.2c4.81,6.32,7.3,14.73,10.6,21.88l4.71,10.23c.9,1.94,1.82,3.87,2.68,5.83.71,1.62,1.91,3.75,2,5.55.09,1.25.33.69-.78,1.32a7.41,7.41,0,0,1-2.22.62c-1.88.35-3.82.42-5.72.61s-4.79.19-5.94,2a3.54,3.54,0,0,0-.32,2.63,12.47,12.47,0,0,0,.75,3.32c1.64,3.51,5.2,6.41,7.7,9.34C59.91,74,62,76.44,64,78.91c3.24,3.93,6.57,7.82,9.48,12a27.83,27.83,0,0,1,3.14,5.37C76.84,96.81,77.45,98.07,77.08,98.55Z"/><path class="cls-1" d="M77.08,98.55c-.41.55-2.35.78-2.93.9-7.56,1.55-15.61.62-23.29,1.39-1.82.18-3.49.71-4,2.7-.28,1.06.14,2.09.07,3.09-.1,1.2-.53,2.35-.59,3.58-.26,4.73.15,9.48,0,14.21-.08,2.19-.17,4.55-2.31,5.29-1.22.42-3.13.81-3.89-.2s-.58-3.74-.59-5c0-5,.61-10.25-.22-15.25-.26-1.54-1.28-2.83-1.54-4.33-.18-1.1.21-1.76-.62-2.78a4.21,4.21,0,0,0-2.77-1.35c-4.52-.85-9.38-.8-14-1.07-4-.23-8.86-.2-12.7-1.65.85-2.91,3.15-5.64,5-8Q16.74,85,20.93,80c3-3.6,6.06-7.14,9.11-10.7,2.33-2.73,4.28-5.34,5.29-8.8.41-1.4,2.11-3.11.35-3.69-1.34-.45-3.4-.15-4.82-.34a54.36,54.36,0,0,1-6-1.1c-1-.25-3.94-.28-4.55-1.16-1-1.34,2.5-6.25,3.21-7.5,2.28-4,4.64-7.89,6.86-11.91C35.2,26.1,38.65,16.32,44.33,8.2c4.81,6.32,7.3,14.73,10.6,21.88l4.71,10.23c.9,1.94,1.82,3.87,2.68,5.83.71,1.62,1.91,3.75,2,5.55.09,1.25.33.69-.78,1.32a7.41,7.41,0,0,1-2.22.62c-1.88.35-3.82.42-5.72.61s-4.79.19-5.94,2a3.54,3.54,0,0,0-.32,2.63,12.47,12.47,0,0,0,.75,3.32c1.64,3.51,5.2,6.41,7.7,9.34C59.91,74,62,76.44,64,78.91c3.24,3.93,6.57,7.82,9.48,12a27.83,27.83,0,0,1,3.14,5.37C76.84,96.81,77.45,98.07,77.08,98.55Z"/></g></g></svg>