<svg width="86" height="86" viewBox="0 0 86 86" fill="none" xmlns="http://www.w3.org/2000/svg">
<g filter="url(#filter0_ddd)">
<circle cx="43" cy="42" r="40" fill="#0082C6"/>
</g>
<path d="M28.7693 58.4213C33.1924 66.0894 46.4616 67.2469 53.7693 61.1702C60.8847 55.3829 60.1155 47.57 56.2693 40.9146C52.6155 34.9826 47.4232 29.34 45.1155 22.9739C44.9232 22.1058 44.7309 19.0675 43.3847 18.9228C42.0385 18.7781 42.6155 20.3697 42.2309 20.9484C41.8462 21.8165 40.8847 22.8293 40.3078 23.6974C38.0001 27.1698 35.6924 30.7868 33.3847 34.2592C28.3847 41.4934 24.3462 50.4637 28.7693 58.4213ZM28.9616 50.6084C29.1539 45.8338 30.8847 41.3487 33.577 37.1529C35.1155 34.9826 36.6539 32.8124 38.0001 30.4975C39.7309 27.7485 41.077 24.7101 42.6155 21.8165C43.0001 26.0123 45.6924 29.774 48.1924 33.3911C50.6924 37.0082 53.3847 40.4806 55.3078 44.387C57.4232 48.7275 57.4232 53.502 54.3462 57.5532C51.077 61.8936 45.3078 64.4979 38.7693 63.1958C31.2693 61.6043 28.9616 55.817 28.9616 50.6084Z" fill="white"/>
<path d="M28.9616 50.6084C29.1539 45.8338 30.8847 41.3487 33.577 37.1529C35.1155 34.9826 36.6539 32.8124 38.0001 30.4975C39.7309 27.7485 41.077 24.7101 42.6155 21.8165C43.0001 26.0123 45.6924 29.774 48.1924 33.3911C50.6924 37.0082 53.3847 40.4806 55.3078 44.387C57.4232 48.7275 57.4232 53.502 54.3462 57.5532C51.077 61.8936 45.3078 64.4979 38.7693 63.1958C31.2693 61.6043 28.9616 55.817 28.9616 50.6084Z" fill="white"/>
<defs>
<filter id="filter0_ddd" x="0" y="0" width="86" height="86" filterUnits="userSpaceOnUse" color-interpolation-filters="sRGB">
<feFlood flood-opacity="0" result="BackgroundImageFix"/>
<feColorMatrix in="SourceAlpha" type="matrix" values="0 0 0 0 0 0 0 0 0 0 0 0 0 0 0 0 0 0 127 0"/>
<feOffset dy="1"/>
<feGaussianBlur stdDeviation="0.5"/>
<feColorMatrix type="matrix" values="0 0 0 0 0 0 0 0 0 0 0 0 0 0 0 0 0 0 0.14 0"/>
<feBlend mode="normal" in2="BackgroundImageFix" result="effect1_dropShadow"/>
<feColorMatrix in="SourceAlpha" type="matrix" values="0 0 0 0 0 0 0 0 0 0 0 0 0 0 0 0 0 0 127 0"/>
<feMorphology radius="1" operator="erode" in="SourceAlpha" result="effect2_dropShadow"/>
<feOffset dy="2"/>
<feGaussianBlur stdDeviation="0.5"/>
<feColorMatrix type="matrix" values="0 0 0 0 0 0 0 0 0 0 0 0 0 0 0 0 0 0 0.12 0"/>
<feBlend mode="normal" in2="effect1_dropShadow" result="effect2_dropShadow"/>
<feColorMatrix in="SourceAlpha" type="matrix" values="0 0 0 0 0 0 0 0 0 0 0 0 0 0 0 0 0 0 127 0"/>
<feOffset dy="1"/>
<feGaussianBlur stdDeviation="1.5"/>
<feColorMatrix type="matrix" values="0 0 0 0 0 0 0 0 0 0 0 0 0 0 0 0 0 0 0.2 0"/>
<feBlend mode="normal" in2="effect2_dropShadow" result="effect3_dropShadow"/>
<feBlend mode="normal" in="SourceGraphic" in2="effect3_dropShadow" result="shape"/>
</filter>
</defs>
</svg>
