<svg width="44" height="47" viewBox="0 0 44 47" fill="none" xmlns="http://www.w3.org/2000/svg">
<g clip-path="url(#clip0)">
<path d="M37.7998 36.6999C35.6998 33.9999 33.4998 31.2999 31.3998 28.5999C30.6998 27.5999 26.3998 23.3999 26.3998 22.1999C26.4998 21.0999 28.8998 19.0999 29.4998 18.1999C32.2998 14.4999 35.1998 10.9999 38.0998 7.39988C39.3998 5.89988 43.9998 1.79988 41.6998 0.299876C40.8998 -0.200124 35.6998 -0.000123858 34.5998 0.499876C32.5998 1.29988 31.0998 4.29988 29.7998 6.09988C27.1998 9.59988 24.4998 12.9999 21.6998 16.2999C18.9998 12.8999 16.1998 9.59988 13.6998 6.09988C12.2998 4.19988 10.4998 1.09988 8.09976 0.399876C6.99976 -0.100124 1.99976 -0.200124 0.999757 0.699876C0.199757 1.39988 0.499757 1.59988 1.69976 3.49988C4.39976 7.79988 7.69976 11.6999 10.7998 15.6999C11.9998 17.1999 13.1998 18.6999 14.3998 20.1999C16.1998 22.4999 16.8998 22.2999 15.0998 24.5999C13.6998 26.3999 -1.40024 44.1999 0.0997569 45.4999C2.09976 47.0999 7.49976 47.0999 9.29976 45.3999C11.5998 43.2999 13.2998 39.5999 15.0998 37.0999C17.0998 34.2999 19.0998 31.4999 21.1998 28.7999C23.7998 31.9999 26.0998 35.3999 28.5998 38.6999C30.0998 40.7999 31.4998 43.4999 33.3998 45.1999C36.0998 47.4999 41.8998 46.9999 43.7998 44.8999C42.8998 42.1999 39.3998 38.8999 37.7998 36.6999ZM34.8998 44.2999C33.8998 43.6999 32.4998 41.1999 31.7998 40.2999C30.1998 38.0999 23.0998 25.6999 20.2998 26.8999C18.4998 27.6999 16.7998 31.7999 15.5998 33.4999C13.8998 35.7999 12.2998 38.0999 10.7998 40.4999C9.89976 41.8999 9.19976 43.9999 7.89976 44.4999C6.09976 45.1999 3.59976 43.9999 1.79976 44.4999C5.09976 41.6999 7.79976 36.9999 10.4998 33.5999C12.0998 31.4999 13.5998 29.4999 15.2998 27.4999C15.9998 26.5999 18.5998 24.2999 18.6998 22.9999C18.7998 21.5999 15.9998 19.1999 15.1998 18.2999C13.8998 16.6999 12.4998 14.9999 11.1998 13.3999C7.99976 9.59988 4.99976 5.79988 1.79976 2.19988C2.99976 2.39988 8.09976 2.79988 8.49976 1.99988C10.2998 5.49988 13.3998 8.59988 15.7998 11.5999C16.9998 13.0999 18.0998 14.6999 19.3998 16.1999C21.2998 18.5999 21.5998 18.9999 23.5998 16.9999C26.6998 13.7999 29.3998 9.89988 31.9998 6.29988C32.7998 5.29988 34.0998 2.59988 35.1998 2.09988C35.9998 1.69988 39.2998 2.19988 40.0998 2.19988C36.7998 6.19988 33.2998 10.1999 30.1998 14.3999C28.7998 16.2999 27.3998 18.2999 25.8998 20.0999C24.4998 21.7999 24.1998 21.5999 25.0998 23.3999C26.9998 27.2999 31.1998 31.3999 34.0998 34.8999C36.5998 37.9999 38.6998 41.3999 41.2998 44.3999C40.9998 44.3999 40.7998 44.3999 40.4998 44.3999C39.0998 44.3999 35.8998 44.7999 34.8998 44.2999Z" fill="black"/>
<path d="M41.0998 44.3999C40.7998 44.3999 40.5998 44.3999 40.2998 44.3999C39.0998 44.3999 35.8998 44.7999 34.8998 44.2999C33.8998 43.6999 32.4998 41.1999 31.7998 40.2999C30.1998 38.0999 23.0998 25.6999 20.2998 26.8999C18.4998 27.6999 16.7998 31.7999 15.5998 33.4999C13.8998 35.7999 12.2998 38.0999 10.7998 40.4999C9.8998 41.8999 9.19981 43.9999 7.89981 44.4999C6.09981 45.1999 3.5998 43.9999 1.7998 44.4999C5.0998 41.6999 7.7998 36.9999 10.4998 33.5999C12.0998 31.4999 13.5998 29.4999 15.2998 27.4999C15.9998 26.5999 18.5998 24.2999 18.6998 22.9999C18.7998 21.5999 15.9998 19.1999 15.1998 18.2999C13.8998 16.6999 12.4998 14.9999 11.1998 13.3999C7.9998 9.59993 4.9998 5.79993 1.7998 2.19993C2.9998 2.39993 8.0998 2.79993 8.4998 1.99993C10.2998 5.49993 13.3998 8.59993 15.7998 11.5999C16.9998 13.0999 18.0998 14.6999 19.3998 16.1999C21.2998 18.5999 21.5998 18.9999 23.5998 16.9999C26.6998 13.7999 29.3998 9.89993 31.9998 6.29993C32.7998 5.29993 34.0998 2.59993 35.1998 2.09993C35.9998 1.69993 39.2998 2.19993 40.0998 2.19993C36.7998 6.19993 33.2998 10.1999 30.1998 14.3999C28.7998 16.2999 27.3998 18.2999 25.8998 20.0999C24.4998 21.7999 24.1998 21.5999 25.0998 23.3999C26.9998 27.2999 31.1998 31.3999 34.0998 34.8999C36.2998 37.9999 38.4998 41.3999 41.0998 44.3999Z" fill="white"/>
</g>
<defs>
<clipPath id="clip0">
<rect width="43.7" height="46.7" fill="white"/>
</clipPath>
</defs>
</svg>
