<svg xmlns="http://www.w3.org/2000/svg" viewBox="0 0 358.65 296.63"><defs><style>.cls-1{fill:#d9f4a4;fill-rule:evenodd;}</style></defs><title>jardim_banner</title><g id="Layer_2" data-name="Layer 2"><g id="Layer_1-2" data-name="Layer 1"><path class="cls-1" d="M141.24,171.69c9.17-3.3-2.85-8.22-4.33-12.31-2.36-6.52-.6-18.16-1.32-25.39-1.05-10.61-.19-20.73.3-31.32.68-14.5-7.21-37.76-1.58-51.19,5.4-12.85,30.45-5.52,41.1-7,0,2.66,0,9.81,4.13,10.31,8.06,1-1.83-9.53-2.73-10.53,5.48-1,6.74-5.15,2.61-7.93-1.28-.86-9-1-11-1.22-10.54-.92-25-1.42-35.18,1.15-11.38,2.87-5.67,21.67-5.41,31.87.4,16,.52,31.73.14,47.87C127.67,128.58,116.57,180.57,141.24,171.69Z"/><path class="cls-1" d="M239.3,170.94c6.82-3.3,2-30.92,2.24-37.68.34-11.7,2.24-23.24,2.72-34.94.39-9.63-.43-19.1-.15-28.69.22-7.76,3.62-21.08.12-28.1-5.11-10.26-31.48-5.78-41.88-5.74-3,0-19.74,4.77-10,9.32-4-.49-6.17,7.48-3.33,9.28,2.08,1.32,8.48-7.42,10.49-8.11,6.1-2.1,22.64-.43,28.2,1.7,11.75,4.51,5.69,25.47,6.68,36.36,1.72,19.11,0,39,.09,58.24,0,4.22,1.44,14-2.15,17.29s-10.56-.32-14.44,2.41C206.21,170.49,233.8,173.61,239.3,170.94Z"/><path class="cls-1" d="M141.35,90.84c-1.16,11.69,7.78,5.72,9.7-1.26,1.72-6.22-3-13.48,1.39-20.43s8-6.57,13.62-3.39c2.65,1.5,1,4.49,4.58,4.36,1.87-.07,6.85-5.49,6.92-7.18.31-7-19.87-12.15-25-13.24-7.3-1.57-11.31-2.28-12.29,5.71C138.9,66.94,142.52,79.15,141.35,90.84Z"/><path class="cls-1" d="M230.42,82.93c.56-9.85.75-21.52-1.7-31.24L193,61.79c1.07,1.9,4,6.6,5.86,7.34,3.67,1.48,1.76-.25,5.34-.72,6.66-.88,12.05-3.11,16.44,4.41,3.73,6.38-1.19,12.6,2.08,18.4C230,104.08,230.08,88.9,230.42,82.93Z"/><path class="cls-1" d="M206.4,80.59c2.75,7,13,7,11.48-2S201.07,67,206.4,80.59Z"/><path class="cls-1" d="M165.62,72c-1.22-7.56-18.28,4.86-12.49,12.21C159.62,92.48,166.49,77.38,165.62,72Z"/><path class="cls-1" d="M189.55,112.42c6-5.27-.25-13.2-6.94-10.41C172.32,106.31,181.94,119.11,189.55,112.42Z"/><path class="cls-1" d="M152,132.45c-3.09,7.19,9.27,19.27,12.92,8.79C167.38,134,155.58,124,152,132.45Z"/><path class="cls-1" d="M212.29,129c-4.41,2.49-12.37,15.74-3.15,16.33C215.49,145.72,222.22,129.84,212.29,129Z"/><path class="cls-1" d="M204.88,88.09c-4.37,4.61-10.06,7.09-7.88,13.25,1.8,5.06,4.14,4.31,8.55,5.07,3,.51,19,3.07,21.28.31C234.32,97.82,210.57,87.23,204.88,88.09Z"/><path class="cls-1" d="M188.62,65.91c-.52,9.47-2.33,42.66,11.08,22.06,2.44-3.74,3.64-4.51,2.82-8.92C201.47,73.42,188.61,66,188.62,65.91Z"/><path class="cls-1" d="M175.54,92.69a11,11,0,0,0,5.14,3.52l1.11-31.63C175,74.3,164.82,80.77,175.54,92.69Z"/><path class="cls-1" d="M173.79,102.44c1.78-3.19-4.61-11.84-7.81-12.75-1.22-.34-6.42,1.62-7.64,2.16-3.49,1.54-12,6.57-12.51,10.93-.66,5.81,6.42,3.15,11.51,3.27C163.28,106.2,170.31,108.7,173.79,102.44Z"/><path class="cls-1" d="M170,121.26c8.25-6.94-1.49-7.47-7.12-7.73-3.14-.14-16.53-3.1-18.75-.36-2.69,3.33,8.79,12,12,13.21C162.37,128.7,165.63,124.88,170,121.26Z"/><path class="cls-1" d="M142.82,131.82c-.3,11.79-5.24,29.16,10.12,28,4.57-.35,21.83-.9,23.61-5.54,3.64-9.53-12.45-5.51-15.08-5.33-11.27.75-18.65-15.64-9.06-22.6l-10.65-9.76A75.5,75.5,0,0,1,142.82,131.82Z"/><path class="cls-1" d="M180.81,142.73c-.12-5.86,2.7-23.79-4.41-21.14-2.6,1-7.75,9.31-8.21,12C167,140.71,181.14,158.17,180.81,142.73Z"/><path class="cls-1" d="M189.07,149.8c2.1,2.11,7.66-5,8.8-6.33,5.69-6.68,6.77-9.77,1.42-16.51-4.12-5.2-6-10-9.84-5.64C187.46,123.57,186.09,146.82,189.07,149.8Z"/><path class="cls-1" d="M197.36,117.45c4.66,12,15.77,12,24.3,5.09,2.11-1.72,6.08-4.18,6.64-7.2,1-5.74-.26-3.82-5.38-4.57C218,110.05,195.28,106.81,197.36,117.45Z"/><path class="cls-1" d="M214,158.94c3.41.51,12.24,2.13,14.79-.89,1.86-2.22-.24-13.76-.29-16.76l-.34-19.79c-6.87,4-6.41,4.72-7.05,10.46-.85,7.6-.75,13.82-10,16.44-3.29.93-15.61-2.63-15.21,4C196.05,155.92,210.48,158.4,214,158.94Z"/><path class="cls-1" d="M256.77,90.54c-.93,23.23-3.86,46.4-4.33,69.66-.15,7.57-1.64,13.77,7.48,12.31,6.36-1,5-.36,4.22-6.87,1.83,12.24,26.56,8.15,35.77,8,3.68,0,9.78.43,12.23-2.88,2-2.7-.27-10-.46-12.83-.54-7.85-.31-15.74-.74-23.59-1.42-25.44-1.68-51-2.63-76.44-.17-4.61,1.77-18.15-2.15-21.93-4.35-4.2-22.05-.32-28.24,0-13.65.59-20.22-3.55-21.18,10.94C255.77,61.57,257.36,75.9,256.77,90.54Zm29.36,72c-2.2-.25-4.37-.65-6.56-1A55,55,0,0,1,286.13,162.49Zm12-4.63c.11,1.24.42,3.1-.54,4.08.68-1.57.49-3.78.4-5.44C298,155.52,298.21,158.42,298.16,157.86Zm-1.63-30.31c.49,4.44.39,9,.49,13.41-.34-5.4-.65-10.77-.8-16.18C296.32,125.7,296.43,126.63,296.53,127.55ZM294.32,79c0-.82,0-1.64,0-2.46.41,4.31.72,8.65.75,13A80.68,80.68,0,0,1,294.32,79Zm-27.51-7.25c0-2.28.54-3.44.77-5.17l-.71,1.26c0-1.61.07-3.21.1-4.81C274.75,64.05,267,71.22,266.81,71.73Zm-1.31,88.61c.57-6.59,1.31-13,1.19-19.65,10.1,1-.08,7.87,2.58,10.47,4.19,4.11,6.55-4.21,6.83-5.94.16-.95-.33-5.54-1-6.42-.48-.67-7.69-4.61-8.57-2.76-.16-5.85-3.22-50.6.93-53.35,6.47-4.29,3.37,5,2.73,7.88-.05.24-6.65,2.89-2,4.34,3.77,1.18,4.54-3,5.15-5.57.91-3.82-5.38-15.44-6.51-10.83,0-.9,0-1.8,0-2.7,5,8,11.48-22.67.17-14.19,0-2.38.05-4.76.08-7.14,3.41,8.1,25.36,1.81,26.71-6.29l-25-1.5c3.67-1.89,11.39.38,15.57.63,10,.61,12.34.18,10.7,11.71-.08-1.33.29-6.38-1.12-7.37,1.37,1-3.1,10.94-3.23,12.94l-.25-1.5c-1.19,5.38,2.95,10,2.32,15.85-.68,6.37-.9,8.18-.23,13.89.15,1.29-1.61,2.89-1.53,4.48.12,2.16,2.07,4.38,2.31,6.69.46,4.28-.57,10.49-.95,14.59-.7,7.3,1.59,9.1,3,16.41,1.73,9.07-3.87,18.39,1.64,27.35-2.62.73-5.52.49-8.21.36,10.75.14.53-5.92-2.52-8.54-4.74-4.07-6.13-5.9-3.65-13.14-8.35-1-2.74,6.53-6,11.14-2.63,3.69-9.6,2.83-7.88,9.44C266.54,161.89,265.29,162.84,265.5,160.34Z"/><path class="cls-1" d="M274.59,72.92c.71,2,5.54.6,6.53-.67,0,0,.39-11.64.57-13.46C278.87,62.7,272.39,66.72,274.59,72.92Z"/><path class="cls-1" d="M282.59,70c.27,3,2.19,8,6.14,6.53,5.14-1.9-1.32-4.46-1.55-6.27s2.5-8.71,2-9.62C286,54.88,282.38,67.69,282.59,70Z"/><path class="cls-1" d="M290.19,79.47c-5.2-10.37-11.95,19.94-2,15.74,3.46-1.45-2-4.83-1.69-7C287,84.76,292.15,83.37,290.19,79.47Z"/><path class="cls-1" d="M291.61,82.18c-.75.6-1.43.84-1.72,1.74Z"/><path class="cls-1" d="M272.25,96.84c1.35,2.77,13.79,3.85,14.38-.08C282.07,96.71,276.09,96.26,272.25,96.84Z"/><path class="cls-1" d="M286.65,110.2c-.41,3.54.52,5.42,2.59,1.55,1.95-3.65.39-8.78-.45-12.54C285.38,102.37,287.14,105.9,286.65,110.2Z"/><path class="cls-1" d="M278.21,118.32c7.2,1,10.6-5.66.32-4.22C273.62,114.79,270.12,117.22,278.21,118.32Z"/><path class="cls-1" d="M283.94,104.78c-1.78-6.56-10.47-3.07-10.22,2.83C274.08,115.88,286.45,114.33,283.94,104.78Z"/><path class="cls-1" d="M267.83,109.75c1.53,12.52,8.31-6.72,1.24-9.94A19.48,19.48,0,0,0,267.83,109.75Z"/><path class="cls-1" d="M275.41,126.42c-.48-3.3-3.58-12.9-7.18-6.71-2.54,4.36,3.31,2.18,3.47,5.72.14,3.24-4.52,4.68-3.23,7.36C271.82,139.74,275.84,129.44,275.41,126.42Z"/><path class="cls-1" d="M279.12,131.39c3.65-.67,2-7.47,3-10.45a16.61,16.61,0,0,0-5.52.44C277.16,123.77,275.46,132.06,279.12,131.39Z"/><path class="cls-1" d="M290.34,132c-5.34-6.25-1.95-7-.76-13.71-4.89.62-7.93,8.89-5.49,13.12C286,134.77,292.28,134.27,290.34,132Z"/><path class="cls-1" d="M285.55,137.36c-2.33,5.9.51,21.24,4.17,11.54-.53,1.43-.12-7.34-.06-6.81-.09-.79,2.76-1.73,2.12-3.43S286.13,135.88,285.55,137.36Z"/><path class="cls-1" d="M280.53,86.69c.27-1.34.66-2.66.83-4a19.74,19.74,0,0,0-6.06-.77c.23,2.49.33,10.77,1.52,11.54C281.62,96.51,280.25,88.08,280.53,86.69Z"/><path class="cls-1" d="M276.62,79.73c2.07,3.54,4.9-.51,3.8-3.23C279.23,73.57,275,77,276.62,79.73Z"/><path class="cls-1" d="M64.39,95.4c3.68-2.07,3.28-6.61,4.57-10.08,1.51-4,8.84-11.67,8.56-16-.44-6.74-14-15-19.1-16.73C58.67,56.76,57.48,99.29,64.39,95.4Z"/><path class="cls-1" d="M80.43,65.24c3.74-1.24,5.38-6.17,8.46-8.49l-14.56.39A99.7,99.7,0,0,0,80.43,65.24Z"/><path class="cls-1" d="M81.33,73.14C72.29,80.3,69.59,97.3,70,107.83c.31,7.52,6,34.74,15.85,26.72C101.41,121.86,93.39,84.82,81.33,73.14Z"/><path class="cls-1" d="M62.18,151.51c.71,4.16,17.05-6.32,16.44-12.65-.46-4.73-11.45-24.3-15.29-22.56C61,117.39,61.59,148.11,62.18,151.51Z"/><path class="cls-1" d="M5.77,155.64c4,8.6,33.21,14,37.72,4.34,2.21-4.72-.88-16.19-1.23-20.87-.62-8.27-1-16.52-1.13-24.81-.31-15.4-2.11-30.65-2-46,.06-8.26,2.1-27-4.82-33.21-6.63-6-7.42-.3-6.36,5.19,1.5,7.85,4.28,12.58,3.21,21-.67,5.29-3.06,10.3-4,15.62-2.56,14.92-.2,33.94-.33,49.2-.05,6.89,3.62,24.15-8,21,6.3-20.16-1.21-45.46-2-66.07-.51-13.91,2.25-30.06-1-43.7-1.26-5.32-2.55-10.62-7.15-3.62-4,6.15-.41,25.73-.48,33.59-.11,14,.16,27.71,1.2,41.64.58,7.83,1.26,15.65,1.77,23.49.2,3,2.54,12.34,1.38,14.68C11.22,150,3.16,150,5.77,155.64Z"/><path class="cls-1" d="M192.29,19.36c-1.83-6.92-19.26,1.05-11.43,7.3C185.42,30.29,193.66,24.54,192.29,19.36Z"/><path class="cls-1" d="M169.87,20c-.06,1.38,1.51,1.67,2.51,1.76C172,21.17,170,18,169.87,20Z"/><path class="cls-1" d="M201.75,19.47c-1.66,2.28-1.81,3.08,1.8,2.51C203.51,21.88,202.18,18.88,201.75,19.47Z"/><path class="cls-1" d="M118.23,235c-2.22-4.84-6.48-2.85-9.59-4.75-4.28-2.61-3.74-6.4-10.2-7-2.12-.19-4.91,2.13-7,1.53-1.45-.44-.29-3-1-3.24-2.23-.68-10-.77-11.64-2.24-8.54-7.89,10.16-11.06,13-13.27s9-8.4,10.29-11.08c3.47-7.07-.63-6.36-4.59-11-3.34-3.93-3.46-10.28-9-12.56,5.41,1.59,17.22,2.52,22-1.16,7.45-5.78,2.42-26.75,2.52-34.85.23-19.16,1.34-37.59.57-56.81C112.94,64.37,110,48.09,111.73,34c-16.58-1.48-36.86-.53-54.55-.78C40.5,33,41.87,33.09,43,50c1.72,25.9,4.66,51.48,4.65,77.47,0,12.54-.29,25.1-.22,37.64,0,6.78-.54,11,7,6.27-3.1,3.5-5.32,4.22-9.27,6.14C34.68,182.6,37,188.67,32.9,199.09,28.58,210,22.69,208.27,16,200.81,1.6,184.92,28.21,187.07,22.05,172c-3.58-8.75-16.47-9.81-20.84-1.32C-2.94,178.75,4.8,187.76,6,195.52,7.57,205.27,3.4,209.3,1,217.92c-3.94,13.94,9.09,12.63,9.46,24.87.23,7.49-2.07,9.53,5.32,15.06,3.09,2.31,7,3.46,10.41,5.11,9.26,4.41,14.56,14,25.93,14,7.87,0,6.63.89,13.36,3.61,7.88,3.18,10.86-1.27,15.15-7.52,1.88-2.74,5.3-10.54,9.23-10.69,1.09,3.1-8.94,11,1.1,11.58,3.63.21,4.78-4.08,7.61-5.14,6.41-2.38,5.41,1.71,10.11,2.12,6.35.55,7.3-1.65,8.57-7.7,1.09-5.22-.55-10.2-.28-15.09C117.15,244.1,120,238.88,118.23,235ZM57,168.76c3.33-15.23-1-38.51-1.47-55.94,6.88,1.76,9.44-3.48,7.26-9.79C61,98.05,57,99,55.1,94.73l-.28,7.78c-1-10-1.12-20.09-1.93-30.1-.47-5.69-4.17-21-.19-26.45-.12,2.19,20,7.88,23.84,7.82,8.06-.11,19.95.23,26.28-5.37.6,4.54.17,9.24-.14,13.78l-.48-9.13C97.28,55.42,85,63.14,84.35,69.33c-.49,4.94,9,18,11.9,21.65,5.59,6.89,6.47,6.16,6.52,17,0,9.73-11.15,19-13.08,30.43-1,5.68,7.65,18.9,13.69,19.9-2,5-17.85,3.63-22.49,3.82-5.28.21-16.09-2.73-20.58-.23-3.86,2.14-3.55,5.31,2.58,5C60.93,167.54,59,168.31,57,168.76Zm20,.74A15.42,15.42,0,0,0,72.26,167c5.81.53,10.35,2.48,15.66,4.23C82.93,170.25,81.73,173.09,76.91,169.5Z"/><path class="cls-1" d="M105.4,204.18c-2.55-3.09-7.94,1.16-8.34,4.58C95.83,219.12,109.74,209.47,105.4,204.18Z"/><path class="cls-1" d="M109.45,196.14c-4.54,4.27,3.5,7.48,2.23-1Z"/><path class="cls-1" d="M114.79,186.51c-2.4-.31-2.9,5.76,3.06,1.46A11.5,11.5,0,0,0,114.79,186.51Z"/><path class="cls-1" d="M131.16,197.23c-10.54.49-3,12.11,2,14.82C132.94,210.08,132.27,197.18,131.16,197.23Z"/><path class="cls-1" d="M128.07,243.69c-6,2.37-5.6,19.42,1.48,19.34C134.85,263,129,246.71,128.07,243.69Z"/><path class="cls-1" d="M246.58,206.79c.6-3.93-4.32-6.82-6.69-9l.57,15C243.15,211.88,246.12,209.81,246.58,206.79Z"/><path class="cls-1" d="M244,251.24a21,21,0,0,0-5.43-8.14v21.66C242.78,261.06,246,257.14,244,251.24Z"/><path class="cls-1" d="M353.61,240.58c-.22-9.71-2.71-19-3.15-28.45-.42-8.94.47-14.68-7-20.63-4-3.17-8-7.7-12.14-10.53-7.58-5.25-11.48-.78-18.81.29-6.36.93-13.14-3-19.55-2.49-5,.42-7.54,1.7-12.47,1.65-7.18-.07-19.78-6.59-25.91-.24-5.43,5.64-.15,9.94,4.56,13.56-.58,1.78-7.34,1.79-8.72,5.71-2.24,6.39,3.3,7.11,7.05,10.71-2.4,6.82-12.86,9.58-11.68,19,.48,3.8,3.91,8.13,5,11.74.86,3-.76,5,1.34,8,1,1.43,3.71,1.89,4.43,3.07,2.23,3.63.69,10.43,4.78,14.24,3.43,3.2,7.81,1.31,11.67,2.8,2.15.83,2.66,2.44,4.67,3.71,6.7,4.2,13.61,8.23,21.44,3.59,2.74-1.63,4.35-5.8,7.49-6.68,4.39-1.24,12.33,2.42,17.53,1.93C343.18,269.7,354.07,261.2,353.61,240.58Z"/><path class="cls-1" d="M212.34,162c-4.83-1.33-23.84-9.45-22.42,4,1.43,1.05,15.75,1.19,17.55.72C210.87,165.79,213,166.92,212.34,162Z"/><path class="cls-1" d="M177.9,166.82c1.53-.55,1.32-7.33.1-8.65a1.14,1.14,0,0,0-.32-.07c-2.5,3.58-33.82,3.25-32.28,7.34,1.28,3.38,27.49,2.24,29.91,2,.23,2.74-.54,6,.62,8.61-9.6-1.87-23.86-2.55-33.39-.05,9.46.77,22.25,4.34,31.41,2.58.63-.12,7.77-1.08,3-2.31,1.54-1.08,1.64-7,2.72-9.28C179.62,167,177.22,167.07,177.9,166.82Z"/><path class="cls-1" d="M318.84,50.9c-5.89,8.55,5.33,18.74,5.2,25.9,0,2-2.28,3.8-2.22,5.77.09,2.74,2,4.19,2.41,6.57.95,5.56-1.07,9.22-1,15,.15,10.85,4.91,19.19,1.72,29.62-1.53,5-6,21.09-1.39,24.67,11,8.58,8.29-13.73,9.52-17.12,1.38-3.81,2.18-3.94,2.73-8.13.31-2.31-.17-4.49.31-6.93.29-1.53,2.26-2.5,2.4-4.35.29-3.89-3.21-5.56-3.1-8.83.11-2.88,2.78-4.54,3.54-7.13.66-2.26-.31-5.83.69-7.72,2.18-4.11,7.1-3.18,7.85-9,.91-7-4.86-6-7.29-10.64-2.63-5,1.71-9.53-.31-14.39-.62-1.5-3.63-1.42-4.23-2.75-1.66-3.7.21-4.46.15-8.16-.11-6-4.32-7.82-5.22-12.67-1.08-5.8,5.62-10.39-5.21-11.49.33.21.83,1.59,1,1.94-5.79-6.41-4.53,6-4.43,8.5C322.25,46.07,322.59,45.46,318.84,50.9Z"/><path class="cls-1" d="M156.12,289.21c5.5,9,14.4,10.91,18.78-.33C172.05,288.85,156.14,289.24,156.12,289.21Z"/><path class="cls-1" d="M200.33,287.47c5.46,7.16,10.79,5.22,16.4.26C213.84,287.6,200.54,287.74,200.33,287.47Z"/><path class="cls-1" d="M135.17,30c7-.65,12.56-1.4,18.77-4,7.73-3.2,5.23-4.67,9.08-11,5.21-8.61,33.87-3.84,41.68,1.6,7.45,5.19,4.83,10,15.46,10.4,19.93.86,40.25-.93,60.17-1.55,7.42-.23,36.64,6,38.95-2.61,4.17-15.59-31.72-15.35-38.34-15.45-26.21-.39-51.13-3.27-77.11-6C192.93.16,181.21-.56,170.3.56c-11.81,1.22-22.14,7.23-33.94,8.64-28,3.34-53.63-.41-81.42-2.86-22.64-2-34,.12-45.78,19.55,6.92-.44,15,.46,22.64-.15,13.2-1.06,26.33.6,39.4,2.23C93.11,30.7,113.13,32,135.17,30Z"/><path class="cls-1" d="M140.88,176.07c-1.47,2.11,0,.45,1.12.11C143.54,175.74,141,176,140.88,176.07Z"/><path class="cls-1" d="M230.39,179.53c-8.69-5.59-27.66-4.61-37.4-2.95.33-4.57,1.86-9.92-4.13-8.77,2.58,9,0,9.11,7.2,11.23,10.49,3.08,24.15,1.77,35.12,2.58A9.09,9.09,0,0,0,230.39,179.53Z"/><path d="M243,139.09c.45-8,.77-16,1.47-24,.68-7.7,1.57-15.38,1.7-23.12A34.69,34.69,0,0,0,245,82.26c-.39-1.5,0-2.32.19-3.77.26-1.76-.14-3.53-.05-5.3.17-3.48.74-6.47.36-10-.41-3.82-.31-7.78-.42-11.62-.09-3.36.29-6.69.33-10,0-3-1.43-5.23-4.54-5.44-7-.48-14.14.21-21.16,0S205.89,35,199,35.1c-4.69.09-11.3,2.74-10.48,8.71.38,2.79,3.19,3.5,5.6,3.32,3.27-.26,6.26-1.08,9.59-.84s6.83.91,10.29,1a88.07,88.07,0,0,1,10.14.52,21.56,21.56,0,0,1,6,1.15c2.75,1.2,2.79,3.1,2.78,5.86a149.47,149.47,0,0,1-1.19,21.88,18.11,18.11,0,0,0-.37,4.15,15.64,15.64,0,0,0,1,3.28c.85,3.1-.57,6.85-.2,10.13a41.69,41.69,0,0,1-.43,10.28,113.13,113.13,0,0,0-.53,11.93c-.09,8,.17,16,.18,23.94,0,3.67,0,7.33.37,11,.14,1.51.23,3,.4,4.52.13,1.12.71,2.91,0,4s-2.34.91-3.5.91a48,48,0,0,0-5.22.28c-4.07.42-7.94.89-12,0-3.87-.84-7.75-1.57-11.64-2.29s-6.08-.37-8.59,2.87c-1,1.24-3,7.37-4,4.06-.73-2.3.37-4.87,0-7.21-.31-2.13-2.47-4.33-4.73-2.9-1.73,1.09-2,4-2.19,5.82-.51-3.48-2.65-3.43-5.61-3.23-4.67.3-9.22,1.87-13.89,2.42-1.72.2-3.32.73-5,.9s-3.47,0-5.18.22c-1,.14-5.85,1-5.44,2.58-2.16-1.32-4.89-1.53-7.36-1.62,2.8-14.32-1-29-1.11-43.46,0-7.36.39-14.72.59-22.08.2-7.54-.13-15-.55-22.57-.39-6.93-1-14-.56-21,.4-6,4.17-7.32,9.75-7.85a156,156,0,0,1,21.62-.51c5,.23,14.54,2.87,15.72-4.31.35-2.14-1.08-4.19-2.91-5.26-2.5-1.46-5.13-.07-7.78-.34-3.42-.35-6.1-1.54-9.62-1.08a25.8,25.8,0,0,1-9.83-.12A28.55,28.55,0,0,0,144,34c-3.09.34-5.9,2.16-9,2-4.82-.22-8.91-1.66-9.92,4.66-.53,3.29.16,6.63.78,9.86a86.67,86.67,0,0,1,.88,11.51c.17,3-.69,6-.34,9,.43,3.76.7,7.52,1,11.29.29,3.15-.65,6-.63,9.1a30,30,0,0,0,.73,4.22c.3,2.08-.35,3.84-.61,5.88-.87,6.85.29,14.23.37,21.13,0,4.09.29,7.94-.74,11.89-.73,2.79.34,5.53-.47,8.23-1.18,4-.75,6.91-.3,10.94.22,2-.32,3.8-.29,5.76,0,1.78.57,3.5.71,5.27.26,3.25-.83,6.23,2.93,7.8,2.63,1.09,5.7.64,8.45.57,3.43-.1,10.66-.34,10.09-5.46,2,1,4.59.19,6.7.26,3,.12,5.89.3,8.88.2,5.26-.16,11.14.95,16.28-.34-.92,1.62-2.12,2.07-2.33,4.08a34.87,34.87,0,0,0,.31,5.59c-5.13,0-10.26.06-15.39-.2-4.93-.24-9.82-1.11-14.76-.68-2.1.18-4.21.35-6.3.61s-1.56.76.32,1a50.41,50.41,0,0,0,7.06.13,104.36,104.36,0,0,1,11.84.94,108.23,108.23,0,0,0,14.85.15c1.09,0,4.55.31,5.38-.63,1.3-1.51-1.77-1.34-2.46-1.32.53-2.86.54-5.43,2.26-7.81,1.59-2.2,1.78-4.58,1.91-7.25.06-1.13-.22-5.13,1.71-5.27,2.25-.17,1,5.49,1.08,6.65a7.56,7.56,0,0,0,2.46,5.36c1.9,2.06,1.3,4.41,1.8,7s1.76,3.55,4.3,3.76c3.27.26,6.56.31,9.83.43,6.64.24,13.09.25,19.71.92,1.57.16,5.25-.52,6.16,1,.61,1,.05,3.83,1.31,4.43,2.29,1.1.67-5.88-.54-6.84-1.58-1.24-5.53-.52-7.47-.76a74.65,74.65,0,0,0-10.35-.78c-3.92.06-7.79.07-11.71-.07-2.32-.08-5.2.23-7.48-.28s-1.91-2.64-2.07-4.55a13,13,0,0,0-.42-3.63c-.21-.51-1.4-1.4-1.35-1.83a47,47,0,0,0,11.6.73c2.08-.08,4.18-.34,6.26-.25,1.35.06,4-.05,5.23.45s2.2,1.91,3.65,2.46a18.77,18.77,0,0,0,4.94.81c4.23.36,8.45.26,12.69.58,2.71.21,6.1.68,7.78-2,1.24-2,1.07-4.62,1.09-6.82C242.45,155.68,242.56,147.35,243,139.09ZM136.53,162.36c.36.21.66-.25,1,.3A1.82,1.82,0,0,1,136.53,162.36Zm9.76,5.95c-.68,4.15-7.26,3.33-10.22,3.45-2.28.09-5,.37-7-1-2.5-1.66-1.19-4.81-1.65-7.36-.52-2.89.14-5.57.07-8.46-.1-3.75-1.31-7-.17-10.77a11,11,0,0,0,.75-3.68,27.15,27.15,0,0,1-.27-3.82c.15-1.45.8-2.8,1.06-4.23a25.52,25.52,0,0,0,.26-5.24c-.18-6.68.11-13.38-.34-20a28.77,28.77,0,0,1-.1-5.41,35.26,35.26,0,0,0,.73-4.88,39.36,39.36,0,0,0-.69-4.05c-.24-1.82.31-3.37.57-5.13,1-6.43-1.8-12.92-1.33-19.38a58.15,58.15,0,0,0,.36-8.25,87.39,87.39,0,0,0-.82-10.47c-.58-3.14-2.28-9.6.74-12,2.17-1.75,4.43.28,6.73.45,3.21.23,6.73-1.61,9.93-2.07a28.29,28.29,0,0,1,9.92.59c3.22.65,5.87-.39,9-.57s6.22,1.31,9.42,1.32c2.58,0,5.26-1.11,7.21,1.13a3.38,3.38,0,0,1-.56,4.72c-1.79,1.37-5.39.33-7.43.18a174.51,174.51,0,0,0-20.71,0c-4.81.22-13.83-.48-16.61,4.58C134.06,50,134.1,52.69,134,55a98,98,0,0,0,.36,11.49c1.19,16,.4,31.85.11,47.89-.15,8.07.57,16,1.22,24.08.33,4.17.73,8.36.71,12.55,0,2-.11,4.05-.19,6.08,0,.74-.07,1.47-.09,2.21s0,1.47-.05,2.2c.34.84.15,1.26-.59,1.27-.07,1.07,4.48.77,5.11.93C142.73,164.25,146.78,165.34,146.29,168.31Zm32.6-2.18c-3-.26-6.08.49-9.11.7s-6.13.33-9.18.3-5.91-.26-8.87-.22c-1,0-2.54.34-3.54-.06s-1.75-1.73-2.74-2.39c1.85-.31,3.47-1.37,5.32-1.72a55.86,55.86,0,0,1,6.32-.5,90.79,90.79,0,0,0,13-2.06c1.59-.35,6.66-1.76,8.15-.67s1.05,5.06,1.37,6.72Zm32.49.69c-3.49-.66-7-.28-10.54-.12-3.8.17-7.62-.36-11.4.09,1.62-2.73,3.61-6.6,7.19-6.84,2.32-.15,4.83,1,7.1,1.4,2.87.54,5.78.85,8.64,1.44-1,1-1,2.81-.62,4.1Zm31.33-51.61c-.86,6.63-.92,13.33-1.26,20-.36,7-.69,14.08-.8,21.14-.06,3.35.08,6.72-.15,10.07-.19,2.89-.51,4.46-3.68,4.63-3,.15-5.89-.69-8.88-.56a20.4,20.4,0,0,1-4.06-.05c-1.11-.17-2.42-.66-3.53-.22-1,0-3.89-.41-5.19-1.54s-2.44-3.56-.89-4.74c1.16-.88,3.44-.51,4.81-.56,3.38-.12,6.77-.34,10.15-.54,4.55-.27,5.37-3,5.1-7.16-.38-5.75-.6-11.48-.76-17.25-.37-12.7-.76-25.19.91-37.82.33-2.48-.24-4.85-.37-7.31-.18-3.1,1-6.22.49-9.29-.44-2.46-1-4.08-.77-6.69.29-3.22.54-6.44.67-9.67.13-3,.11-6.09.11-9.14,0-2.49.65-6-.48-8.26-2.07-4.19-9.63-4.17-13.53-4.57-2.91-.29-5.82,0-8.73-.12-3.16-.07-6.21-.81-9.36-1a35.51,35.51,0,0,0-6.51.51c-1.31.17-3.39.51-4.57-.32-2.89-2,1.46-7.55,3.94-7.83,2.32-.27,5.13.24,7.49.25,3.29,0,6.57.23,9.85.41,6.45.36,12.9.25,19.34.36,2.36,0,4.67.09,7,0,1.79-.09,3.68-.09,4.41,1.84,1,2.52-.11,6-.22,8.56-.13,3.31.11,6.68.12,10,0,2.94.78,5.88.61,8.8-.18,3.15-.79,5.8-.52,9,.13,1.53-.46,2.52-.67,4a9.31,9.31,0,0,0,.7,4,28.87,28.87,0,0,1,.95,9.72C244.21,100.88,243.61,108.18,242.71,115.21Z"/><path d="M138.93,98.5c-.16,5,3.79.52,5.28-1.06a33.67,33.67,0,0,1,4.73-4.67c1.23-.88,3.54-1.87,3.62-2.85.26-.7-.8-1.52-1.11-2.09a14.63,14.63,0,0,1-1.21-4.16,15.35,15.35,0,0,1,.47-8.39c1.31-3.57,4.91-8.8,8.41-9.24,1.55.29,3.11-.84,4.64-.29s2.06,2.15,2.51,3.44c.61,1.72.66,6,3.35,4.17s5-4.69,6.85-7.11c1.39-1.79,4.13-4.06,1.43-5.67-1.87-1.12-4.19-1.45-6.14-2.46-3.43-1.77-6.8-3.27-10.33-4.81-6.57-2.86-13.94-7.34-21.21-4.05.4-1.39-.67.25-.79.89a28.18,28.18,0,0,0-.3,4.1c-.12,3.4,0,6.8.07,10.2C139.48,75.82,139.3,87.13,138.93,98.5Zm1.47-47.62c5.63-3.55,12.63.58,17.95,2.78,6.37,2.63,12.48,6.63,19.08,8.56a95.75,95.75,0,0,1-8.66,9.58c-.5-2.4-1.29-5.59-3.44-7.06-1.93-1.31-4.51-.56-5.93-.37-4.13-.66-7.89,5.39-9.44,8.44-2.33,4.55-2.88,12.87.83,17-2.74,1.89-6.27,3.49-7.76,6.66-.45.33-1.7,1.61-2.44,2.29.27-9.06.63-18.08.35-27.14q-.19-6.32-.55-12.61C140.34,58.1,139.41,51.51,140.4,50.88Z"/><path d="M192,62.65c.05,1.21,1.8,2.12,2.53,2.89a30.88,30.88,0,0,1,2.91,3.9c.47.69,2.83,4.7,4,3.16a1,1,0,0,1-.39.17c.75-.06.75-1.38,1-1.88a5.81,5.81,0,0,1,2.26-2.35,9.27,9.27,0,0,1,7.24-.94c4.41,1.24,8.83,5.28,9.94,9.79a9.84,9.84,0,0,1-1,7.07c-1,1.77-2.9,3.5-1.62,5.62,1,1.72,3.45,3,4.93,4.29s3.24,3,4.92,4.29c-.07-.06.66.39.71.38.54-.11.14.07.73-.29s.62-2.1.67-2.74a55.45,55.45,0,0,0-.31-7.4,138,138,0,0,1,0-19.18c.26-2.88.52-5.75.73-8.64.17-2.26.86-5.45.16-7.66-.43-1.37-1.6-1.59-3.38-1.36-2.72.35-5.46.73-8.17,1.14a116.24,116.24,0,0,0-19.51,4.87C198.45,58.37,191.34,59.87,192,62.65Zm1.93.51a105.25,105.25,0,0,1,10.25-4.1c3.33-1,6.76-1.61,10.11-2.5,3.17-.84,6.34-1.44,9.57-2,1.42-.22,5-1.83,5.72-.23.43.89-.05,3.18-.08,4.11-.06,1.8-.15,3.59-.25,5.39-.2,3.78-.44,7.55-.48,11.33-.08,7.53.75,15,1.11,22.53-1.24-1.74-3-2.79-4.57-4.2-1.34-1.2-3.78-2.48-4.8-3.93-1.3-1.84.86-3.43,1.65-5.11a11.09,11.09,0,0,0,.38-8,16.23,16.23,0,0,0-11.32-10.11c-4-.85-9.47.89-10.61,5.29-1.71-1.31-2.73-3.49-4-5.2C196.38,66.17,193.9,63.15,193.88,63.16Z"/><path d="M188.2,47.46c-1.4-1.1-1.32,7.95-1.19,9.13.07.73.53,2.44.05,3.11s-2.27.49-3.21.59-1.48.39-2-.48.14-3,.22-4a46.82,46.82,0,0,0-.3-8.45c-.34-3.52-1-.92-1,1-.07,3,0,6-.24,9-.1,1.12-.54,2.76.08,3.79.85,1.42,2.53.83,3.88.67,3.3-.41,4.1-.62,4-4.08-.07-2.06,0-4.14,0-6.21C188.53,50.65,189.05,48.12,188.2,47.46Z"/><path d="M180.38,64.9c-1.84.62-3.3,2.76-4.75,4s-3.1,2.34-4.53,3.63c-1.59,1.43-2.64,2.76-2.79,5a25.64,25.64,0,0,1,0,2.63c-.21,1.17-.91,1.85-1.37,2.89-.74,1.68.25,2.56,1.27,3.93,1.39,1.85,2.66,3.77,3.93,5.7,1.54,2.33,3.22,6.59,6.63,5.31,6-2.26,3.28-12,3.26-16.66a93.39,93.39,0,0,1,.66-11.59C182.88,67.93,183.41,63.81,180.38,64.9Zm.77,1.74c-.26,7.69-.63,15.19,0,22.87.22,2.58,0,5.27-2.55,6.69-2.25,1.26-3.17-1.77-4.21-3.45s-1.87-3.12-2.89-4.64c-.72-1.07-2-2.16-2.62-3.29s-.34-1,.27-2.22a6,6,0,0,0,.73-3.39c-.06-3.41,1.13-4.79,3.74-6.87s4.83-4.79,7.39-7.09C181.09,65.71,181.13,66.17,181.15,66.64Z"/><path d="M191.07,64.54c-3.34-1.73-3.07,1.79-3.13,4.12-.1,3.81-.18,7.6-.19,11.41s-.15,7.64,0,11.46c.09,2-.05,5.73,2.6,6.19s5-2.62,6.37-4.45c2.06-2.67,4.84-4.73,6.85-7.41,1.7-2.29.09-3.81-.41-6.27-.54-2.65-1.2-5.45-4.11-6.34C196.74,71,194.65,66.39,191.07,64.54Zm1.05,3.14c2.54,2.07,3.69,5.29,6.36,7.25a10.15,10.15,0,0,1,2.41,1.58c.69,1,.43,2.73.92,3.87.58,1.33,1.76,2.35,1.33,3.88-.36,1.28-1.9,2.34-2.82,3.19-2.45,2.27-4.1,5.38-6.71,7.46-3.44,2.75-4.08.35-4.27-3-.25-4.34-.17-8.7-.2-13,0-1.8-1.72-12.5-.1-13.19C188.92,65.94,191.55,67.21,192.12,67.68Z"/><path d="M184.79,115.47c3.94-.72,8.43-3.24,8.32-7.78-.12-4.71-4.81-7.48-9.15-7s-7.63,3.73-7.23,8.17S180.3,116.29,184.79,115.47Zm-3.39-1.71c-2.74-.94-3.47-5.42-2.52-7.81,1.26-3.21,5.75-4.62,8.84-3.5,3.4,1.24,5.18,5.64,2.84,8.6A8.88,8.88,0,0,1,181.4,113.76Z"/><path d="M162,68.67c-7.78-.33-15.46,17.09-6.15,18.87,4.46.85,8.67-4.13,9.88-7.91,1-3.18,1.74-9.12-2.14-10.76A8.1,8.1,0,0,0,162,68.67Zm.62,1.66c-.06,0,.53.11.16-.08,6.38,3.07.5,14.81-4.73,16-4.18.92-5.23-3.22-4.71-6.5a12.19,12.19,0,0,1,2.37-5.54,11,11,0,0,1,2.7-2.75C159.78,70.54,161.08,70.89,162.58,70.33Z"/><path d="M204.8,71.86c-2.54,4,.66,10.92,4.2,13.35,3.12,2.15,8.92,3,9.56-2C219.32,77.3,210.33,63.07,204.8,71.86Zm.41,2.58c.23-4.23,4.08-4.81,7.07-2.63,2.8,2,4.35,5.63,4.92,9,.8,4.69-2.91,6.51-6.74,4.14A11.72,11.72,0,0,1,205.21,74.44Z"/><path d="M181,151.9c1.64,1.14,1.46-3.9,1.44-4.45-.06-2.5-.35-5-.46-7.48a119.18,119.18,0,0,1,.35-12.4c.17-2.88.07-6.14-2.31-8.15-3.34-2.83-5.27.13-7.1,2.89-1.37,2-2.58,4.2-4.06,6.17-1,1.35-2.75,2.69-2.26,4.55.2.76.91,1.4,1.21,2.13a9.72,9.72,0,0,1,.36,3.31,6.66,6.66,0,0,0,2.16,4.8A77.6,77.6,0,0,0,181,151.9Zm-.37-1.06a65.41,65.41,0,0,0-7.42-7.09c-2.59-2.19-3.18-3.7-3.34-7-.08-1.58-1.13-2.47-1.34-3.85s1.52-2.77,2.29-3.86c1.75-2.47,3.14-5.15,4.79-7.68,1.46-2.22,2.57-1.85,4.25.07,1.87,2.12,1.23,5,.95,7.57-.8,7.36.52,14.73.08,22.1Z"/><path d="M188.23,152c1.92,3.23,10.52-8.76,10.7-8.94,3.5-1.08,3.45-4.45,4.3-7.38.36-1.23,1.37-2.25,1.18-3.58-.23-1.59-2.22-3.13-3.32-4.18-2.93-2.81-5.45-7.52-9.26-9.15-2.14-.91-3.41.36-4,2.44s-.23,4.09-.23,6.09c0,2.37-.08,4.74-.08,7.11,0,3.75-.11,7.51-.11,11.27C187.45,146.8,187,151.44,188.23,152Zm.52-7.34c.36-7,.11-14.08.33-21.11.07-2.35.63-4.57,3.38-2.84,2.9,1.82,4.83,5.25,7.14,7.7,1.77,1.89,4.31,3.09,2.86,5.79a17,17,0,0,0-1.47,4.32c-.46,1.78-1.43,2-2.85,3a29.1,29.1,0,0,0-4.48,5,12.65,12.65,0,0,1-2.9,2.94c-.56.37-2.11.65-1.85,1.18C188,150.26,188.71,145.53,188.75,144.68Z"/><path d="M163.42,147.46c3.81-1.61,3.15-7.15,2.2-10.31-1.15-3.8-4.53-8.05-8.78-8.43-5.86-.51-5.79,6.75-4.44,10.51C153.84,143.24,158.29,149.63,163.42,147.46Zm.09-1.66-.9.29c-.49.25-3.8-.77-4.53-1.27a12.82,12.82,0,0,1-4-5c-1.23-2.69-2.26-8.26,1.41-9.57s7.29,3.07,8.46,6C164.88,138.68,166.43,144.12,163.51,145.8Z"/><path d="M205.28,145.43c5.8,7.3,16.34-8.4,12.5-14.15C212.25,123,199.88,138.6,205.28,145.43Zm-.18-4.75c.54-4,2.24-8.06,6.1-9.78s6.46.78,5.88,4.75c-.48,3.31-2.38,7.19-5.19,9.12C208.33,147.23,204.49,145.08,205.1,140.68Z"/><path d="M154.75,92.18c.1-.05,0,0,0,0S154.68,92.22,154.75,92.18Z"/><path d="M142.8,101.36c-1.15,1.16-5.11,5-1.7,6,.84.25,1.92-.32,2.76-.43a22.88,22.88,0,0,1,5.95.35,70.55,70.55,0,0,0,11.72.12c2.89-.1,6.23.39,8.93-.81-.61,2.46,1.47-.86,1.77-1.44.71-1.39,2.66-3,2.76-4.54-.13.38.26-.38.12-.73s-.64-.57-.91-1c-.6-.91-1.16-1.9-1.86-2.78-1.74-2.18-4.12-4.88-5.69-6.57-.81-2-3.6-1.46-5.15-1a61.77,61.77,0,0,0-6.66,2c-4,1.69-7.1,7.15-10.22,9.1C143.83,99.91,143.33,100.83,142.8,101.36Zm2,.14c2.62-2.58,5.58-4.81,8.08-7.51a5.67,5.67,0,0,1,2.81-2.08c2-.65,4.1-.85,6.09-1.57,3.67-1.33,4.92,1.32,7,4,1.28,1.65,4.89,4.75,5.07,6.13-.8,1.38-1.49,3.32-2.75,4.36s-3,.76-4.54.79c-5.07.09-10.13.92-15.2.46a40.46,40.46,0,0,0-5.9-.55c-.85,0-2.76.76-3.57.41C139.92,105.11,144,102.28,144.78,101.5Z"/><path d="M170.56,122.22c2.33-2.38,5.89-4,4.34-7.86a14.57,14.57,0,0,0-2.78-4.16c-1-1-1.09-.74-2.52-.53a64.84,64.84,0,0,1-12.91.86c-4.56-.23-9.24-1.34-13.77-1.29-4.29.05-4,3.44-1.15,5.61a73.81,73.81,0,0,1,9.77,8.42c1.1,1.2,2.19,3.94,3.75,4.39,1.74.5,3.83-.07,5.68.47,2.19.64,3,1.52,4.86-.42C167.49,126,168.87,124,170.56,122.22Zm-.27-1.42c-1.29,1.44-2.59,2.87-3.81,4.37-.72.88-1.66,2.65-3,2.6-.63,0-1.44-.68-2.08-.88a15.92,15.92,0,0,0-3.57-.57c-2-.17-2.66-.56-4-2.22a43.21,43.21,0,0,0-8.49-8.38c-1.08-.76-6-3-4.21-4.87,1.32-1.32,7.44.47,8.86.61a83.21,83.21,0,0,0,13.94.26c2.16-.15,4.43-.77,6.58-.77.84,0,.43-.27,1.15.19a7.69,7.69,0,0,1,1,1.78c.89,1.53,2,3,1,4.7C172.87,119,171.3,119.65,170.29,120.8Z"/><path d="M171,109.23c-.09-.15-.31.33-.29.31C171,109.39,171.05,109.24,171,109.23Z"/><path d="M195,100.72c.35,1.18,1.32,2.11,1.89,3.18s.54,2.26,1.12,3.15c1,1.55,3.18,1.35,4.82,1.24,5.42-.34,10.83-.6,16.26-.72,1.95,0,3.91-.23,5.86-.15.89,0,3.08,1,3.77.58.87-.53.75-2.79.75-3.64a16.91,16.91,0,0,0-.28-3.1c-.68-3.24-4.44-5.6-6.82-7.56-1.49-1.23-2.92-2.85-4.81-3.46-2.4-.77-4.61-.18-6.92-1.53-1.34-.79-2.36-2.45-4-2-1.48.4-2.67,2.58-3.66,3.64-1.69,1.82-3.46,3.56-5.19,5.33C196.52,97,194.33,98.65,195,100.72Zm33.6,6-.34-.1A.7.7,0,0,1,228.59,106.69Zm-31.37-9c2.68-3,5.51-6,8.45-8.78,1.36-1.27,1.5-1.2,2.85-.29A16.26,16.26,0,0,0,213,90.94c1.32.37,2.78.2,4.06.66A15.09,15.09,0,0,1,221,94.33a33,33,0,0,1,6.68,7.24,23.9,23.9,0,0,1,.14,4.93l-1.39-.33c-1.62-1.26-6.69-.46-8.54-.38-4.18.18-8.34.12-12.53.23-1.42,0-3,.4-4.4.36-1.61-.06-1.32-.35-1.8-1.79-.56-1.68-2.83-4.19-3.06-5.09C195.48,98.93,196.93,98,197.22,97.68Z"/><path d="M194.89,100.71v0C194.94,100.87,194.91,100.77,194.89,100.71Z"/><path d="M222.83,122.7c3.84-2.92,6.84-4.63,6.41-9.94-.31-3.86-3.49-3.06-6.51-3.21-5.17-.25-10.3.13-15.46.29-2.08.06-4.15.22-6.22.33-1,0-1.71-.53-2.33-.14-.9.58-1.48,2.38-2.07,3.27-.81,1.24-1.91,2.46-1.28,4.12.34.89,1.27,1.35,1.91,2,.93.93,1.72,2,2.56,3,1.54,1.83,3,3.69,4.62,5.47,1.09,1.22,2.18,2.2,3.2,1.86s1.93-1.34,3-1.76a8,8,0,0,1,3.4-.2C218.09,128,219.92,124.92,222.83,122.7Zm-.48-1.63c-1.87,1.67-3.5,3.83-5.87,4.9-1.81.82-3.69-.12-5.54.45-1.23.38-2.7,2.33-4,2.07s-2.34-2.81-3.07-3.71c-1.32-1.61-2.73-3.13-4.13-4.67-.94-1-3.07-2.57-3.06-4.1a9.9,9.9,0,0,1,2.17-3.73c.8-.38,3.74.2,4.8.17,2.26-.06,4.52-.21,6.77-.39,4.6-.36,9.21-.2,13.79-.52.86-.06,2.41-.77,3.14-.12s.42,2.73.33,3.51C227.32,118.4,224.68,119,222.35,121.07Z"/><path d="M228.85,158.75c1.61-2.05,1-5.19,1-7.61-.05-3.23-.15-6.46-.2-9.69-.08-5.61-.38-11.33,0-16.92.09-1.19.56-4-1-4.44s-4,2.79-4.92,3.59c-1.59,1.44-3.58,2.78-5,4.36-1.14,1.25-.76,1.78.71.79-.3,1.2.58,2.41.88,3.5.11.44.15.89.24,1.33.05.22.6,1.3.21.61.6,3.84-2.39,9.56-5.06,11.14a18.74,18.74,0,0,0-2.43,1.42,7.71,7.71,0,0,1-4.14,1.31c-3-.1-4.94-2.47-7.74-2.95s-4.45,2.26-6,4c-1.26,1.42-4.78,2.92-2.53,4.9a10.36,10.36,0,0,0,3.39,1.51c1.6.58,3.09,1.36,4.63,2.07,2.62,1.21,6,2.51,8.89,2.55,3.15,0,6.33,0,9.48-.17,1.92-.1,3.81-.5,5.71-.6.52,0,1,.06,1.54,0s1.47-.24,1.29-.11A2.62,2.62,0,0,0,228.85,158.75Zm-.52-13.5c0,2.33,0,4.66,0,7,0,1.21.45,3.75-.28,4.91s-1.85.78-2.94.77c-1.77,0-3.52.18-5.3.25-4.23.15-8.52.57-12.68-.45a50.22,50.22,0,0,1-12.32-5.09c2.14-1.48,3.62-6.55,6.76-5.55,1.66.53,2.81,2.06,4.56,2.58a12.58,12.58,0,0,0,5.48.17c1.34.09,3.08-1.46,3.48-1.69,1-.16,2.52-1.62,3.2-2.35a18.85,18.85,0,0,0,2.77-4.18c1.71-3.26,2.23-5.75,1.23-9.24a14.45,14.45,0,0,0-.58-2.24c-.19-.39-1.25-1.33-1.3-1.68-.11-.68.94-1.32,1.53-1.76,2.08-1.55,4-3.91,6.26-5.27C227.61,129.36,228.42,137.31,228.33,145.25Z"/><path d="M178.42,153.06c.85-1.81-2.34-3.3-3.33-4.24-1.34-1.27-2.19-3-3.63-4.17-2.13-1.75-2.65-.3-4.21,1.26a9.83,9.83,0,0,1-3.64,2.31c-1.23.36-2.63-.07-3.8.52.44-.2-1.06-.3-1.44-.41a12.1,12.1,0,0,1-2.43-.86,11.62,11.62,0,0,1-4.34-4.38,17.4,17.4,0,0,1-1.75-7.91,12.49,12.49,0,0,1,1.17-4.52c.51-1.11,2.18-2.57,2.11-3.81,0,0-.79-2.09-1.22-1.12-1-1.72-2.64-2.85-3.88-4.35-.91-1.11-1.62-2.84-3-3.42.54.4-.61-.69-.7-.77a10.33,10.33,0,0,0-1.28-1c-.76-.5-2-1.35-3-.84-1.22.67-.69,2.87-.51,3.9a38.06,38.06,0,0,1,.87,6c0,4.94-.44,9.9-.54,14.83s-.1,9.86-.32,14.78c-.13,3-.6,6.55,2.91,6.73a56.52,56.52,0,0,0,6-.62,43.78,43.78,0,0,0,6.8-1.27c4.35-1,8.73-1.85,13.12-2.73C170.94,156.45,177.17,155.74,178.42,153.06Zm-2-.19c-2.26,1.49-5.12,1.81-7.71,2.32-3.17.62-6.33,1.31-9.49,2-3.33.7-6.69,1.68-10.08,2.06-1.46.16-2.94.08-4.41.24a10.94,10.94,0,0,1-2.4.4c-2-.57-1.21-3.73-1.13-5.17.18-3.46.1-6.93.12-10.4q0-4.89.17-9.78c.05-1.68.1-3.37.26-5,.11-1.2.53-2.64,0-3.8-.09-.59,0-3.39-.27-4.78s-1.05-2.84-.68-4.2c1.24,1.28,3,2.16,4,3.23,1.78,1.9,3.78,3.56,5.6,5.42,1.1,1.12,1,.72.55,2-.8,2.43-2.49,4.18-2.84,6.89s.32,10.42,3.47,11.79c-.67-.52.42.58.57.74a12.24,12.24,0,0,0,1.22,1.17,9.54,9.54,0,0,0,2.61,1.61c1,.43,4.06,1.78,5,.63-1,.28,1.17.08,1.51,0a13.45,13.45,0,0,0,3-.84,7.28,7.28,0,0,0,4.23-3.67,50.81,50.81,0,0,0,4.57,4.93C174.69,150.9,177.33,152.27,176.43,152.87Z"/><path d="M164.16,26.57c.17-.14.27-.15.31-.35A.4.4,0,0,0,164.16,26.57Z"/><path d="M207.33,28.58l.18.16S207.41,28.64,207.33,28.58Z"/><path d="M256.46,37.16c0-.45-.12.49,0,.43C256.4,37.62,256.51,37,256.46,37.16Z"/><path d="M252.74,172.57c2.15,1.59,5.75-.16,8.14-.26,3.76-.17,7.47.74,11.2,1.08,6.68.61,13.44.63,20.14.88,5.79.23,12,.67,17.75-.36,6.27-1.12,3.4-7.24,3.19-11.78-.3-6.41.16-12.75-.42-19.18-.63-6.88-.83-13.78-1.08-20.69-.49-14-.48-28-1.46-42-.56-7.84-1.32-15.65-1.76-23.5-.21-4-.21-7.89-.34-11.84-.09-2.85.11-7-1.74-9.4-.65-1.31-5.66-.87-7.18-1a89.33,89.33,0,0,0-11.57.08q-5.85.36-11.69.54c-1.49.05-19.1.37-19.07,1.2,0-.17.88-.15.94-.17-.42.15-1.35.21-1.33.86a.64.64,0,0,1,.32-.22c-.76,4-.3,8.1-.5,12.11-.22,4.53-1.24,9-1.49,13.46-.51,9,.56,18.09.61,27.06,0,9.13-1.09,18.25-1.44,27.37s-1.09,17.92-1.68,26.88c-.33,4.94-.35,9.89-.42,14.83,0,2.43-.11,4.86-.16,7.28,0,1.91-.41,4.12.4,5.92C252.06,171.32,252.41,172.33,252.74,172.57Zm4.7-135c0,.22-.34.27.1.31C256.85,37.81,257.37,37.56,257.44,37.59Zm-4,130.47c.09-22.11,1.75-44.35,3.2-66.4.71-10.84,0-21.57-.19-32.41a128.54,128.54,0,0,1,.64-15.57c.51-5.22,1-10.54,0-15.74,0,0,1.63-.3.72,0a13.67,13.67,0,0,1,3.27-.23c2.18-.14,4.36-.24,6.54-.33,4.7-.18,9.4-.32,14.09-.52,7.12-.31,14.28-.83,21.4-.58,2.77.09,2.71,2,2.93,4.39.36,4,.28,8,.44,12,.37,9.09,1.29,18.16,2,27.22,1.42,17.74.79,35.56,1.85,53.32.27,4.38.78,8.73,1.09,13.11.33,4.73,0,9.43,0,14.16a47.2,47.2,0,0,0,.48,6.17c.17,1.19.73,3.22.15,4.33-1.25,2.43-8,1.68-10.33,1.64-9.56-.18-19.14.23-28.67-.82-4.59-.5-9.18-1.69-13.8-1-1.3.2-4.15,1.27-5.35.33C253.13,170.51,253.46,169,253.47,168.06Z"/><path d="M264.7,136.43a113,113,0,0,1,.42,19.38c-.27,3.46-1.68,9.85,3.91,7.5,2.68-1.13,4.54-1,7.43-.47a70.89,70.89,0,0,0,9.07.9c3.68.17,12.26,2.33,13.83-2.36a15.77,15.77,0,0,0,.35-5.22c-.07-3.6-.43-7.17-.84-10.74-.74-6.53-1.29-13.06-1.57-19.62-.56-13.26-.71-26.55-1.19-39.82-.26-7.15-.44-14.34-.3-21.5.08-3.62.41-7.21.63-10.82a19.05,19.05,0,0,0,0-4.59,3.71,3.71,0,0,0-.4-1.3c-.29-.46-1.83-1.25-.95-.82-1.22-1-4-.47-5.5-.5-2.87-.05-5.7-.24-8.55-.49-3.85-.34-8.12-.92-12-.56-4.66.44-3.78,5.32-3.49,8.94a123.8,123.8,0,0,1,0,15.41c-.46,11,0,22-.73,33S263.64,125.35,264.7,136.43Zm2.6-73.21c-.12-3.59,6-2.28,6.61.7.45,2.35-.47,4.72-1,7-.5,2.08-.27,4.25-2.67,5-.49.16-2.17.53-2.62.21s-.49-2.89-.25-3.71c.38-1.3,1.4-.91,2.39-2a7.82,7.82,0,0,0,1.32-4.74c-.11-2.13-2.4-3-3.73-1.08C267.33,64.13,267.31,63.67,267.3,63.22Zm4.89,19.59c.16,1.23,1,2.22,1.32,3.39a9.22,9.22,0,0,1-.12,4.08c-.44,2.08-1.69,5-4.2,5a1.74,1.74,0,0,1-1.9-1.24c-.17-.45-.24-2.49.23-2.84,1.15-.85,2.42,2.08,3.93-.13s.43-4.57.16-6.75c-.15-1.18.37-5.43-2.1-3.73-.93.64-1.09,3.92-2.25,2.43-.65-.83,0-3.56,0-4.59,1.3.67,2.86-.34,4.14.35C273.08,79.72,272,81.39,272.19,82.81Zm2.05,55.39c.44,1.46,0,3.21.3,4.74a33.7,33.7,0,0,1,.82,4.19c.15,2.64-1.34,5.47-4.39,5.14-1-.11-2.32-.61-2.06-1.85s2.34-1.37,3-2.4.81-4.58-.32-5.32a4.78,4.78,0,0,0-4.46-.94c0-1.59-.27-3.15-.42-4.72A18.14,18.14,0,0,1,274.24,138.2Zm-4.06-57c.85-.21,1.32,7.25,1,8.39-1.14,3.66-2.47-.74-3.88,1,0-1.52,1.42-1.2,2-2.46a1.78,1.78,0,0,0-2-2.55c0-.39,0-.78,0-1.17C269.84,85.42,268.65,81.57,270.18,81.21Zm-3,4.86c1.52.74,2,1.63,0,2.54C267.23,87.77,267.22,86.92,267.22,86.07Zm.18-19.49c.67.54,1,1.76,0,2.14C267.42,68,267.42,67.29,267.4,66.58Zm0,3a4.94,4.94,0,0,0,1.49-.92c.55-1-.05-1.6-.55-2.27s-1.29-.36-.7-1.44a2,2,0,0,1,2.24-.57c.95.68.3,2.75.11,3.67-.37,1.73-.84,2.34-2.61,2.76C267.37,70.42,267.38,70,267.39,69.6Zm25.8,93c-4.85-.11-9.87.11-14.66-.73-4-.69-6.92-1.52-10.63.41a8.63,8.63,0,0,1,2.6-5.94c2.1-1.91,5.25-2.12,7.26-3.95,2.72-2.47.88-8.55-1-11.05,1.68.79,4,2.09,5.64.58a26.66,26.66,0,0,0-.31,9.09c.23,2.13,1,2.84,3.06,3.4,4.56,1.23,8.27,3.23,9.36,8.21C294.08,162.59,293.63,162.59,293.19,162.57Zm1.61-64.78c.7,11.59.31,23.21,1.27,34.79.49,5.84,1.07,11.68,1.63,17.52.18,1.84,2,11.24-.55,12.26a41.8,41.8,0,0,0-.47-7.07c-.41-2.32-1.66-4-2.33-6.24-.84-2.7.9-6.1,1.21-8.91.53-4.85.39-12.94-5.59-14.39,1.13-1.32,2.81-2,3.38-3.79.81-2.48-1-4-1.81-6-.64-1.54,0-1.79.77-3.42a12.82,12.82,0,0,0,1-6.06,18.24,18.24,0,0,0-1.15-5.8c-.53-1.3-1.87-2.23-1.43-3.62.52-1.64,2.39-2.63,2.7-4.52.06-.4-.6-4-1.64-2.93-.09.09.87,1.33.93,1.52A4,4,0,0,1,292,94c-.88,1.56-2.69,2.45-2.05,4.27.37,1.06,1.23,2,1.61,3.1a18.17,18.17,0,0,1,.77,3.51,12.68,12.68,0,0,1-.83,7.43c-1,2.08-1.39,2.84-.09,4.93.95,1.51,2,3.28,1,5-.63,1-3.09,2-3,3.39.07,1.15,2.59,1.71,3.35,2.46,3.11,3.09,2.53,9.59,1.82,13.46-.39,2.15-1.48,4.56-1.08,6.75.46,2.54,2,4.77,2.44,7.39.25,1.47.5,3,.63,4.5.11,1.21.17,3.42-1.37,2-.39-.37-.59-1.75-.78-2.2a9.49,9.49,0,0,0-1.4-2.38,11.19,11.19,0,0,0-6-3.51c-1.59-.38-3.5-.2-4.18-1.94-.45-1.16-.15-3-.1-4.15,0-.78,1-7.57.26-7.82,0,0-2,1.48-2.62,1.49-.94,0-3-1.5-3.86-1s1.09,4.74,1.32,6,.83,3.61-.14,4.78-4.2,1.78-5.67,2.61a8.87,8.87,0,0,0-4,3.85c-.44,1-.19,3.79-.8,4.45-.79.87-.75-1-.75-1.51,0-1.73.24-3.5.34-5.24.17-2.61.2-5.22.26-7.84,0-1.45-.75-4.43.79-5.16s3,.64,3.45,1.94c.65,1.77.31,2.82-1.12,3.76s-3.05,2-1.72,3.87c.94,1.34,2.52,1.39,3.95.88a6.57,6.57,0,0,0,3.84-3.61c.86-2.46-.62-5-.77-7.44-.11-1.65.59-3.81-1.09-4.83s-5.83-1.52-7.79-1.2c-1.15-13.5.68-26.91.7-40.39,4.72,3.3,6.89-4.74,6.95-8a8.16,8.16,0,0,0-.44-2.77,9.57,9.57,0,0,1-.86-2.91c0-.79.34-1.38.14-2.19C272.68,78,271.42,77.9,270,78a7.54,7.54,0,0,1-1.68.23c-1.34-.27-1.05-.32-1-1.81,5.52,1.48,6.37-4.22,7.23-8.28.5-2.36.92-5.49-1.27-7.16-1.63-1.24-5.1-1.61-6,.7-.12-2.09,0-4.19-.2-6.28,2.29,5.93,7.65,1.08,11.71,1,2.79-.08,5.26.61,8,.81,2.52.18,4.05-1.24,5.59-3a9.84,9.84,0,0,1-.5,4.6,16.31,16.31,0,0,0-1.19,2.83,21.25,21.25,0,0,1-.25,2.88c-.37,1.13-1.88,2.06-1.7,3.37s2.09,1.88,2.81,2.94c1,1.49.71,3.07.28,4.69a5.65,5.65,0,0,0,.25,4.58,6,6,0,0,1,.18,4.2c-.74,2-2.22,1-3.34,2.36-2.47,2.88,2.88,3.51,2.81,2.91-.15-1.34-4-.36-2-2.62,1.13-1.26,2.75-1.06,3.29-3,.46-1.66-.07-2.93-.76-4.38-1.49-3.11,2-5.81-.19-8.91-.7-1-2.84-2-2.64-3.34.07-.47.8-1,1-1.4a6.1,6.1,0,0,0,.62-2.69c.21-2.29,1.6-3.72,2-5.87.23-1.1,0-2.22.1-3.32a29.74,29.74,0,0,1,1-3.58C293.25,66.19,293.85,82,294.8,97.79Zm-4.61-.28Zm-23-49.84.43.11c-.5.11,1.85.35,2,.35,2.19,0,4.35-.12,6.53-.05,3.76.13,7.49.73,11.25.76,1.23,0,5.11-.84,6-.17,1.41,1-1.26,4.44-1.91,5.29-2,2.62-4.32,2.7-7.39,2.19-3.42-.56-6.8-.69-10,.77-3,1.35-5.55,1.29-6.84-2.06A10.82,10.82,0,0,1,267.17,47.67Z"/><path d="M288.08,148.5l0,0Z"/><path d="M292.14,137.07c-2.33-.9-5.41-.48-7.45-.33-.36,0-.55,9.7-.57,10.52,0,1.46-.34,3.3.47,4.62,1.06,1.72,3.41,2,5.17,1.3,1.47-.55,3.57-2.64,2.08-4.29-.78-.85-2.24-.26-3.07-.94s-.62-2-.51-3,.09-2.17,1.08-2.53,1.75.75,2.72.08S293.61,137.63,292.14,137.07Zm0,2.36c-.13,3.39-.7,1.33-2.87,2.07-1.95.65-2.36,4.25-1.7,6,.82,2.13,5.37.74,3.43,3.84-.94,1.5-3.46,2.71-5,1.5-2.67-2.05-1.09-7.67-1-10.45.08-2-1.14-4.71,1.42-4.94C288.33,137.23,292.24,136.53,292.13,139.43Z"/><path d="M283,135.49a3.6,3.6,0,0,0-4.14-2.23c-1.19.34-2.06,2-2.23,3.34C275.92,141.53,284.55,140.41,283,135.49Zm-.7,1.17c-.17,2.33-3.62,3.64-4.8,1.3C275.42,134,282.55,132.46,282.25,136.66Z"/><path d="M282.82,131.49a9.2,9.2,0,0,1-1-6.67c.17-.79,1.56-3.46.3-3.94.27.2-1.32-.06-1.76-.08a18.73,18.73,0,0,0-3.74-.08c-1.31.23-1.32.16-1.08,1.73.32,2.08,1.17,3.75,1.11,6,0,.68-1,3.73-.7,4.31.58,1.2,1.47-.3,2.56-.53C279.26,132,283.91,133.27,282.82,131.49Zm-1,.11a5.06,5.06,0,0,0-4.69.34c1-3.48-.18-6.76-.74-10.19a15.47,15.47,0,0,0,5.3,0c-.33,2.15-1.09,4.1-.84,6.31C280.89,128.79,281,131.28,281.78,131.6Zm.84.3h0Z"/><path d="M289.87,117.94c-5.47-3.93-9.33,14-4.44,17.29,2,1.35,5.43,1.1,6.61-1.16,1.79-3.49-2.13-3.11-3.71-4.87s-1.54-4.91.35-6.26c.87-.61,1.84-.43,2.31-1.72A3,3,0,0,0,289.87,117.94Zm.39,2.25c.31,1.88-2.45,2-3.31,3.22-1.17,1.69-.75,4.55.41,6.11,1,1.38,4.38,1.56,4.16,3.41-.27,2.25-3.29,2.48-4.91,1.75-3.09-1.4-2.85-6.4-2.48-9.21a11.37,11.37,0,0,1,1.67-4.86C286.73,119.23,289.78,117.28,290.26,120.19Z"/><path d="M276,130.46c.15-3-.5-13.77-5.56-12.52a5.2,5.2,0,0,0-3.64,4,2.17,2.17,0,0,0,1.29,2.45c.78.3,2.08-.51,2.78,0s.66,4,0,4.81c-1.34,1.51-4.56.87-3.86,4,.45,2,3.22,2.64,5,2.48C274.73,135.51,275.92,133,276,130.46Zm-.74-.94c-.06,2.13-.68,4.88-3.11,5.27-1.32.21-4.65-.59-4.09-2.53.38-1.33,2.58-1.18,3.41-2.06,1-1.11,1.13-4.15.62-5.5-1-2.59-2.75.21-4.25-1.11-1.29-1.13.2-3.39,1.24-4.15C274,115.85,275.37,126.93,275.3,129.52Z"/><path d="M273.48,113.78c-1,.35-2.79,1.81-2.22,2.93.47.92,2.64,1.29,3.5,1.55a18.17,18.17,0,0,0,8.47.7c1.14-.22,3.5-.82,3.61-2.34.07-1.1-2-2.79-2.91-3s-2.17.52-3,.63a11.83,11.83,0,0,1-2.66,0C276.33,114.09,275.27,113.16,273.48,113.78Zm.51.24.26-.23c.57,2,4.49,1.81,6,1.68,1-.08,2-.66,3-.75,1.57-.13,1.48,1,2.66,1.88-2,2.34-6.9,2-9.61,1.43-1-.21-3.2-.48-3.94-1.26C271.24,115.6,273.05,114.92,274,114Z"/><path d="M271.1,98.39c1,1.74,2.34,2.91,4.36,2.41a11,11,0,0,1,6.94.11,3.51,3.51,0,0,0,4.21-1.65c.79-1.51-.65-2.22-1.93-2.74a16.25,16.25,0,0,0-7.53-1C276.07,95.63,269.71,96.05,271.1,98.39Zm1.38-.91c3-2,7.35-1.62,10.67-.67.63.18,3.17.65,3.32,1.45s-2.07,2-2.59,2.46c-.58-2.09-4.57-1.84-6.14-1.71-1.06.08-2,.69-3,.77-1.6.13-1.52-1-2.71-1.92Z"/><path d="M288.89,99.41c-1.06-1-3.22,1.06-3.64,2.08-.55,1.37.53,3.21.64,4.64.22,3.1-2.41,6.81,1.28,8.83,2.3,1.26,3.06-3.84,3.37-5.48C291.14,106.37,291.32,101.83,288.89,99.41Zm.66,3.88a18.69,18.69,0,0,1-.78,9.86c-1,2.63-2.12.41-3.32-1,2.11-.64,1.78-4.68,1.61-6.27-.1-1.08-.74-2.06-.84-3.06-.17-1.61,1-1.56,1.89-2.79A5.36,5.36,0,0,1,289.55,103.29Z"/><path d="M267.41,110.13c.54,2.25,1.3,7.35,4.33,4.31,1.72-1.72,1.07-2.14.57-4.15-.6-2.46.06-4.35.49-6.69.53-2.85-3.31-5.74-4.84-2.33A15.72,15.72,0,0,0,267.41,110.13Zm.64-2.15c.14-2.35-.22-5.81,1.82-7.5.65.93,2,1.22,2,2.48,0,1-.85,2.29-1,3.37-.16,1.61-.5,5.64,1.62,6.27-.53.63-1.13,1.83-2,2.08s-.29.35-1-.27C268.23,113.15,268,109.68,268.05,108Z"/><path d="M284.83,109.1c1.66-5.78-5.53-11.32-10.21-6.76a6.93,6.93,0,0,0,.31,9.79C278.09,114.88,283.67,113.12,284.83,109.1Zm-.59-1.51c-.49,6.68-10.71,6.47-10.77-.46C273.4,99.79,284.79,99.93,284.24,107.59Z"/><path d="M291.48,92.35c-.68-2.3-4.18-2-4.49-4.31-.2-1.43.95-2.55,2-3.25.2-.13,3-1.69,3.06-1.43-1-3.27-1.27-6.31-5.75-5.17-3.76,1-3,5.53-3.38,8.59s-.38,7.14,2.83,8.62C288,96.41,292.45,95.64,291.48,92.35Zm-.73.82c-.22,3.07-4.87,1.85-6.09.28-1.67-2.14-1.07-5.23-.73-7.67.31-2.18-.14-5.46,2.22-6.61,3.4-1.66,4.69,1.18,4.87,4-2.73,0-5.87,3.22-4.37,6C287.55,90.85,290.92,90.88,290.75,93.17Z"/><path d="M274.84,83.67c1.7,1.45,1.31,4.64.75,6.53a21.82,21.82,0,0,0-.8,2.61c0-.12.32,1.65,0,1.39.31.26,1.81-.82,2.25-.92,1.24-.28,2,.18,3.16.42,2.88.63.86-3,.88-4.82a18.92,18.92,0,0,1,.94-4.65c.35-1.38.42-1.77-1.15-2-.6-.09-1.24.12-1.85,0-.81-.11-1.38-.61-2.16-.76C275.71,81.3,273.12,82.21,274.84,83.67Zm.51-1c1-.85,4.56,1.17,6.13.69a15.5,15.5,0,0,0-.78,9.6,5.6,5.6,0,0,0-2.9-.55c-.7.06-1.67.72-2.34.38C277.44,93.76,277,81.29,275.35,82.65Z"/><path d="M279,81.68c4.45,0,3.57-7.48-.72-6.76C274.81,75.49,274.89,81.63,279,81.68Zm-.93-1c-3.29-2.62.38-6.85,2.5-3.72C281.5,78.42,280,82.3,278,80.71Z"/><path d="M282.26,65.36c-.4,3.34-.11,8.57,3,10.69,3.64,2.52,9.21-2.44,4.74-4.87-1.76-1-4.19-2.11-3.51-4.61.57-2.07,3.38-2.91,3.56-5.14s-2.61-2.71-4.29-1.94C283.59,60.47,282.53,63.16,282.26,65.36Zm.65.84a7.52,7.52,0,0,1,2.18-5.45c1.17-1,4.11-1.61,4.26.62s-3.2,2.93-3.65,5c-.52,2.35,1.41,4,3.23,4.9,1.47.72,2.85,1.63,1.81,3.47-.93,1.66-3.37,2-4.92,1.07C282.86,74,282.88,69.18,282.91,66.2Z"/><path d="M274.62,74.4c1,.18,1.64-.94,2.45-1.28,1-.42,1.81,0,2.83-.06,2.25,0,1.47-1.23,1-2.89a9.94,9.94,0,0,1-.2-5.69c.37-1.19,2.61-3.42,1.37-4.71-1.71-1.78-6.65,2.36-6.85,4.25-.23,2.16.65,3.92-.14,6.16C274.75,71,272.71,74.06,274.62,74.4Zm-.07-.94c-.35-.79,1.45-3.25,1.64-4.16.36-1.77-.53-3.41-.23-5.1.49-2.76,4.09-2.35,5.64-4.18,1.08,1-1.31,3.35-1.67,4.26a8.5,8.5,0,0,0,.32,6.46c1.12,2.2.24,1.62-1.79,1.55C277.8,72.27,274.64,73.65,274.55,73.46Z"/><path d="M52.66,46.11c0,.62-.43.92-.46,1.69-.05,1.1.36,2.4.4,3.54.09,2.51.22,5,.37,7.52.32,5.11.45,10.23.6,15.35.31,10.69.91,21.35,1.38,32s.7,21.14.83,31.72c.06,5.15.11,10.28.4,15.42.12,2.2.49,5-.09,7.13-.12.42-.77,1.27-.72,1.67a4.51,4.51,0,0,0,.88,1.27c-.42-.75,5.77-1.5,6.67-1.49a108.52,108.52,0,0,1,11.78,1.18,92.39,92.39,0,0,0,14.41.19c4.67-.16,9.73-.07,14.32-1.07-.66.64.8,1,1.22.75.64-.36.7-1.95.77-2.54a67,67,0,0,0-.15-8.26c-.11-6.45.14-12.91.21-19.36.13-12.93.5-25.85,0-38.78-.26-6.36-.62-12.72-1-19.08s-1.09-12.87-.87-19.27c.09-2.66.3-5.31.3-8,0-2,1-4.77-1.4-5.48-1.83-.55-4.07,0-5.94.09-3,.15-6.08.26-9.12.35-7,.21-14.05.77-21,1.39a36.46,36.46,0,0,1-9.62.06c-.64-.12-4.26-1.23-4.56-.44-.08.19.44.34.45.3A20.81,20.81,0,0,0,52.66,46.11Zm3.65,50.4c.13,1.09,2.63.77,3.41.81,1.72.09,3.29,0,3.86,1.81.79,2.47-.38,5.27-.19,7.78.14,1.8,1.88,3.1.17,4.33-1.1.79-2.6.69-3.81,1.09-1,.32-1.71.8-2.51-.32-1-1.45-.47-5.58-.53-7.36C56.62,101.94,56.66,99.2,56.31,96.51ZM58,112.83c-.26,0-.37-.25-.53-.41C57.67,112.51,58,112.6,58,112.83Zm44.36,46.83c-7.95,1.44-16.27,1.65-24.33,1.73-6.15.06-14.32-3.23-20.15-.34.53-3.55-.07-7.22-.12-10.8-.05-4,0-8,0-12.07q0-12.09-.61-24.17c.05,0,.5.37.16.09.39.3,1.39.39.93.48,1,.34,1.62-.61,2.44-.88a19.07,19.07,0,0,0,2.59-.62c3-1.41,2.54-2.68,1.8-5.41-.82-3,.73-6.44-.5-9.44-1.06-2.57-3.3-1.36-5.46-1.67.66-.54-1.67-.65-1.65-.52-.16-.3-.76-1.22-1.25-.81-.37-7.76-.59-15.53-1-23.29s-1.5-15.35-1.83-23c1.9.76,4.24.46,6.24.82a8,8,0,0,1,4.47,2.48c3.68,3.39,8.1,1.8,12.57,1.83,2.18,0,4.27.32,6.42-.14,2.43-.53,4.63-1.27,7.15-1.28,4.13,0,8.56.86,12-2.06-.28,2,0,2.38-1.89,3.1a22.79,22.79,0,0,0-7.62,4.92,68,68,0,0,0-5.87,6.26c-1.28,1.52-3.59,3.36-3.55,5.53s2,4,3.14,5.55a50.58,50.58,0,0,1,3.87,6.79c1.43,2.75,3.17,5.32,4.59,8.07.85,1.64,1.5,5.38,3.57,5.95.67.49,3.63.31,4.93.08.59,20-.27,40-.18,59.92a117.72,117.72,0,0,1-10-10.47c-1.46-1.74-3-3.1-4.59-4.69-1.2-1.23-.78-1.61.32-2.8,2.8-3,5.68-6.25,7.41-10a45.75,45.75,0,0,0,3.18-13c.26.19,2.74.26,2.78.4-1-.38.74-.11.76-.49,0-.73-.26-.94-1-1.2-.09,0-2.88,0-2.84-.06-1.19,1.47-1.3,4.31-1.75,6.09a39.36,39.36,0,0,1-2.7,7.92,34.34,34.34,0,0,1-4.48,6.37c-1.11,1.33-4.08,3.63-4.3,5.45-.25,2,3.12,3.68,4.29,5.09,1.8,2.15,3.53,4.34,5.35,6.48a35.17,35.17,0,0,0,5.9,5.6C102.26,157.87,105,159.19,102.38,159.66ZM99.57,94.44c-1.42-.76-1.72-3.1-2.26-4.44a34,34,0,0,0-3.54-5.79C91.2,80.32,89.29,75.82,86,72.49c-.33-.32-1.45-1-1.31-1.55.06-.25,1.9-1.63,2.19-2,1.47-1.86,2.77-3.82,4.36-5.58,3.07-3.4,6.47-7.61,10.63-9.67-.64,6.71.32,13.44.63,20.13.32,7,.82,14,.9,21C103.23,93.54,100.11,94.72,99.57,94.44Zm-44.43-50c7.24,2.26,15.08.91,22.47.32,8.52-.68,17.09.27,25.61-.48-.39,2.49-.48,4.06-2.78,5.33a14.68,14.68,0,0,1-7.51,1.64A37.32,37.32,0,0,0,84,52c-2.91.68-5.78.53-8.72.9-2.68.33-5.59,1.12-8.24.27-2.12-.68-3.27-2.72-5.41-3.47a24.5,24.5,0,0,0-3.05-.49C57.67,49,57,48.36,56,48.13s-2,.19-2.71-.88c-.54-.81-.12-2.27-.21-3.18A8.32,8.32,0,0,1,55.14,44.48Z"/><path d="M66,97.52c-.44-5.58,2.9-10.6,5.14-15.46a43,43,0,0,1,4-7.37c1.2-1.65,3.29-3.47,3.94-5,1.53-1.39-2.45-3.92-3.24-4.75-2.9-3-5.09-6.59-8.51-9.17-1.4-1.06-7.11-5.09-8.9-3.6-1.09.9-.66,4-.66,5.09,0,2.31.16,4.6.35,6.9.73,8.47,2.24,17.27,1.63,25.78-.14,2-.61,5.28,1.93,5.87.43.1,2.81-.82,3.46-.28C65.22,95.66,66.12,98.16,66,97.52Zm-.81-3.36c-1.84-.83-3.17.91-3.75-1.21-.51-1.86-.11-4.51-.2-6.46-.09-2.14-.21-4.27-.31-6.41-.46-8.89-2.32-17.81-1.6-26.73,5.28,1,9.42,5.44,12.75,9.34,1,1.14,1.87,2.41,2.91,3.49.65.68,2,1.37,2.42,2.24.71,1.62-1.72,3.39-2.74,4.61-3.29,3.94-5.46,9.24-7.36,14C67,87.64,64.54,93.89,65.16,94.16Z"/><path d="M86.84,133.6c2.69-4.26,4.23-9.11,5.72-13.89,1.58-5,3-10.13,2.84-15.46C95,94,90.23,84.36,85.14,75.66c-.85-1.46-2-3.92-4-2.71s-3.51,4.61-4.71,6.55A51.91,51.91,0,0,0,70,93.08c-2.86,10.39-.84,21.07,2.7,31.05,1.69,4.75,4,9.62,7.54,13.29C84.09,141.38,85,136.46,86.84,133.6Zm-1.06-1.88c-.92,1.87-2,3.67-3,5.48-4-2.82-6.08-8.09-7.9-12.42a67.89,67.89,0,0,1-4.4-18.09C69,94.7,74.77,83.25,81.56,73.77a41.83,41.83,0,0,0,2.2,3.7c1.12,2.12,2.39,4.15,3.46,6.31a62.29,62.29,0,0,1,5.53,16.43C94.76,111.11,90.53,122.09,85.78,131.72Z"/><path d="M82.92,72.75l.14.12A.79.79,0,0,0,82.92,72.75Z"/><path d="M80.88,139.17c-1-2.89-3.83-4.71-5.76-6.92a34.26,34.26,0,0,1-5.74-9.14c-.87-2.11-.73-4.73-1.9-6.69-1-1.66-4.7-2.52-6.27-1.07,0,.32.16.51.56.56-1.35.85-.58,4.28-.44,5.53.31,2.84.37,5.69.43,8.54.07,3.6.07,7.21.15,10.81.09,3.85.64,7.77.06,11.6-.17,1.13-1,3.54.18,4.36,1.7,1.16,5-2.81,6.09-3.75,2.76-2.38,5.16-5.16,7.9-7.58C77.75,144,81.79,141.85,80.88,139.17Zm-1.94.22c.16,2.09-3.76,3.83-5.11,4.89-3.47,2.72-6.4,6.11-9.72,9,1.15-6.42.15-13,0-19.47-.06-3.41-.19-6.82-.27-10.23,0-2.34.52-5.35-.78-7.44,2.17.05,2.81-.33,3.4,2,.76,3,1.24,5.53,2.87,8.31a44.12,44.12,0,0,0,5.39,7.88C76,135.71,78.78,137.31,78.94,139.39Z"/><path d="M73.05,57.48c2.52,1.28,3.87,5.14,5,7.48.73,1.51,1.55,2.74,3.24,1.58s3-3.28,4.58-4.6c2.28-1.88,6.42-5.81.84-5.81-2.3,0-4.57-.08-6.87-.25-.65-.05-5.61-.12-4.74.83-.54.14-1.81-.7-.83.78.66,1,2.47.82,3.48.78,3.52-.17,7-.41,10.57-.6-1.39,2.25-4.15,3.53-5.9,5.51-.22.25-1.63,2.63-2,2.7-.68.13-.68-.24-1.11-.92C78.42,63.61,78,62,77,60.73a13.05,13.05,0,0,0-2.88-3c-.25-.16-.51-.71-.88-.66S72.54,57.62,73.05,57.48Z"/><path d="M118.27,241.57c3.89-5.64-.79-14-7.45-14.31-.59,0-1.93.42-2.4.25s-.76-1.28-1.24-2.06a8.74,8.74,0,0,0-4.3-3.49c-2.9-1-7.85-.81-10.07,1.57-1.34-5.94-8.4-6.56-13-4.1a9.65,9.65,0,0,0-.22-5.92c4.33,0,9.39-.17,12.92-3a8.23,8.23,0,0,0,3-6.47c.06-2.42,1.69-3,3.74-4,4.19-2,7.66-5.24,6.85-10.34-.72-4.55-5.87-10.89-11.07-9.18a14,14,0,0,0-2-7c4.27.82,8.85-.12,13.08-.83,2.61-.43,7.9.06,9-2.91a11.41,11.41,0,0,0,.13-4.32c-.13-2.21-.2-4.42-.27-6.63-.16-4.69-.22-9.38-.11-14.08.24-9.56,1-19.1,1.46-28.65s.25-18.84.32-28.25c.08-9.57-.7-19-1.2-28.51-.24-4.64-.42-9.31-.58-14-.1-2.85.91-7.11-.48-9.71-1.73-3.23-7.92-2.15-10.91-2.32-4.59-.24-9.17-.44-13.76-.4-9.37.1-18.74.33-28.1.41-4.49,0-9,.44-13.49,0-1.09-.11-4.4-1.16-5.33-.65-.75.42-.12-.17-.44.64-.45,1.14,0,3.35.08,4.56.06,2.35.13,4.69.2,7,.35,11.68.9,23.29,1.7,35,1.29,18.83,1.11,37.77,1.93,56.63.4,9.48.92,18.8-.13,28.26-.19,1.68-.42,3.36-.5,5,0,.69-.34,2.23.59,1.73,1.11-.58,1.08-3.5,1.17-4.52.21-2.24.49-4.48.65-6.73,1.32-18.75-1-37.72-1.36-56.47s-2.29-37.73-3.2-56.59c-.23-4.74-.5-9.49-.94-14.22,2.44,1.58,6.51,1.28,9.31,1.45,4.37.25,8.76.18,13.14.26,8.23.14,16.46,0,24.7.1,3.94.05,7.88.18,11.81.43,1.94.12,3.87.29,5.82.24,1.42,0,3.44-.39,4.62.63,1.86,1.59.73,5.45.75,7.58,0,4.26.36,8.52.48,12.78.25,8.37,1.4,16.7,1.35,25.08-.06,8.63,0,17.26-.14,25.89-.25,17-2,34-1.51,51,.06,2.27.06,4.57.24,6.84.08.95.6,2.7.12,3.63-.71,1.36-3.45,1.15-4.81,1.37-2,.31-4,.62-6,.88-2.31.29-4.62.38-7,.56-1.32.1-2.69.71-4,.34-1.62-.48-2.61-1.9-4.42-2.21-2.19-.39-3.36.5-5.07,1.66-3-5.43-9.95-6.45-15.58-6a66.23,66.23,0,0,0-10.74,1.92c-2.67.71-3.86,2.54-4,5.27-6.46-1.69-14.32,6.2-15.75,11.9-.42,1.7-.15,3.48-1.25,4.93s-2.48,2.08-3.4,3.46a8.59,8.59,0,0,0,.26,10,15.9,15.9,0,0,0-7.93,5.06c-.17-4.88-3.29-7.94-7.3-10.23-1.83-1-4.42-1.88-5.52-3.81-.26-.46-1.07-4.11-.37-4.13-1.25,0-1.11,2.82-.92,3.56a7.17,7.17,0,0,0,3.3,3.91c2.88,1.9,6.44,3.09,8.36,6.14a9.34,9.34,0,0,1,1.42,4.82c0,1.93-1.27,3.56-1.5,5.46a6,6,0,0,0,5.17,6.88,14.88,14.88,0,0,0-2.7,7.22c-.17,1.76.75,3.63-.38,4.93-1.6,1.84-4.66,2.54-6.54,4.15A16.8,16.8,0,0,0,12,243.64c-1.91,5-1.52,10.51,2,14.66,2.87,3.38,8.47,6.77,12.36,2.9,3.32,7.19,7.83,13.31,14.72,17.53s13,1.69,18.59-3.05c.84,6.43,6.58,10.34,13,9.86s10-5.78,12.84-10.9c2.85,4.68,8.81,3.21,11.06-1.09,1-2,2-5,4.82-4.69s3.73,3.48,5.52,5.15c2,1.92,4.89,1.45,6.89-.3,2.23-2,3-5,3.21-7.89.08-1.09.63-9.59-.28-9.91-.26-.09-.46,9.64-.54,10.36-.36,3.11-1.66,7-5.06,7.94s-4.57-2.36-6.36-4.42c-3.89-4.5-6.77-.61-9,2.93-1.21,1.95-2.58,3.88-5.16,3.84a4.9,4.9,0,0,1-4.22-2.39c-.09-.2-.3-2-.32-2a.75.75,0,0,0-.38.57c-1.8-3.57-.94-5.7,2.11-8,2.22-1.69,5.52-3.91,5.1-7.14,3.86,1.52,10.93.48,11.3-4.64,2.45,2.69,7.85,1.7,10.65.14C118.92,250.8,120.87,245.7,118.27,241.57ZM79.52,220.82c2.91-.81,7.24-1.89,9.84.27.84.7,2.58,2.95,1.89,4.11-.5.85-2.13.66-2.93.78a7.53,7.53,0,0,0-3.74,1.59c-1.28,1-2.12,3.28-3.66,3.8-1.16.4-4.67-.76-5-2.13-.26-1.11,2.22-3.62,2.63-4.81C78.77,223.83,79,221,79.52,220.82ZM31.87,196.56c.58-2.63,2.6-4.44,4.16-6.51.78,1.33.74-2.06.82-2.69a12.48,12.48,0,0,1,2.71-6.13c2.24-2.84,5.86-6.12,9.58-6.7,1.66-.25,3.61,1.2,4.52-.63.75-1.51-.36-3.1,1.43-4.18,1.6-1,4.34-.85,6.14-1.21a34.71,34.71,0,0,1,7.66-1,27.27,27.27,0,0,1,7,1c2,.59,2.72,1.58,3.87,3.19,1,1.34,1.7,2.15,3.37,1.43,1.86-.8,2.6-2,4.89-1.28,3.49,1.15,4.78,4.91,5.08,8.19.14,1.47.28,2.51,2,2.44.81,0,1.5-.53,2.34-.42,1.23.16,2.54,1.34,3.42,2.13,3.12,2.8,5.1,7.77,2,11.34-1.53,1.77-3.72,2.64-5.73,3.72a12,12,0,0,1-2.37,1.37c-.39.06-1.3-.46-1.34-.42-2.49,0-1.1,3.58.11,2.67a1.52,1.52,0,0,1-.79.1c1.18.55,1.08-.17,1.2,1.41a4.49,4.49,0,0,1-.47,2,7.09,7.09,0,0,1-2.9,3.11,16.58,16.58,0,0,1-8.12,2.17,18.18,18.18,0,0,1-5.64-.53c-1.65-.47-3.51-2.11-5.19-2.24-1.42-.11-1.94,1-3,1.76-2,1.4-4,.18-6.12-.19-4.62-.81-9.07.86-13.67.37-1.34-.14-3.11-.32-3.95-1.5-.46-.64-.2-2.63-.69-3s-2.25.39-3,.29a12.66,12.66,0,0,1-4.18-1.7C33.86,203.17,31,200.58,31.87,196.56ZM92,257.67c-.33,5.13-7.2,5.65-8.5,10.21-1.95-4.32-3.33-8.69-1.71-13.37,2.36,1.88,5.74.89,7.66-1.13C89.59,255.07,92.1,256,92,257.67ZM118,245.81a8.55,8.55,0,0,1-6.14,6.92,13.89,13.89,0,0,1-5,.42c-1.17-.08-2.85-1.23-3.63-.9s-1.59,3-2.44,3.68a7.12,7.12,0,0,1-5.58,1.17c-1.83-.29-6.1-2.47-5.08-4.83.09-.22-1.31.16-1.28.15-1.14.54-1.66,1.51-3,1.83-.87.21-2.47.36-3.13-.42a1.49,1.49,0,0,1-.39-.79c-.06-.21,1-.71.48-1-.3-.19-.81.84-.93,1-1.92-2.48-1.55-6.45-.75-9.27A10.61,10.61,0,0,1,83,240c.17-.21,3-2,3-1.62,0-.63-1.65-.39-2-.3-1.29.4-2.24,1.84-2.87,3a14.23,14.23,0,0,0-1.47,8.68c.3,2.31,1.68,3.79,1.23,6.11-.71,3.72-.83,6.24.71,9.83,1,2.37,3.58,6.11,3,8.81-.52,2.53-3.26,5.64-5.17,7.28A12.48,12.48,0,0,1,63,281.72a6.89,6.89,0,0,1-2.16-3.17c-.27-.87,0-2.05-.35-2.85-.77-1.89-2.56.31-3.62,1.24-4.49,3.93-10.21,4.32-15.43,1.41s-10.47-8.3-12.77-13.87c-.94-2.29-1.14-4.61-4-3.5-2.5,1-4.2,1.35-6.71-.08-4.47-2.56-7-8.72-6.16-13.71,1.13-6.74,6.71-11.45,12.56-14.24,2.24,5.14,9.2,7.23,12.91,2.37-.87,2.26,8.48,2.44,9.82,2.31-1.29,1.77-2.22,4.93-1.62,7.12.33,1.2,1.89,3.3,3.38,3,2.53-.58-.66-1.41-1.19-1.68-1.58-.81-1.44-2.34-1.17-4s.82-3.66,2.45-4.55c2.08-1.13,4.42-.85,6.26-2.62.77-.74,4.56-7.72,2.26-7.76-1.61,0-2,3.27-2.39,4.3a6.09,6.09,0,0,1-4,3.9c-3.22,1.26-8.65,1.94-11.9.43-.59-.28-1.43-1.39-2-1.47s-1.5.73-2.07,1.08c-2,1.23-4.07,2.26-6.35,1-4.13-2.23-4.34-7.84-3.06-11.73A12.12,12.12,0,0,1,27.32,221c.52-.66,2-1.18,1.09-1.89-.63-.47-2.4-.05-3.28-.44A3.84,3.84,0,0,1,22.84,216c-.59-2.47.73-5.28,2.35-7.07,2-2.18,5.06-2.9,7-5.12.09.36.49,1.67.56.36,2.49,2.35,6.45,4.52,10,4.16-.09,5.36,7.77,4.6,11.22,4.31a60,60,0,0,1,6.68-.57,30.31,30.31,0,0,1,4.52,1c2.31.42,3-.25,4.8-1.48s2.22-.42,3.82.48c1.4.79,3.28.84,4,2.31,1.52,3-.56,9-2.16,11.62A11.93,11.93,0,0,1,65,231.51c-1.93,0-3.11-.72-4.82-1.3-1.22-.42-1.85-.36-.81.73a6.23,6.23,0,0,0,1.55.94c.65.34,1.22.84,1.8,1.15,1.79.94,3.27,1.24,4.05,3.56,1,3,.38,8-2.2,10.13.11-.62.29-1.84-.48-2-1.06-.17-1.16,2.05-1.26,2.61-.45,2.38-1.34,4.11-3.71,5a10.32,10.32,0,0,1-6.93.25c-2.53-1-2-2.8-2.75-4.83-.11-.3-.84,1.69-.84,1.91a4.32,4.32,0,0,0,.63,2.09,5.72,5.72,0,0,0,4,2.47c2.79.54,7.2,0,9.28-2.08,1.3-1.32,1.14-3.22,2.18-4.66s2.55-2.2,3.36-4.11c1.48-3.51,1.37-7.9-1.46-10.68A12.54,12.54,0,0,0,71,232c1-.45,2.34-1.86,3.53-1.89,2.53-.08,3.69,3.78,6.84,2.48-.45,2,.24,5.49,3,5.43s-.84-1.46-1.29-1.88c-1.79-1.69-.28-5.09,1.06-6.61a10.76,10.76,0,0,1,6.48-3.14.5.5,0,0,0-.24.57c.9.24,3.07-2.48,3.68-2.83a10.84,10.84,0,0,1,6.15-1.06,7.83,7.83,0,0,1,5.29,2.59,2.89,2.89,0,0,1,.84,2.53c-.11.56-.87.78-.69,1.57.1.43.48.1.62.29-.14-.19.66.71.53.67,1.42.41.33-.12,1.11-.74a5.61,5.61,0,0,1,6.2-.23c3.86,2.18,4.84,7.09,3.65,11.09-1-1.47-.86.81-.74,1.37C117.32,243.43,118.27,244.41,118,245.81Z"/><path d="M63.45,233.37h0Z"/><path d="M103.49,212.61c2.41-1.68,6-6.12,2.21-8.34a6.16,6.16,0,0,0-4.69-.39c-.44.13-3.1,1.17-2.21,1.87.28.22,2.49-.71,3-.74,1.16-.08,3.25.13,3.75,1.35.92,2.23-3.35,4.95-4.81,6-.71.5-.07.49-1,.74a4.46,4.46,0,0,1-2.65-.31c-1.67-1.07-1-3.65,0-5.06.76-1.1,1-.5,1.85-.95.23-.12.92.43.85-.2-.08-.82-2.31-.72-2.81-.47-3.3,1.65-2.67,7.36.87,8.12.94.2,6.37-.75,5.31-1.47C103.38,212.62,103.9,212.33,103.49,212.61Z"/><path d="M110.05,203.65a4.4,4.4,0,0,0,2.8-4.53c-.39-2-3.82-2.91-5.59-2.77C102.65,196.72,105.39,205.19,110.05,203.65ZM106.54,201c-.31-1.05-.55-4.54,1.48-4,.51.15.82,1,1.3,1.28.69.49,1.68.26,2,1.29C111.88,201.92,107.35,203.73,106.54,201Z"/><path d="M114.4,192.51c3.28-.49,5.23-6.1,1.88-7.89C112.35,182.5,107.42,193.56,114.4,192.51Zm-1.52-1.66c-1.92-.56.48-5.55,2.45-4.7C117.9,187.26,115.3,191.56,112.88,190.85Z"/><path d="M252,230.85c2.42-1.51-.66-1.24-1.82-1.59-2.39-.72-3.83-3.12-2.63-5.46s3.63-3.48,5.15-5.38a56.61,56.61,0,0,0,3.19-5.83c-1.66-.31-3.9,4.31-4.8,5.36-1.67,1.93-4.3,3.31-5.34,5.74C244.47,226.6,248.49,233.36,252,230.85Z"/><path d="M307.91,270.62s0-.1,0-.1A.39.39,0,0,1,307.91,270.62Z"/><path d="M307.92,270.64v0Z"/><path d="M358.64,235.3a33.08,33.08,0,0,0-3.21-13.87c-.89-1.84-2.25-3.25-3.22-5-.85-1.5-.45-3.36-.61-5.06-.09-.91-1-9.67-2.79-8.68-1.41.76.6,4.15.86,5,.73,2.47.67,5.17,1.21,7.7-2.54-2-.29,1.73.13,2.57,1,1.92,1.88,3.9,2.75,5.87a31.93,31.93,0,0,1,2.4,14.21c-.22,8.58-2,16.9-6.2,24.44-1.68,3-4.17,5.7-7.67,6.43-2.29.48-3.57-.23-5.38-1.31-.74-.45.13-.63-1.13-.65-.9,0-1.85,1-2.53,1.47-4,2.79-7.49,5.28-12.58,5a30.55,30.55,0,0,1-7-1.26c-1.57-.48-4.23-2.06-5.69-1.83-.45.23.19.56.32.68-2.6,2.26-5,4.91-8,6.63-3.28,1.86-7.34,2.29-11,2.16-3.32-.11-6.61-.91-9.13-3.2-2.33-2.12-3.49-5.42-6.21-7.14,1.27-1.25-.11-.88-.91-.69a15.79,15.79,0,0,1-4.17.34,14,14,0,0,1-8.71-2.82,8,8,0,0,1-3.25-8c.16-.86,3.16-7.77,3.22-7.73-.37-.22-1.42.45-1.66.61-.83.57-1,1.08-2.3,1.09-3,0-4.76-2.3-5.75-4.83-1.27-3.24-1.22-6.67-.84-10.08.15-1.34.06-3.16.65-4.41.14-.3,1.41-1.52,1.36-1.7-.23-.73-1.47.56-1.65.76a6.86,6.86,0,0,0-1,3.33c-.58,3.26-1,6.5-.31,9.78.92,4.3,3.72,9,8.8,8.14-2.53,4.54-3,9.41,1,13.24a14.78,14.78,0,0,0,12,3.87c1.78-.18,2.81-.74,4,.85,1.44,1.89,2.54,3.94,4.26,5.64a16,16,0,0,0,11.15,4.27c3.94.09,8.37-.65,11.74-2.81a32.51,32.51,0,0,0,5.12-4.4c1.21-1.2,1.82-2.31,3.53-1.74,2.42.8,4.44,1.87,7,2.33a24.1,24.1,0,0,0,6.88.48,19.67,19.67,0,0,0,12.27-6.79c5.54,6.27,14.92-2.38,16.72-7.85.51-1.56.62-3.12,1.41-4.57a19.58,19.58,0,0,0,2.16-5.19A61.3,61.3,0,0,0,358.64,235.3Zm-8.89-31.56c-.09-.35-.54-.19-.78-.36C349,203.39,350.15,203.35,349.75,203.74Zm-41.38,67a.3.3,0,0,1,0-.09A.78.78,0,0,1,308.37,270.7Z"/><path d="M348.87,193.49a16.43,16.43,0,0,0-5.24-4.27c-1.13-.6-4.93-2.24-5.87-.44-.82,1.57,2.57,1.45,3.55,1.75A12.94,12.94,0,0,1,348,195a13.36,13.36,0,0,1,2.14,5.91c.07.4.43,3.91,1.06,3.77s.14-4,.08-4.51A12.91,12.91,0,0,0,348.87,193.49Z"/><path d="M16.2,26.13c1.49.58,3.36.2,4.93.22,2.48,0,4.94.17,7.41.43,4.86.52,9.77,1,14.59,1.85,4.53.79,9-.81,13.55-.86,5-.06,10,.27,15,.32,9.92.11,19.85.41,29.76.46s19.49,1.49,29.29,1.72c5.31.12,10.76.41,16.06.1,1.9-.11,4-.4,5.15-2.07a8.3,8.3,0,0,0,1.19-2.52.45.45,0,0,1-.1.27.94.94,0,0,0,.71-.16,3.39,3.39,0,0,0-.39.27c1.74.15,3.46-.23,5.21,0s3.5.79,5.32.64c-.23,0-.25-.14-.43-.16a3.13,3.13,0,0,1,.68.12c.06-.2,0-.21-.13,0,.34-.11.19-1.09.2-1.31a.64.64,0,0,1,.26.84c.38-.4-.36-3.13-.41-3.79-.1-1.36-.07-2.72-.12-4.08-.07-2.14-.55-4.33,2-4.52,2.89-.21,6,.21,8.88.27,3.68.07,7.35.14,11,.32,3.47.16,6.92.48,10.38.75a61.09,61.09,0,0,1,8.11.72c2.79.61,2.93,1.63,2.67,4.26-.14,1.44-1.3,7.64.51,8.48,1.31.62.66-.47,1.48-.87s2.5.15,3.33.2c3.26.22,6.46-.13,9.72.16,7.36.65,14.24-.75,21.52-1.38,6.94-.61,14,.33,20.91.41,7.47.1,14.95.06,22.42,0,7-.08,14.14-.74,21.07-.09,2.15.2,4.9.33,6.61,1.81s1.79,4.47,1.89,6.67c.14,2.9,2.31,9.4.33,11.76-1.61,1.93-4.35.67-5.35,3.63-.81,2.37-.14,5.17.05,7.59.27,3.36.33,6.74.73,10.09a12.81,12.81,0,0,0,.84,3.71c.65,1.45,1.86,1.93,2.7,3.15,1.27,1.84.84,4.8.74,6.92a5.43,5.43,0,0,1-.8,3.31c-.87,1.14-2.3,1.43-3,2.81-1.07,2.19-.48,5-.42,7.38.08,3-.3,7.13,1.32,9.78,1.15,1.87,2.82,2.14,3.37,4.52.71,3.1.51,6.51.77,9.68s1.1,7.61.29,10.82c-.39,1.59-1.25,1.39-2.29,2.31-1.36,1.22-1.15,2.79-1,4.45.25,3.91.73,7.8.73,11.73,0,3.66-.57,8.12.85,11.61,2.44,6,10.12,0,13.18,4.17,2.22,3-2.13,3.41-2.94,5.45a4.62,4.62,0,0,0-.07,2.55c.33.63,1,.5.77,0,.08,0,.19.41.3.22.63-1.13.22-2.26,1.66-3.29.69-.49,1.37-.43,1.91-1.21a4,4,0,0,0,.29-3.32c-1.37-4.49-6.13-2.89-9.56-2.93-5.09-.07-4.65-5.06-4.72-9a148.14,148.14,0,0,0-.75-15.48c-.23-1.87-.44-3,1.09-4.2,1.71-1.32,2.23-2,2.39-4.38a94.5,94.5,0,0,0-.6-14.56c-.18-2.06-.24-4.92-1.2-6.78-.84-1.61-2.66-2-3.28-3.8a24.87,24.87,0,0,1-.72-6.09c-.13-2.42-.5-5.32-.09-7.72s2.51-2.39,3.51-4.31c.89-1.72.87-4.43.89-6.33s-.13-4.09-1.57-5.63-2.45-2.22-2.88-4.57c-.81-4.48-.54-9.24-1-13.77-.14-1.47-.55-3.58.31-4.92,1-1.59,3.29-1.18,4.54-2.5s1-3.67.9-5.33c-.14-2.76-.61-5.49-.81-8.25-.31-4-1-7.25-5.26-8.56-4-1.24-8.5-.84-12.62-.79-5.82.07-11.64.21-17.46.27-6.34.07-12.68-.07-19,0-6.19,0-12.44-.58-18.6-.06-6.47.55-12.76,1.77-19.28,1.75a29.81,29.81,0,0,1-8.07-.83,26.11,26.11,0,0,0-9-.55,52.11,52.11,0,0,1,.47-5.71,11.8,11.8,0,0,0,0-2.45c-.09-.66-1.12-2.46-.29-1.71-.61-1.45-2.9-1.47-4.19-1.61-2.11-.21-4.2-.55-6.32-.72-5.86-.47-11.78-.8-17.65-1-3-.12-5.91-.17-8.86-.24-2.2,0-4.84-.64-7-.1s-2.13,2.06-2.18,4c-.06,3-.32,6,.3,9-1.83.08-3.62-.53-5.42-.75a10.37,10.37,0,0,0-2.36-.09c-.86.11-1.81.78-2,.32.26.16-1.32,2.41-1.43,2.56a4.16,4.16,0,0,1-3.52,1.8c-4.6.39-9.44,0-14.05-.15-10-.25-19.9-1.46-29.88-1.92-10.38-.47-20.81-.58-31.2-.7-5.07-.05-10.15-.33-15.22-.33-4.52,0-9.16,1.44-13.64,1-5.3-.6-10.57-1.43-15.89-2a55.16,55.16,0,0,0-7.92-.3c-.12,0-4.92.48-4.42,1.32Z"/><path d="M8,159.17a16.37,16.37,0,0,1,5.85,1.18c3,.94,6.15.49,9.26.74a49.57,49.57,0,0,1,8.56,1.55c2.32.59,4.84,1.5,7.26.92,5.05-1.23,4.42-8.51,4.34-12.49-.12-6.28-.75-12.56-1-18.84-.5-13.46-.37-26.93-.88-40.39-.51-13.27-1.72-26.5-2.31-39.76-.22-4.95.2-12.33-3.81-16-1.84-1.68-4.08-2-6.37-2.67-1.11-.32-1-.18-1.42-1.08C27.3,32,28.05,30.6,27,31c-.75.28-.83,3.17-.89,3.76a13.9,13.9,0,0,0,.53,6.18,51.77,51.77,0,0,1,2.15,7.23c.55,2.73,2.24,5,2.24,7.89a19.91,19.91,0,0,1-.77,3.76A16.64,16.64,0,0,0,30.37,64a7.35,7.35,0,0,1-2.17,6.1C24.41,74.55,26,82.37,26.15,87.8c.43,13.46.62,26.89.81,40.36.07,4.94,1.44,11.36-.28,16.15C24.63,150,18.47,147.84,14,147c-4.26-.78-7.23.28-8.78,4.45C4.27,154.15,3.89,159.18,8,159.17Zm-1.29-2.95c-.8-1.47-.1-3.8.58-5.19,1-2.1,2.56-2.64,4.81-2.52,4.36.23,9.53,2.68,13.55-.08,3-2.07,3.18-6.32,3.2-9.62,0-5.53-.33-11-.36-16.58,0-11.53-.07-23-.59-34.56-.12-2.69-.3-5.38-.39-8.07-.06-2.16-.39-4.81.54-6.84.68-1.5,2.14-2.37,3-3.72,1.42-2.23.67-4.68.6-7.13-.08-2.62,1-5,.67-7.69s-1.77-4.71-2-7.25c-.28-2.7-1.92-4.39-2.74-6.87-.71-2.17-.14-4.51-.09-6.73,3.33,1.48,7.42,2.43,9.06,6.06,2.2,4.89,1.45,11.78,1.59,17,.31,12.38,1.49,24.72,1.74,37.1s0,25,.39,37.46c.16,5.69.54,11.35.91,17,.21,3.16,1.51,12.13-2.45,13.56-1.94.7-4.35-.38-6.22-.88a39.54,39.54,0,0,0-9.68-1.79c-3.36,0-6.07.26-9.24-1.08a8.79,8.79,0,0,0-4-1C8.4,156.87,7.42,157.58,6.69,156.22Z"/><path d="M317.19,53.86a6.56,6.56,0,0,0,.68,2.88c.28.67.55.59.46,1.32s-.95,1.74-1.19,2.51a9.74,9.74,0,0,0-.41,2.88,7.75,7.75,0,0,0,5.65,7.69c-.48-.59.33.5.4.68a4.34,4.34,0,0,1,.15,1.86,14.91,14.91,0,0,1-1,4c-1.1,3-3.41,5.61-2.55,9,.53,2,1.57,2.55,3.05,3.78,1.24,1,1.17,1.76.81,3.32-.77,3.24-1.84,6.44-2.16,9.78a8.34,8.34,0,0,0,.69,4.88c.67,1.21,2.25,1.76,2.79,3,.67,1.47-.54,3.64-1,5a18.94,18.94,0,0,0-1.36,6.1,3,3,0,0,0,.69,2.22,2,2,0,0,0,.91.45c.24.07,1.57-.09.85-.14,2.48.83-1.68,8.39-2.3,9.77-1.37,3.06-3.56,7.55-1.75,10.86.85,1.55,1.27,1.45.11,3.05s-2.21,3-2.3,4.95c-.18,3.48,3,5.86,6.08,6.72,3.43,1,6.49-.37,8.74-3a6.15,6.15,0,0,0,1.67-4.88c-.32-2.25-1.77-3.26-3.2-4.79-2.51-2.66.24-3.75,2.63-4.75,2.89-1.2,5-3.44,5.26-6.7a7.88,7.88,0,0,0-1.17-4.58c-.8-1.32-2.55-2.5-2.27-4.22.31-1.91,2.67-2.67,3.81-4a7.24,7.24,0,0,0,1.6-4.63,4.78,4.78,0,0,0-1.83-4.2c-.62-.48-3.24-1.12-3.25-2s2.69-2,3.23-2.71a4.56,4.56,0,0,0,.69-4.13c-.45-1.9-2.67-6,.31-6.73,1.42-.37,2.78.27,4.27-.32a7,7,0,0,0,3.5-3.45,14.5,14.5,0,0,0,1.34-10c-1.08-3.75-4.13-4.2-7.1-5.79-4.61-2.46-.67-8.38.25-11.69,1.26-4.6-2.61-5.93-6.05-7.24-2.46-.94-1.83-2.17-.76-4.23A16.92,16.92,0,0,0,338.24,50c.28-4.21-2.6-7.1-6.13-8.9,5.29-3.14,3.46-9.9-2-11.6a7.92,7.92,0,0,0-5,.17c-.37.11-4,1.12-3.56,1.82.05.08,2.88-.82,3.11-.88a8,8,0,0,1,4.76-.06c5.05,1.53,6,6.76,1.57,9.67-.07-.21-.25-2-.62-2-.55,0-.48,2.44-.39,2.73-1.41-.27-.64.8-.08,1.19s1.5.38,2.06.7c2.05,1.18,4.06,3,4.49,5.43.36,2.09-.42,3.83-1.33,5.64-.64,1.26-2.3,3.62-1.74,5.13,0,4.8,10.17,2.69,7.43,9.66-1,2.64-2.23,5.07-1.89,8,.42,3.7,2.73,4.32,5.76,5.56,3.47,1.42,4,4.68,3.52,8-.31,2.46-1.1,5.89-3.65,7-2.29,1-5.59-.77-6.74,2.27s2.58,6.37.65,9.25c-1.07,1.59-5.06,2.61-3.25,5.23,1.49,2.15,4.49,1.19,4.64,4.53.18,4-3.13,4.32-4.81,7.26-2.08,3.65,2,5.87,2.77,9.19.94,4.24-2.56,5.62-5.63,7.11-3.45,1.67-4,4-1.5,6.67,2.81,3,3.3,5.79,0,8.69-2.46,2.13-5.49,1.93-8.15.23-4.2-2.69-1.76-5.6.19-8.77,1.18-1.91-.07-2.42-.68-4.27s-.06-3.77.48-5.49c1.11-3.56,3.08-6.79,4.13-10.37a7.39,7.39,0,0,0,.5-3.68,2,2,0,0,0-.68-1.21c-.34-.25-2-.39-1-.09-1.84-.56-1.73-1.07-1.4-3a35.16,35.16,0,0,1,1.74-5.38c.53-1.52,1.18-3.34.27-4.82s-2.58-1.86-3.22-3.58c-1.34-3.61.95-9.07,1.75-12.63.3-1.34,1-3.28.06-4.48s-2.76-1.11-3.53-3c-1.94-4.64,7.79-14.55,1-17.34-3.47-1.44-5-4.7-3.85-8.5.36-1.18,1.8-2.72,1.41-4-.26-.86-1.11-1.28-1.3-2.3a7.75,7.75,0,0,1,.5-3.66c.77-2.3,2.5-4.06,3.37-6.25s-.83-4.23-1-6.46a8.31,8.31,0,0,1,.71-4.36c.11-.23,1.63-2.89,1.59-3-.37-.69-2,2.22-2.16,2.48a9.15,9.15,0,0,0-.77,6c.2,1.13,1.15,2.56,1.16,3.59s-.58,1.45-1.11,2.2C319,47.85,317.23,50.74,317.19,53.86ZM330,42s.27-.18.32-.21Z"/><path d="M12.56,164.64c2.76.16,7.3.49,8.92,3.18,1,1.72.41,4-.39,5.68-.59,1.25-1.94,2.59.17,2.85,1,.13,1.66-.54,2.73,0a3.7,3.7,0,0,1,1.71,2.3A4.5,4.5,0,0,1,24.54,183c-1.91,2.1-4.79,2.92-7.5,3.18-1.28.12-6.6.06-7,1.89-.34,1.36,1.34.38,2,.19a50.42,50.42,0,0,1,5.91-.89c3.3-.58,7.22-2.15,8.56-5.51a4.66,4.66,0,0,0-5.2-6.53c1-2,2-4.54,1.25-6.8-.84-2.6-3.48-3.42-5.89-4a15.2,15.2,0,0,0-6-.35c-.3.05-4.26.79-4.07,1.13C6.82,165.8,11.85,164.59,12.56,164.64Z"/><path d="M246.28,207.91a8,8,0,0,0,.28-2.06c.89,3.64,6,5.43,9.36,5,.77-.09,3.24-.83,2.07-1.84-.63-.54-3.77,0-4.64-.15-4.78-.87-6.42-4.51-4.63-8.9a11.76,11.76,0,0,1,3.22-4.59,10.62,10.62,0,0,1,2.35-1.43c1-.47,2.43-.45,3.34-.94.68-.37.87.11.55-.63-.26-.59-2.43-1-3-1.24-2-.69-4.89-1.25-5.27-3.75-.62-4.14,3.39-7.57,7-8.21,4.82-.85,10.67-.22,15.45.71a61.73,61.73,0,0,1,8.17,1.92c1.66.58,1.94,1.41,3.3.37,4.74-3.61,10.3-2.81,16-1.91a47.8,47.8,0,0,1,6.56,1.68c1.27.39,4.11,1.54,5.27.36.2,3.25,2.18-.57,3.12-1.35,2.31-1.94,5.88-1.58,8.65-1.11a19.2,19.2,0,0,1,9.46,4.27c.6.53,4.44,4.76,4.86,4s-2.1-3.63-2.59-4.22a18.63,18.63,0,0,0-7.7-5,19.25,19.25,0,0,0-9.89-1.29c-2.24.39-5.72,1.72-5.91,4.41-.52-.57-1.84-.5-2.51-.69-1.53-.44-2.95-1.25-4.46-1.76a44.14,44.14,0,0,0-9.48-1.75c-2.93-.32-13-1.12-12.92,4.13-.82-.17-1.5-1-2.19-1.4a18.41,18.41,0,0,0-3.32-1.44,34.1,34.1,0,0,0-6.85-1.6c-4.22-.61-9.74-1.57-13.82,0a12,12,0,0,0-7.45,8.45c-.94,4.61,2.58,5.5,6.21,6.71-5.36.92-8.1,6.06-8.5,11.08-.47-2.6-1.93-3.34-3.51-5.09-1.07-1.19-.83-2.47-1-4-.42-4.4-2.47-6.59-6.92-7.27-9.79-1.48-20.12-.36-30,0-10.58.36-21.18.51-31.76,0-11-.5-22-1.85-33-1.13,0-1.49.23-3,.2-4.48,0-.54-.62-3-.7-2.63a.73.73,0,0,0,0-.56c-.95-.48-.52,7.33-.67,7.59-.3.49-2.19.69-2.78.76a23.64,23.64,0,0,1-2.38.06c-.82,0-1.08.22-1.16-.33.43.51-2.07.21-2.17.28-.54.37.86,1.3,1,1.48.38.73.22.59.24,1.51,0,2.17-.36,4.43-.41,6.61-.11,4.91.05,9.83,0,14.75-3.17-.79-7.21-1.83-7.58-5.69a9,9,0,0,1,2.18-6.35,4.09,4.09,0,0,1,2.71-1.71c.2,0,1,1,1.08.41s-1.67-.93-2-.91c-1.67.09-3.07,2-3.8,3.35-1.39,2.45-2.14,6.1-.4,8.57a7.7,7.7,0,0,0,3.9,2.46c.89.32,3.18.41,3.77,1.08s.33,3.14.32,4c-.05,2-.34,4-.54,6a226.5,226.5,0,0,0-1,27.44c.08,3.49.51,7,.63,10.45.1,3.19-2.57,1.78-4.25.34-2.57-2.19-4.47-6.18-3.72-9.57a7.59,7.59,0,0,1,3-4.59,3.8,3.8,0,0,1,1.9-.84c.41,0,.69.92.91.83.81-.32-.84-1.28-1.12-1.34-1.31-.26-2.89,1-3.71,1.91a8.38,8.38,0,0,0-2,7.35c.8,3.81,4.24,10,9,8.76.35,6.05.11,12.11.31,18.16.16,4.67,2.45,6.4,6.93,6.87a241,241,0,0,0,36.44.77c12.47-.6,24.93-1.63,37.43-1.63,5.4,0,10.78-.06,16.18-.19,3.1-.07,7.32-.07,9.4-2.79,1.57-2,1.61-5.4,1.83-7.87.31-3.25.35-6.53.63-9.79.6-7.15,1.62-14.25,1.86-21.43,1.44,3.68,2.72,7.23,1.67,11.15-.13.5-2.1,6.78-2.38,6.62,1,.58,3.42-6.47,3.53-7.38a16.09,16.09,0,0,0-1.52-8.53,16.58,16.58,0,0,1-1.2-8.4c.31-6.11.41-12.24.12-18.36-.09-1.95-.61-4.17.06-6.06C242.67,211.81,245.47,210.58,246.28,207.91Zm-6.19-9.19c-.19,16.15.23,32.33-.52,48.47-.37,7.82-1.49,15.57-2.13,23.36-.27,3.26-.48,6.53-.84,9.77s-2.39,4.5-5.65,4.9c-6.79.84-13.94.21-20.77.31-8,.12-16.06.72-24.09,1.1-15.66.75-31.73,1.39-47.37-.06-2.63-.24-5.58-.46-6.07-3.47-.6-3.72-.1-7.8-.13-11.57q0-3.21-.16-6.39c-.07-1.52-.3-2.28.69-3.39.27-.31,1.93-1.2,1.69-1.74-.37-.78-2.17,1.06-2.59,1.3-.77-13.73-.34-27.42.09-41.15.08-2.45,0-4.9.21-7.34,0-.51.5-.59.48-1.09,0,.38-.67-.79-.65-.72a9.31,9.31,0,0,1,0-2c0-6.82.17-13.64,0-20.45,2.08.69,4.1-.53,6-.15.73.14.54,1,1.38.95.17,0,0-.86.39-1,1.48-.65,3.61-.18,5.19-.17,2.89,0,5.77.1,8.66.24,11.33.56,22.64,1.1,34,1.38s22.38-1,33.61-1c2.91,0,5.82.16,8.72.32,2.1.13,4.52,0,6.55.65C240.65,190.91,240.13,195.56,240.09,198.72Zm5,10a19.42,19.42,0,0,1-3.44,4.12c0-4.77.3-9.53.38-14.3A7.88,7.88,0,0,1,245.07,208.74Z"/><path d="M198.12,235.22c0-2.93-4.54-5.47-6.89-6.51a15.78,15.78,0,0,0-10.73-.41c-8.53,2.88-11.85,10.61-10.48,19.18,1.13,7.05,11.52,11,17.79,9.59,3.81-.87,7.26-4.12,9.12-7.5C199.35,245.17,198.17,240,198.12,235.22Zm-.58,7.92c-.42,6.85-5.53,13.8-12.89,13.51a19.1,19.1,0,0,1-10.26-3.74c-3.5-2.58-3.95-5.41-3.72-9.6s.8-7.1,3.68-10.13c3-3.19,5.67-5.12,10.19-4.59,3.9.47,7.84,1.25,10.75,4.11S197.76,239.5,197.54,243.14Z"/><path d="M189.47,26.26c3.17-.05,3.54-3.4,2.65-5.78-1.6-4.31-5.61-4-9.37-2.67-1.86.66-3.48,1.6-4,3.69s.8,2.87,2.07,4.16,2.3,3.14,4.66,2.26c.87-.33,1.33-1.17,2.15-1.53S188.62,26.27,189.47,26.26Zm-1.19-1.17c-.93-.45-2.18,1.72-3,2-1.87.76-2.93-.78-4.13-1.9s-2.19-1.76-1.81-3.51a4.93,4.93,0,0,1,3.41-3.53c-.52.4,1.48-.1,1.78-.16a6.7,6.7,0,0,1,4.74.47A4.23,4.23,0,0,1,191.59,23C191.25,24.71,190,25.91,188.28,25.09Z"/><path d="M169.18,20.45c-.54,1.07.35,2.75,1.65,2.14s.67-2.4-.34-2.89a1.42,1.42,0,0,0,.6-.42C170.9,18.54,169.3,20.21,169.18,20.45Zm1.55.55c.32,1.17-1.78.91-.74-.81C170.26,20.41,170.62,20.63,170.73,21Z"/><path d="M199.8,20.26c.06-.12,1.08-1.35.91-1.49-.4-.33-2.12,3.35-2,4,.73,2.6,5.29.52,3.85-1.91-.25-.41-1.73-1.65-2.09-.88-.16.34,1.45,1.15,1.56,1.48C202.77,23.56,198.11,23.68,199.8,20.26Z"/><path d="M207.72,216.87c.43,1.66,2,.91,2-.41,0-.48-1-2.68-1.55-1.93-.22.29,2,2.18.85,2.83-1.35.79-.74-2.59-1.18-2.62S207.66,216.64,207.72,216.87Z"/><path d="M158.37,219.8c2.72-1.34-.59-4.78-2.46-3.19C155.05,217.33,156.53,220.7,158.37,219.8Zm-1-.69c-1.19-.43-1.42-2.4.28-1.86C158.83,217.64,158.62,219.57,157.34,219.11Z"/><path d="M160.07,259.78c-.21-.29-1.81-2.25-2.18-1.86s.69,1,.85,1.18c-1.19.84-1.66,4.44.55,4.21C160.75,263.15,160.74,260.71,160.07,259.78Zm-.15,2.07c-.32,2-1.79.33-1.69-1C158.44,258.32,160.2,260,159.92,261.85Z"/><path d="M211.09,259.36a25.63,25.63,0,0,1-1.65-2.19c-1.69-.59-2,4.42-1.49,5.29C209.64,265.5,212.69,261.74,211.09,259.36Zm-.23,2.84c-.56,1.37-2.14.77-2.69-.26s.06-2.8.76-3.72C210.16,259.18,211.56,260.47,210.86,262.2Z"/></g></g></svg>