<svg xmlns="http://www.w3.org/2000/svg" viewBox="0 0 178.78 115"><title>points ui</title><g id="Layer_2" data-name="Layer 2"><g id="Layer_1-2" data-name="Layer 1"><path d="M109.28,27.72c-2.7-3.77-10.55.4-12.45-4.45-1.35-3.37-4.46-15.09-8.66-7.41-1.35,2.43-1.76,7.28-3.79,9C82.08,27,76.94,26,74.09,26.78c-6.9,1.75.54,9.16,4.2,10.51l.54.27c.14.27.14.53.27.67a7.72,7.72,0,0,1-.27,3.5C78,44.29,75,52.11,80.32,51.44c3.92-.41,6.23-4.86,9.74-5.39,1-.14,4.06,2,5.28,2.69,1.63.81,5.42,3.23,7.45,2.7,5.55-1.35-2.3-10.92-2.3-13.48C101.84,35.4,112.26,31.9,109.28,27.72ZM102.11,49c-1.35-.13-5.14-2.29-5.55-2.56-1.89-.94-4.19-3.1-6.5-3-3.38.13-6.76,6.06-10.28,5.52-.68-1.35,1.22-5.39,1.49-6.74.54-1.88,1.08-3.77-.14-5.39a4.89,4.89,0,0,0-1.76-1.48,6.31,6.31,0,0,0-1.62-1.75c-1.36-1.08-3.66-2.16-3.93-4,1.36-1.08,4.74-.68,6.36-.81,2.17-.27,4.74-.41,6.37-2.16C89,24,88.44,18.15,91.28,15.86c2.71,1.48,2.44,8.49,4.47,10.65C97.1,28,99.13,28,101,28.26c1.35.27,4.87.13,6.36.94-1.35,3.64-8.12,4.31-9.2,8S103.19,45.24,102.11,49Z"/><path d="M167.45,32.7H123.73a33.43,33.43,0,0,0-66.84,0H11.33A11.34,11.34,0,0,0,0,44v59.64A11.34,11.34,0,0,0,11.33,115H167.45a11.34,11.34,0,0,0,11.33-11.33V44A11.34,11.34,0,0,0,167.45,32.7ZM90.31,2.4a31,31,0,1,1-31,31A31.08,31.08,0,0,1,90.31,2.4Zm86.07,101.27a9,9,0,0,1-8.93,8.93H11.33a9,9,0,0,1-8.93-8.93V44a9,9,0,0,1,8.93-8.93H56.92a33.44,33.44,0,0,0,66.79,0h43.74A9,9,0,0,1,176.38,44Z"/></g></g></svg>