<svg width="251" height="135" viewBox="0 0 251 135" fill="none" xmlns="http://www.w3.org/2000/svg">
<g clip-path="url(#clip0)">
<path d="M78.8001 39.2C79.0001 41.9 79.3001 44.7 78.2001 47.1C76.6001 50.6 80.1001 50.7 81.2001 52.3C81.6001 52.9 82.0001 52.7 84.1001 49.3C86.4001 45.6 90.3001 43.6 93.6001 44.4C97.6001 45.4 100.8 49.7 100.7 54.1C100.7 55.6 100.4 57.1 99.9001 58.5C99.3001 60.7 98.8001 62.6 100.9 64.3C103 66.1 104.9 65.4 106.7 64.2C107.1 63.9 107.5 63.7 107.9 63.5C107.3 63.6 106.7 63.7 106 63.7C101 63.9 99.6001 63 100.8 58.1C101.5 55.3 101.6 52.5 100.8 49.7C99.8001 46.4 96.9001 43.3 94.3001 43.8C90.5001 44.4 85.2001 43.4 83.3001 48.9C82.8001 50.5 81.2001 51.2 79.6001 50.6C78.0001 49.9 78.5001 48.4 79.0001 47.1C80.0001 44.3 79.5001 41.5 79.5001 38.7C79.5001 35.3 75.0001 30.5 72.4001 30.8C71.8001 30.9 71.2001 31 70.6001 31.1C70.9001 31.1 71.2001 31.2 71.5001 31.3C75.2001 32.3 78.4001 34.6 78.8001 39.2Z" fill="white"/>
<path d="M117.7 72.9999C117.3 74.5999 116.9 76.1999 116.7 77.8999C115.2 87.2999 113.9 96.6999 109.7 105.4C99.2002 127.5 82.0002 132.7 63.4002 131.6C58.0002 130.3 48.5002 128.4 48.0002 128.3C40.0002 125.3 33.8002 120.1 29.4002 112.8C25.5002 106.3 21.2002 99.9999 17.4002 93.3999C12.7002 84.9999 6.3002 77.6999 2.0002 69.1999C1.3002 67.8999 0.600195 66.5999 0.200195 65.1999V65.2999C0.700195 68.7999 2.0002 71.8999 4.1002 74.7999C11.6002 84.8999 18.0002 95.5999 24.5002 106.4C30.3002 116.2 36.5002 125.2 47.6002 129.6C47.8002 129.7 48.6002 129.8 49.8002 130.1C51.4002 130.5 52.9002 131 54.5002 131.3C67.0002 133.8 84.8002 134.5 95.4002 126.4C105.7 118.6 110.3 107.4 113.8 95.5999C116 87.9999 116.6 79.9999 118.8 72.3999C119.6 69.4999 116.2 63.5999 113.4 63.0999C112.3 62.8999 111.3 63.0999 110.2 63.2999C111.6 63.2999 112.9 63.8999 114.3 64.9999C117 66.9999 118.6 69.4999 117.7 72.9999Z" fill="white"/>
<path d="M66.6001 32.3002C67.8001 31.8002 69.2001 31.4002 70.6001 31.2002C69.1001 31.1002 67.8001 31.5002 66.6001 32.3002Z" fill="white"/>
<path d="M107.9 63.6001C108.7 63.4001 109.5 63.2001 110.4 63.1001C109.5 63.1001 108.7 63.2001 107.9 63.6001Z" fill="white"/>
<path d="M33.2 60.3999C35.6 54.6999 36.1 48.4999 37.1 42.4999C39 31.2999 41.4 20.1999 43.4 8.99993C44.2 4.39993 49 0.799932 53 0.999932C57.1 1.19993 60.2 5.19993 60.5 10.5999C60.7 14.5999 60 18.3999 59.2 22.2999C57.6 29.5999 56.4 36.8999 55.2 44.2999C55 45.4999 53.1 47.7999 56.3 48.0999C58.8 48.2999 60.5 47.4999 60.4 44.5999C60.4 41.1999 61.4 37.9999 63.5 35.2999C64.4 34.0999 65.4 33.0999 66.5 32.2999C64 33.2999 62 34.9999 60.7 37.8999C60.1 39.1999 59.7 40.5999 58 39.8999C56.3 39.1999 57.2 37.6999 57.3 36.4999C57.5 31.2999 59.3 26.4999 59.9 21.3999C60.8 14.6999 60.9 14.5999 67.6 14.5999C83.9 14.5999 100.3 14.5999 116.6 14.5999C121.6 14.5999 126.6 14.5999 131.6 14.5999C143.6 14.5999 155.6 14.6999 167.6 14.4999C171 14.3999 172 15.4999 171.6 18.6999C171.3 22.1999 170.2 25.3999 169.5 28.7999C167.7 38.3999 166.2 47.9999 164.4 57.5999C163.2 63.6999 161.1 64.6999 155.6 62.2999C151.2 60.3999 146.9 58.1999 142.2 56.9999C138.7 56.0999 135.2 56.0999 132.5 59.0999C130 61.7999 130.7 64.9999 131.5 68.0999C132.4 71.1999 134.2 73.8999 136 76.3999C143.6 86.6999 149.9 97.7999 156.9 108.5C160 113.3 162.4 118.6 167.1 122.5C174.4 128.5 183 131.2 191.9 133.4C198.2 134.9 204.8 135.4 211.1 133.9C224 130.9 233.2 122.8 239.5 111.1C246 98.8999 247.6 85.4999 250.1 72.2999C250.8 68.7999 249 66.0999 246.2 64.2999C243.6 62.5999 240.8 61.2999 237.6 63.4999C236.3 64.3999 234.8 65.3999 233.1 64.2999C231.3 63.0999 231.2 61.1999 231.5 59.3999C231.6 58.2999 232.2 57.1999 232.4 56.0999C233.3 51.5999 230.4 45.8999 226.5 44.0999C222.9 42.4999 218.3 44.0999 215.1 48.0999C214.7 48.5999 214.4 49.1999 214 49.7999C213.3 50.7999 212.4 51.6999 211.1 50.9999C210 50.3999 210.2 49.2999 210.4 48.2999C210.8 46.1999 211.4 44.0999 211.5 41.8999C211.7 36.6999 208.4 32.0999 203.8 30.8999C199.7 29.7999 194.9 32.5999 192.6 37.2999C191.5 39.5999 191.3 42.0999 190.9 44.5999C190.6 46.1999 189.8 47.1999 188.2 46.7999C186.6 46.3999 187.2 44.8999 187.4 43.8999C189.1 35.1999 190.8 26.5999 192.4 17.8999C192.6 16.6999 193 15.3999 194.5 15.5999C197.5 15.8999 200.7 14.1999 203.3 16.7999C204.3 17.7999 205 17.1999 205.9 16.4999C208.4 14.5999 210.9 12.6999 213.3 10.6999C214 10.0999 215.5 9.39993 213.9 7.99993C211.1 5.69993 208.5 3.09993 205.7 0.799932C203.2 -1.20007 203.5 3.49993 201.5 2.69993C201.4 2.59993 201.2 2.69993 201 2.69993C196.3 2.39993 191.4 3.79993 186.9 0.999932C184.8 -0.300068 182.2 0.199932 180.2 1.29993C177.7 2.59993 175.2 2.79993 172.5 2.79993C136.2 2.79993 99.9 2.79993 63.5 2.79993C61 2.79993 58.7 2.49993 56.3 1.49993C51 -0.900069 45.5 1.49993 43.6 7.19993C41.8 12.7999 40.3 18.3999 39.5 24.3999C38 34.9999 35.5 45.4999 33.5 55.9999C32.2 63.0999 29.3 65.5999 24.5 63.6999C27.9 65.7999 31.4 64.5999 33.2 60.3999ZM172.9 24.1999C173.7 19.5999 174 14.8999 175.6 10.3999C177.4 5.29993 181.6 1.49993 185.3 2.59993C189.7 3.79993 191.9 8.29993 190.9 13.9999C188.9 24.4999 186.8 34.8999 184.9 45.3999C184.6 46.7999 183 49.1999 185.9 49.1999C188.2 49.1999 191.9 51.3999 192.8 46.8999C193.3 44.7999 193.6 42.5999 194.1 40.4999C195.2 35.2999 198.7 32.4999 203.1 33.0999C207.3 33.6999 209.6 37.5999 208.9 43.0999C208.7 44.5999 208.5 46.0999 208 47.4999C206.9 50.7999 207.5 52.4999 211.3 53.5999C214.3 54.4999 215.2 54.0999 216.2 51.1999C217.7 46.7999 220.6 45.3999 224.7 45.9999C228 46.4999 229.8 49.1999 229.8 53.8999C229.8 55.3999 230.1 57.0999 229.5 58.2999C227.8 61.6999 229.6 63.6999 231.8 65.8999C233.6 67.6999 234.8 68.5999 237 66.1999C239 63.9999 242.1 64.1999 244.4 65.4999C246.6 66.7999 248.6 68.8999 247.8 72.0999C245.2 83.0999 244.5 94.4999 239.7 104.9C234.8 115.6 228.2 124.5 216.9 129.2C212.3 131.1 207.6 132.1 202.6 132.1C189.9 130.8 177.7 128.1 167.7 119.2C162.3 114.4 160 107.7 156 102C149.8 92.9999 144.5 83.3999 138 74.4999C135.9 71.6999 134.1 68.6999 133.6 65.0999C133 60.6999 134.5 58.8999 139 58.7999C143.9 58.5999 147.9 61.2999 152.1 62.8999C153.8 63.5999 155.4 64.4999 157 65.2999C160.3 66.9999 162.7 65.8999 164.6 62.9999C167.5 58.6999 168.1 53.4999 168.4 48.6999C168.9 40.4999 171.3 32.3999 172.9 24.1999Z" fill="white"/>
<path d="M0.200081 65.2001C0.100081 64.3001 0.100081 63.4001 0.200081 62.6001C-0.0999187 63.5001 8.12858e-05 64.3001 0.200081 65.2001Z" fill="white"/>
<path d="M10.8001 57.7999C11.3001 57.8999 11.9001 57.9999 12.4001 58.0999C13.4001 58.4999 14.5001 58.8999 15.7001 59.3999C15.8001 59.4999 15.9001 59.5999 16.1001 59.4999C18.4001 60.3999 20.5001 61.1999 20.6001 61.2999C22.1001 62.3999 23.4001 63.0999 24.6001 63.5999C24.1001 63.2999 23.6001 62.8999 23.1001 62.2999C22.5001 61.6999 22.4001 60.3999 21.3001 60.1999C21.0001 60.1999 15.9001 58.5999 12.6001 57.6999C11.2001 56.9999 9.8001 56.3999 8.1001 56.4999C3.6001 56.2999 0.600098 58.6999 0.100098 62.5999C0.300098 61.8999 0.600098 61.1999 1.2001 60.3999C3.9001 57.1999 7.4001 57.3999 10.8001 57.7999Z" fill="white"/>
</g>
<defs>
<clipPath id="clip0">
<rect width="250.3" height="134.6" fill="white"/>
</clipPath>
</defs>
</svg>
