<svg width="148" height="160" viewBox="0 0 148 160" fill="none" xmlns="http://www.w3.org/2000/svg">
<g clip-path="url(#clip0)">
<path d="M127.684 65.1861C122.558 63.215 122.019 65.4778 117.905 67.2785C114.531 68.7163 112.625 66.9766 112.165 63.3935C111.419 57.5195 110.542 49.1171 102.384 49.2265C99.2272 49.2884 96.6075 51.3829 94.8747 53.799C92.9881 56.4524 91.5756 62.2769 89.2863 56.8355C88.0091 53.7341 89.5887 50.1236 87.8575 46.8126C86.1892 43.7949 82.9003 41.3284 79.3104 41.2785C71.8163 41.1435 69.3904 48.9233 69.235 54.8879C69.1855 57.046 68.4224 63.0383 65.8325 58.5816C64.227 55.8572 65.6053 47.4835 65.6203 44.2078C65.4409 36.6787 67.3151 28.7102 64.2858 22.1999C62.2895 18.1274 61.026 16.0457 56.4514 15.6952C52.2888 15.3587 49.1733 17.048 46.63 20.4556C42.1024 26.5375 45.2709 34.6542 45.4225 41.5757C45.5523 51.263 45.9755 60.8875 46.2031 70.5538C46.3756 77.5731 47.3795 83.6986 38.6915 82.2852C32.1266 81.2357 19.682 76.1264 15.4333 83.9895C11.2404 91.6361 21.7775 99.301 26.2671 103.556C33.1587 109.955 39.5473 116.872 46.0896 123.551C51.2006 128.797 56.0318 135.127 62.6309 138.726C70.6127 143.051 80.2368 144.06 89.1627 144.195C106.994 144.368 122.124 134.79 128.925 118.302C132.517 109.761 133.512 100.549 133.682 91.3092C133.622 83.8569 136.162 68.4852 127.684 65.1861Z" fill="white" stroke="black" stroke-width="2" stroke-miterlimit="10"/>
</g>
<defs>
<clipPath id="clip0">
<rect width="121.5" height="136.1" fill="white" transform="translate(0.105957 26.2178) rotate(-12.0778)"/>
</clipPath>
</defs>
</svg>
