<svg width="277" height="159" viewBox="0 0 277 159" fill="none" xmlns="http://www.w3.org/2000/svg">
<g clip-path="url(#clip0)">
<path d="M1.70002 83.9999C4.70002 90.0999 10.1 94.1999 16.8 93.3999C21.9 92.7999 23.7 94.7999 25.5 98.4999C26.3 100.1 27.5 101.5 28.4 103.1C33.4 112.2 39.5 120.6 42.5 131C45.2 140.4 52.7 146 61.7 149.8C69.4 153 77.8 153.8 85.6 156.3C89.5 157.5 93.4 158 96.7 158.4C103.5 158.4 109.4 157.1 113.8 152.5C123.9 142 129.5 129.5 128.3 114.7C127.9 109.4 127.7 104 125.7 98.9999C124.4 95.6999 125.1 92.9999 126.6 90.0999C129.1 85.1999 127.3 79.6999 122.7 78.6999C119.9 78.0999 119.8 76.9999 119.7 74.7999C119.2 68.7999 115.2 64.7999 109.4 64.9999C105.4 65.0999 103.5 63.7999 102.2 59.9999C99.7 52.6999 97.1 51.5999 89.6 53.6999C86.9 54.3999 83.9 54.7999 81.6 56.2999C77.4 59.0999 74.9 57.4999 72.4 54.1999C71.7 53.2999 70.8 52.4999 70.1 51.4999C66.8 46.9999 62.6 44.4999 56.8 43.9999C51.6 43.4999 46.5 43.1999 41.3 43.3999C36.4 43.4999 32.1 42.7999 27.8 39.6999C22.2 35.6999 13.7 36.9999 8.20002 41.8999C3.00002 46.4999 1.20002 54.3999 4.70002 60.5999C6.40002 63.4999 5.90002 65.0999 3.90002 67.3999C-0.399979 72.1999 -1.09998 78.1999 1.70002 83.9999ZM34.8 75.5999C39 79.0999 42.3 83.5999 45.1 88.2999C45.7 89.1999 46.5 90.2999 47.2 90.1999C48.3 90.0999 48.1 88.5999 48.3 87.6999C49.4 83.3999 50.5 78.9999 51.6 74.5999C52.9 69.4999 48 62.5999 42.8 62.3999C37.3 62.1999 31.8 62.1999 26.3 62.0999C19.6 61.9999 16.6 59.9999 16.4 55.4999C16.1 50.8999 21 46.0999 26.6 45.7999C30.9 45.5999 35.3 45.7999 39.3 45.7999C45.7 46.2999 51.9 45.6999 58 46.7999C62.2 47.5999 64.9 49.4999 67.4 52.3999C70 55.3999 72.3 59.0999 75.7 60.7999C79.3 62.5999 82 57.4999 85.8 57.0999C86.9 56.9999 88 56.2999 89.1 55.8999C95 54.1999 97.5 54.8999 99.7 60.5999C101.7 65.5999 104.4 67.8999 110 67.6999C114.7 67.5999 117.1 70.5999 116.9 75.4999C116.8 77.6999 116.9 78.3999 119.4 79.0999C124.8 80.5999 126.4 84.9999 123.4 89.9999C121.5 93.1999 122.1 95.7999 123 98.8999C128.6 116.9 126.3 133.6 114 148.2C106.9 156.6 97.5 156.9 88 153.9C82 152 75.7 151.2 69.7 149.4C61.5 146.9 53.8 143.6 48.5 136.5C47 134.5 45.7 132.4 45 130C40.4 114.7 30.6 102 22 88.7999C19.9 85.5999 17.6 82.4999 16.5 78.7999C15.5 75.1999 17 72.9999 20.2 71.7999C26 69.5999 30.6 72.0999 34.8 75.5999ZM30.6 66.5999C31.4 64.6999 33.5 65.3999 35 65.2999C36 65.1999 37 65.2999 37.5 65.2999C41.4 65.5999 45 64.5999 47.3 68.3999C48.9 70.9999 48.7 80.4999 46.6 82.6999C45.2 84.0999 44.5 82.5999 43.9 81.8999C40.6 77.6999 36.8 74.0999 32.7 70.6999C31.7 69.6999 29.8 68.4999 30.6 66.5999Z" fill="white"/>
<path d="M268.4 72.1999C268.2 72.0999 267.9 72.0999 267.7 71.9999C266.7 71.5999 266.8 70.7999 266.6 69.9999C265.3 64.9999 262.4 61.6999 256.8 61.7999C254.8 61.7999 253.3 60.8999 253.7 58.8999C254.2 55.7999 252.7 53.6999 250.7 51.8999C248.7 50.0999 248.1 47.9999 249.2 45.6999C252.7 37.9999 249.5 32.0999 244.6 26.1999C240.8 21.6999 237.7 16.8999 235.8 10.8999C232.6 0.899896 222.5 -2.3001 213 1.4999C206.6 4.0999 202.8 10.8999 203.2 16.9999C203.7 23.9999 208 29.6999 215.4 31.6999C220.4 33.0999 222.9 36.5999 224 40.8999C224.2 41.6999 224.3 42.4999 224.2 43.2999C224.9 45.2999 224.5 48.0999 223.9 49.7999C223.1 51.8999 222.2 53.9999 221.3 55.9999C220.9 58.4999 220 60.6999 219.3 63.1999C218.5 66.1999 217.8 69.2999 216.3 71.9999C215.9 72.6999 215.4 73.3999 214.9 73.9999C213.7 77.0999 211.5 79.7999 209.1 79.6999C199.4 79.4999 189.8 78.6999 183 69.7999C178 63.2999 171.1 61.8999 163.8 64.7999C155.8 68.0999 152.3 74.7999 153.6 82.6999C154.8 89.6999 161.3 96.1999 168.4 95.7999C174.4 95.3999 178 97.6999 181.3 102.1C183.2 104.6 185.4 106.9 187.7 109.1C190.1 111.3 191.1 113.7 191.2 116.9C191.7 130.6 198.6 140.4 210.7 146.5C218.1 150.2 225.7 153.5 233.4 156.6C237.4 158.2 241.8 158.7 246.1 158C258.4 156 273.9 139.1 275.2 125.8C276.6 111.2 276.8 96.4999 276.5 81.8999C276.5 79.8999 276.2 77.7999 274.6 76.2999C273.2 74.1999 271.1 72.5999 268.4 72.1999ZM273.3 100.1C273.3 105.8 273.3 111.4 273.3 117.1C273.4 129.6 267.6 139.4 259.3 148.1C253.2 154.5 245.7 158 236.8 154.9C226.1 151.2 215.3 147.3 205.9 140.6C198.5 135.3 194 127.9 194 118.7C194 113.4 192.1 109.5 188.4 106.1C187.2 105 185.9 103.9 184.9 102.6C179.9 96.3999 173.2 91.7999 168.7 85.0999C167.2 82.8999 165.6 80.2999 167.6 77.6999C169.4 75.2999 172.4 74.4999 175.3 75.2999C179.3 76.3999 183.5 76.4999 187.4 77.9999C192.3 79.8999 197.4 81.4999 202.6 82.5999C209.3 83.9999 213.6 82.3999 216.4 76.1999C221.2 65.3999 223.8 53.7999 226.8 42.3999C227.3 40.3999 226.4 38.8999 225.3 37.3999C222.6 33.3999 219.7 29.4999 217.3 25.3999C214 19.6999 217.2 14.1999 223.7 13.7999C228 13.4999 231.5 15.1999 234.3 18.2999C236.9 21.2999 239.2 24.5999 241.9 27.4999C247.2 33.1999 249.6 39.3999 246 46.8999C244.8 49.2999 245.4 51.1999 247.5 52.8999C250.1 55.0999 251.9 57.7999 251.4 61.4999C251.2 63.5999 252 63.8999 253.9 63.8999C260.3 63.9999 262.4 65.5999 264.4 71.3999C264.6 71.9999 264.4 72.7999 264.7 73.2999C265.3 74.4999 266.4 74.7999 267.6 74.5999C268 74.4999 268.4 74.4999 268.8 74.3999C270.2 74.7999 271.3 75.7999 272.2 76.8999C275.1 84.4999 273 92.3999 273.3 100.1Z" fill="white"/>
</g>
<defs>
<clipPath id="clip0">
<rect width="276.6" height="158.5" fill="white"/>
</clipPath>
</defs>
</svg>
