<svg width="320" height="192" viewBox="0 0 320 192" fill="none" xmlns="http://www.w3.org/2000/svg">
<path d="M122.5 102.5C118.1 99.9998 113.3 97.9998 108.3 96.7998C101.9 95.1998 100.6 91.9998 104.2 86.3998C109.7 77.8998 115.4 69.5998 120.8 60.9998C126.7 51.4998 134.6 43.1998 137.6 31.8998C138 30.4998 139.1 29.3998 140.1 28.1998C156.2 9.49977 185 8.99977 202.5 27.1998C204.1 28.7998 207.4 30.3998 204.3 33.5998C204 33.9998 204.4 34.4998 204.9 34.6998C208.8 36.4998 212.7 38.3998 216.6 39.9998C217.9 40.4998 219.1 40.2998 219.5 38.3998C220.3 34.6998 221.5 30.9998 222.4 27.2998C222.6 26.2998 223.1 24.4998 221.2 24.8998C218.4 25.5998 217.8 23.4998 216.6 22.0998C208.1 11.6998 197.6 4.19977 184.4 1.39977C163.4 -3.10023 145.2 2.69978 130.2 18.1998C129.1 19.3998 128.1 20.9998 126.3 21.1998C118.8 22.1998 115.2 27.7998 111.6 33.4998C106.7 41.0998 101.8 48.6998 96.7999 56.2998C95.9999 57.4998 95.2999 59.7998 93.1999 58.2998C90.9999 56.6998 93.1999 55.2998 93.8999 54.0998C95.1999 51.7998 96.8999 49.6998 97.8999 47.1998C99.7999 42.4998 98.8999 36.9998 95.4999 33.7998C92.0999 30.6998 87.4999 30.3998 82.5999 32.9998C79.9999 34.3998 78.2999 36.4998 76.7999 38.8998C76.2999 39.6998 75.5999 40.7998 74.4999 40.2998C73.6999 39.8998 73.7999 38.8998 73.8999 38.0998C73.9999 37.0998 74.0999 36.0998 73.9999 35.0998C73.7999 28.4998 69.5999 25.0998 62.9999 25.0998C57.7999 25.0998 54.7999 27.9998 52.0999 31.6998C51.3999 32.5998 50.8999 33.8998 49.4999 33.3998C48.3999 32.9998 48.6999 31.6998 48.5999 30.7998C48.0999 26.0998 46.1999 22.4998 41.3999 21.0998C36.6999 19.7998 32.9999 21.5998 29.6999 26.5998C24.9999 34.1998 20.9999 42.2998 13.1999 47.3998C12.4999 47.7998 11.9999 48.5998 11.5999 49.2998C5.29992 60.6998 0.199923 72.4998 -7.69063e-05 85.8998C-0.100077 99.9998 5.19992 111.3 17.0999 120.7C26.7999 128.3 37.2999 134.2 49.8999 135.9C59.3999 137.2 67.6999 133.3 76.4999 131.5C85.8999 129.5 95.1999 127.1 104.5 124.8C110.4 123.3 116.7 123.2 122.3 120.2C125.8 118.3 128.9 116.2 129.1 111.8C129.2 107.2 126 104.4 122.5 102.5ZM125.9 112.1C125.6 115.5 122.8 116.7 120.4 117.9C117 119.6 113.2 120.3 109.5 120.9C97.2999 122.6 85.6999 126.7 73.5999 128.8C71.0999 129.2 69.2999 130.8 66.9999 131.6C59.3999 134.2 51.6999 131.6 44.0999 133C39.2999 129.2 33.1999 128.2 28.0999 125C17.2999 118.1 7.79992 110.3 4.29992 97.0998C3.39992 93.4998 3.09992 89.8998 2.99992 86.5998C3.29992 73.3998 7.69992 61.8998 14.1999 51.0998C14.5999 50.3998 15.0999 49.5998 15.6999 49.1998C23.5999 43.9998 27.5999 35.6998 32.4999 28.0998C34.2999 25.1998 36.8999 23.6998 40.4999 24.2998C43.4999 24.7998 44.9999 26.9998 45.6999 29.6998C46.4999 32.5998 44.6999 34.7998 43.1999 36.9998C41.3999 39.5998 42.1999 40.1998 45.0999 40.3998C48.4999 40.6998 51.1999 40.2998 52.7999 36.6998C53.4999 35.0998 54.6999 33.5998 55.8999 32.1998C59.2999 27.8998 64.0999 26.6998 67.6999 28.9998C71.4999 31.4998 72.3999 36.5998 69.6999 41.3998C67.3999 45.5998 67.6999 46.0998 72.2999 47.4998C74.3999 48.1998 75.1999 47.2998 76.1999 45.7998C77.5999 43.5998 79.0999 41.2998 80.6999 39.1998C84.0999 34.6998 89.7999 33.1998 93.1999 35.7998C96.6999 38.3998 97.1999 43.6998 94.3999 48.4998C92.8999 50.8998 91.3999 53.2998 89.9999 55.6998C88.6999 57.7998 90.3999 61.2998 93.3999 62.9998C95.7999 64.3998 96.4999 62.5998 97.4999 60.9998C104 50.9998 110.6 40.9998 117.1 30.9998C118.3 29.1998 119.4 27.2998 121.4 26.1998C124.6 24.4998 128.2 23.7998 131.2 26.3998C134.2 29.0998 134.8 32.6998 133.1 36.3998C130.2 42.5998 126 47.8998 122.3 53.6998C115.7 63.9998 108.8 74.0998 102.1 84.3998C100.8 86.2998 99.5999 88.3998 99.4999 90.7998C99.2999 94.6998 100.3 97.2998 104.7 98.4998C110.6 100.1 116.5 101.8 121.6 105.3C123.8 107.1 126.3 108.7 125.9 112.1Z" fill="white"/>
<path d="M318.1 128.6C315.7 119.9 314.3 110.4 307.3 103.9C303.2 100.1 301 95.4998 298.7 90.7998C297.5 88.2998 296.3 85.6998 294.8 83.2998C293.1 80.5998 291.1 78.4998 287.3 78.4998C280.8 78.4998 279 79.3998 276.3 85.8998C275.1 88.7998 274 89.5998 272.2 86.3998C271.9 85.7998 271.5 85.2998 271.1 84.7998C268 80.8998 264 78.4998 259 79.4998C254.3 80.3998 251.7 83.7998 250.7 88.3998C250.5 88.9998 250.4 89.6998 250.2 90.2998C249.3 92.6998 248 92.4998 246.7 90.7998C246.2 90.1998 245.9 89.2998 245.4 88.6998C241.6 83.8998 234.9 82.2998 230.3 84.9998C225.6 87.6998 223.7 94.1998 226.1 99.9998C227.1 102.3 228.1 104.6 229.4 106.7C230.6 108.6 230 110.2 228.4 110.8C226.7 111.5 226.7 109.5 226.1 108.4C220.7 97.9998 215.3 87.4998 209.9 77.0998C206 69.6998 195 67.0998 190.1 75.4998C189.1 77.1998 187.8 77.7998 186.1 77.8998C174 78.9998 163.2 75.6998 153.8 67.7998C153.2 67.2998 152.2 66.2998 152.3 65.9998C154.3 60.6998 149.8 61.7998 147.4 60.9998C137 57.7998 137 57.7998 136.2 68.3998C136 71.1998 134.3 74.8998 139.8 74.2998C140.5 74.1998 141.3 75.3998 142.1 76.0998C155 88.1998 170.2 93.6998 187.9 91.9998C190.9 91.6998 192.5 92.5998 193.8 95.1998C197.6 102.6 201.5 109.8 205.4 117.2C208.8 123.7 212.2 130.1 215.4 136.7C218.2 142.4 216.6 145.3 210.7 146.6C204.5 148.1 198 149 192.6 153C186.6 157.6 186.6 163.2 192.8 167.6C196.6 170.3 200.9 171.8 205.4 173.1C220 177.4 234.3 182.4 248.4 188C256 191 263.8 192.4 272.2 190.7C279.7 189.1 286.7 186.4 293.5 182.8C310.2 173.9 319.8 160.5 319.6 141C319.6 136.7 319.2 132.5 318.1 128.6ZM316.8 141.8C316.3 156.7 310.5 168.5 297.6 176.7C287.6 183 277.1 188.1 265 188.4C259.6 188.5 254.3 187.6 249.6 184.2C247.1 182.4 243.4 182.6 240.3 181.5C226.5 176.6 212.5 172 198.6 167.4C198.3 167.3 197.9 167.3 197.6 167.1C194.9 165.3 191.3 163.8 191.4 160C191.5 155.9 195.1 154.6 198.3 153.1C203.7 150.7 209.5 149.9 215.1 148.6C218.3 147.9 219.4 146 219.7 143C220 139.9 219.2 137.1 217.7 134.4C209.6 119 201.5 103.6 193.5 88.1998C192.7 86.5998 191.8 84.8998 191.4 83.1998C190.5 79.3998 192.4 74.9998 195.6 73.8998C199.3 72.5998 202.9 72.9998 205.6 76.2998C208.6 79.8998 210.3 84.2998 212.4 88.3998C216.6 96.2998 220.6 104.3 224.9 112.1C225.5 113.2 225.7 116.5 228.2 114.5C230.4 112.8 234.7 112 233.1 107.7C232.1 104.9 230.3 102.5 229 99.7998C227.4 96.5998 227.2 93.2998 228.9 90.1998C232 84.6998 238.7 84.8998 242.8 90.5998C244.6 93.0998 245.9 96.0998 247.5 98.7998C248.3 100.2 249.5 102.7 250.8 101.3C252.1 99.9998 255.7 99.9998 254.3 95.8998C251.9 89.3998 253.8 84.1998 258.3 82.6998C263 80.9998 267.6 83.6998 270.7 89.9998C274.1 96.6998 275.2 97.3998 280 96.6998C281.8 96.3998 282.2 95.7998 281.4 94.0998C280.7 92.5998 279.7 91.2998 279.5 89.5998C279 85.7998 280.1 82.7998 283.6 81.3998C287.2 79.9998 290.2 81.2998 292.1 84.5998C294.1 88.1998 295.9 91.8998 297.7 95.5998C299.4 99.1998 301.4 102.5 304.5 105.2C311 110.9 312.5 119.2 314.6 126.9C316 131.8 317.2 136.7 316.8 141.8Z" fill="white"/>
</svg>
