<svg width="50" height="50" viewBox="0 0 50 50" fill="none" xmlns="http://www.w3.org/2000/svg">
<path d="M49.0258 24.6895C47.6424 -2.1871 11.6752 -10.092 1.59654 15.9941C-2.75114 27.6538 1.99178 41.0921 13.2562 47.2183C29.4612 55.9137 50.0139 43.0683 49.0258 24.6895ZM46.259 26.6657C45.6662 41.8825 29.2636 51.566 15.4301 45.4397C4.56086 40.6968 -0.379682 27.6538 3.77037 16.7846C13.0586 -7.91813 47.2472 1.96295 46.259 26.6657Z" fill="#B0D182"/>
<path d="M25.5088 26.6657C25.5088 25.0847 25.904 21.7251 25.1135 20.5394C21.9516 15.4012 21.1611 22.1204 20.9635 24.8871C20.9635 27.8514 19.5801 38.9182 21.9516 40.4992C27.0897 43.6612 25.7064 29.0371 25.5088 26.6657Z" fill="#B0D182"/>
<path d="M19.7777 13.0298C21.3587 16.3894 26.2993 14.6108 25.3111 11.0536C24.323 6.90351 17.9991 8.87973 19.7777 13.0298Z" fill="#B0D182"/>
</svg>
