<svg width="50" height="50" viewBox="0 0 50 50" fill="none" xmlns="http://www.w3.org/2000/svg">
<path d="M41.0965 24.3709C40.9267 21.6533 37.5297 21.3136 35.4915 20.9739C32.0945 20.4643 28.6975 20.2945 25.1306 20.4643C25.1306 19.6151 24.9607 18.596 25.3004 17.7467C25.6402 17.0673 25.4703 17.0673 26.1497 16.8975C26.6593 16.7276 27.1688 16.7276 27.6784 16.7276C29.207 16.5578 30.7357 16.0482 32.0945 15.199C35.8312 12.8211 35.8312 9.08436 36.001 5.1778C36.001 3.98885 36.6804 1.95065 36.5106 0.761696C36.001 -1.44636 34.3025 1.7808 34.1327 2.4602C33.4533 4.1587 32.604 5.68735 31.2452 6.8763C29.8864 7.8954 28.5276 8.57481 27.3387 9.93361C27.3387 7.8954 27.1688 5.8572 26.1497 3.98885C25.6402 3.1396 24.9608 2.29035 24.1115 1.95065C23.2622 1.4411 22.5828 1.7808 22.9225 2.7999C23.2622 3.4793 23.9417 4.32855 24.2814 5.00795C24.7909 5.8572 24.9608 6.70645 25.1306 7.5557C25.3005 9.25421 24.9608 10.7829 24.621 12.4814C23.7718 12.1417 23.2622 10.9527 22.9225 10.2733C22.2431 9.08436 21.5637 7.8954 20.7145 6.8763C19.3557 5.5175 16.4682 3.819 14.2602 4.1587C12.5617 4.4984 10.1838 4.66825 8.65514 6.02705C7.63604 6.8763 7.80589 7.5557 9.16469 7.8954C10.0139 8.06525 11.033 8.2351 11.7124 8.5748C13.7506 9.76376 14.5999 12.3115 16.2984 13.6703C18.3366 15.3688 20.8843 16.0482 23.4321 15.8784C23.2622 16.5578 22.9225 17.2372 22.9225 18.0864C22.7527 18.7658 23.0924 19.6151 22.9225 20.1246C22.7527 20.6342 23.0924 20.1246 22.5828 20.6342C22.413 20.6342 21.9034 20.804 21.7336 20.804C20.7145 20.9739 19.6954 21.3136 18.6763 21.3136C15.9587 21.6533 12.5617 22.1628 10.1838 23.5216C8.82499 24.201 8.65514 25.0503 8.99484 26.5789C9.50439 28.2774 10.0139 30.1458 10.6933 31.8443C11.7124 34.7317 12.5617 37.6192 13.5808 40.5066C14.0903 42.2051 14.7697 43.9036 15.2793 45.6021C15.619 46.7911 16.1285 48.8293 17.3175 49.5087C19.016 50.3579 22.2431 49.8484 24.1115 49.8484C25.6402 49.8484 27.1688 49.6785 28.5276 49.6785C29.7166 49.6785 31.4151 50.0182 32.4342 49.5087C33.2834 49.169 33.4533 48.3197 33.793 47.4705C34.4724 45.772 34.9819 43.9036 35.6613 42.2051C36.6804 38.978 37.5297 35.581 38.3789 32.184C38.7186 30.995 39.0583 29.8061 39.398 28.6171C40.2473 27.2583 41.2664 25.7297 41.0965 24.3709ZM36.5106 30.3156C36.3407 30.8252 32.2643 31.3347 31.7548 31.3347C29.207 31.6744 26.4894 32.0141 23.9416 32.0141C21.5637 32.184 19.016 32.184 16.4682 31.8443C15.4491 31.6744 13.9205 31.5046 12.9014 30.995C11.8823 30.3156 11.7124 27.9377 11.033 26.7488C15.4491 28.2774 20.3748 28.2774 25.1306 28.2774C27.6784 28.2774 30.0563 27.9377 32.604 27.4282C34.4724 27.0885 36.3407 26.9186 38.2091 26.4091C37.6995 27.2583 37.19 30.1458 36.5106 30.3156ZM38.8885 21.8231C39.2282 21.8231 39.398 21.993 39.5679 22.1628C39.7377 22.1628 38.8885 21.8231 38.8885 21.8231ZM28.0181 11.1226C30.396 9.59391 32.9437 8.74465 34.6422 6.36675C34.6422 8.74465 34.4724 11.2924 32.604 12.9909C30.7357 14.6894 28.1879 15.199 25.9799 15.8784C26.3196 14.3497 26.4894 12.1417 28.0181 11.1226ZM23.7718 15.0291C23.0924 15.3688 20.3748 14.01 19.6954 13.6703C18.5064 13.1608 17.4873 12.3115 16.8079 11.4623C15.1094 9.59391 14.0903 7.04615 11.3727 6.5366C14.2602 5.8572 16.9778 5.8572 19.1858 8.06526C20.2049 9.08436 20.7145 10.4432 21.5637 11.802C22.0733 12.4814 22.5828 13.3306 23.2622 13.8402C23.4321 14.01 23.9416 14.1799 23.9416 14.1799C24.1115 14.1799 24.1115 15.199 23.7718 15.0291ZM36.001 33.5428C35.4915 36.0905 34.6422 38.6383 33.793 41.186C33.2834 42.7147 32.9437 44.2433 32.4342 45.6021C32.2643 45.9418 32.0945 46.4514 31.9246 46.7911C31.5849 47.4705 31.9246 47.3006 31.0754 47.3006C30.0563 47.4705 28.8673 47.3006 27.6784 47.3006C26.3196 47.3006 24.9608 47.4705 23.6019 47.4705C21.5637 47.4705 19.6954 47.4705 17.6572 47.4705C17.9969 46.1117 17.3175 44.583 16.9778 43.3941C16.4682 42.0353 15.9587 40.5066 15.4491 39.1478C14.5999 36.9398 13.9205 34.7317 13.2411 32.6935C16.6381 34.2222 21.224 34.2222 24.7909 34.0523C28.5276 33.8825 32.604 33.5428 36.1709 32.3538C36.1709 32.6935 36.1709 33.0332 36.001 33.5428Z" fill="#B0D182"/>
</svg>
