<?xml version="1.0" encoding="utf-8"?>
<!-- Generator: Adobe Illustrator 23.0.1, SVG Export Plug-In . SVG Version: 6.00 Build 0)  -->
<svg version="1.1" id="Layer_1" xmlns="http://www.w3.org/2000/svg" xmlns:xlink="http://www.w3.org/1999/xlink" x="0px" y="0px"
	 viewBox="0 0 50 50" style="enable-background:new 0 0 50 50;" xml:space="preserve">
<style type="text/css">
	.st0{fill:#FFFFFF;}
</style>
<path class="st0" d="M49.4,14c-0.3-0.5-0.8-0.9-1.3-0.5c-0.4,0.3-0.3,0.7-0.4,1.2c-0.1,0.5-0.1,1.9-0.3,2.6
	c-0.1,0.4-0.4,0.8-0.7,1.2c-0.3,0.3-0.7,0.4-0.9,0.7c-0.3,0.1-0.5,0.4-0.9,0.7c-1.2,1.1-2.3,2.3-3.4,3.4c-2.7,2.7-5.3,5.4-8,8.1
	c-2.6,2.7-5.4,5.3-8.1,8.1c-0.3,0.4-0.7,0.7-0.8,0.9c-0.3,0.3-0.5,0.5-0.8,0.7c-0.3-0.1-0.7-0.3-0.7-0.4c-0.9-0.4-1.9-0.7-2.7-1.1
	c0.5-0.8,1.1-1.5,1.6-2.3c0.1-0.3,0.7-1.3,0.8-1.5c0.8-0.4,2.3,1.2,3.2,0.7c0,0,0.5-1.1,0.7-1.1c0.3-0.4,0.7-0.8,1.1-1.2
	c1.3-1.3,2.7-2.6,4-3.8c2.2-2.2,4.5-4.3,6.7-6.2c1.2-1.1,2.3-2.2,3.5-3.2c1.1-0.9,2.6-2,3.2-3.2c0.8-1.2,0-1.5-1.1-0.8
	c-1.1,0.8-2,2-3.1,3c-2.3,2.2-4.6,4.3-6.9,6.6c-2.4,2.3-5,4.6-7.3,7c-0.4,0.5-0.8,1.1-1.3,1.6c-0.8,0.7,0.1,0.4-0.9,0.3
	c-0.7,0-1.5-0.5-2-0.7c-0.8-0.1-1.8-0.1-2.6-0.4c-2.4-0.7-4.7-1.4-7-2.4c-1.6-0.7-3.4-1.4-5-2c-0.4,0.1-3.2-1.5-3.6-1.2
	c-0.8,0.7,4.7,2.8,5.4,3.1c2,0.8,4,1.8,6.1,2.4c-0.5,0.5-1.2,1.9-1.9,2.3c-0.8,0.5,0,0.4-0.9,0.3c-0.4,0-0.9-0.4-1.3-0.5
	c-2-0.8-4.1-1.6-5.9-2.4c-1.6-0.7-2.2-1.2-2.8-2.8c-0.5-1.6-0.5-3.5-0.3-5.1c0.1-1.3,1.6-1.2,2.7-0.9c2,0.5,3.9,1.4,5.8,2
	c2.4,0.9,4.9,2,7.4,2.8c2,0.7,4.5,2,6.6,2c1.9,0,3.2-1.9,4.5-3.1c2-1.9,4-3.8,5.9-5.9c3.5-3.9,7.3-7.6,11.1-11.3
	c0.9-0.9,3.9-3.5,2.6-4.7c-1.5-1.3-4.5-1.8-6.2-2.4c-4.5-1.5-9.2-3.5-13.9-4c-4.9-0.5-8.8,3.4-12,6.5c-3.6,3.4-7.2,7.2-10.9,10.5
	c-2,1.8-4.3,3.6-5.4,6.2c-1.1,2.6-0.8,5.3-0.4,7.8c0.5,2.4,1.9,3.4,4,4.5c2.6,1.2,5.3,2.3,7.8,3.4c-0.8,1.2-1.6,2.4-2.3,3.8
	c-0.5,0.8-1.8,2.6-1.9,3.5c-0.1,0.5-0.3,0.5,0.4,0.9c0.1,0,0.3,0.3,0.4,0.3c0.3,0,0.4-0.3,0.7-0.4c1.4-0.8,2.7-2,4.1-3
	c-0.1,0.8-0.9,5.4,0.3,5.8h-0.1C14,50,14.1,50,14.3,50c0,0-0.1,0-0.3-0.1c0.1,0,0.4,0,0.7-0.1c0.7-0.4,0.9-2,1.4-2.7
	c0.7-1.2,1.5-2.4,2.2-3.8c0.9-1.5,0.8-1.5,2.3-0.9c0.9,0.4,2,0.7,3.1,1.1c2.3,0.8,3.2-0.5,4.7-2c3.8-3.8,7.6-7.4,11.5-11.2
	c1.9-1.9,3.8-3.9,5.7-5.9c1.2-1.2,3.4-2.6,3.9-4.3c0.3-0.7,0.1-1.9,0.1-2.6C49.4,16.7,49.8,14.8,49.4,14z M4.8,21.8
	c3.1-3.4,6.6-6.3,10-9.6c3-3,5.8-5.8,8.6-8.9c2.7-2.8,8.4-0.3,11.3,0.8c3.9,1.5,8,3,12,3.9c-3.8,2.8-7,6.3-10.3,9.9
	c-1.8,1.8-3.4,3.6-5,5.4c-1.6,1.6-3.4,3.1-5,4.7c-0.8,0.8-0.8,1.5-2,0.9c-1.2-0.4-2.4-0.9-3.6-1.4c-1.8-0.5-3.6-1.1-5.4-1.9
	c-2-0.8-4-1.5-6.1-2.2c-1.6-0.5-3.5-1.3-5.3-1.1C4.3,22.3,4.5,22.1,4.8,21.8z M20.3,37.6c-0.8,1.1-1.5,2.3-2.3,3.4
	c-1.2,1.9-2.6,3.9-3.5,6.1c0.1-1.1,1.1-4.2-0.5-4.6c-1.1-0.1-3,1.9-3.8,2.4c0.9-1.9,2-3.6,3.2-5.4l3.2-4.3c0.7-0.8,0.8-0.7,1.9-0.4
	c1.1,0.4,2.2,0.7,3.2,0.8C21.6,36.2,20.6,37.2,20.3,37.6z"/>
<path class="st0" d="M16.6,35.3l0.3-0.3C16.8,35,16.7,35.2,16.6,35.3z"/>
<path class="st0" d="M14.3,49.9C14.1,49.9,14.1,50,14.3,49.9L14.3,49.9z"/>
</svg>
