<svg width="50" height="50" viewBox="0 0 50 50" fill="none" xmlns="http://www.w3.org/2000/svg">
<path d="M49.3602 13.9552C49.0902 13.4152 48.5502 13.0102 48.0102 13.4152C47.6052 13.6852 47.7402 14.0902 47.6052 14.6302C47.4702 15.1702 47.4702 16.5202 47.3352 17.1952C47.2002 17.6002 46.9302 18.0052 46.6602 18.4102C46.3902 18.6802 45.9852 18.8152 45.7152 19.0852C45.4452 19.2202 45.1752 19.4902 44.7702 19.7602C43.5553 20.8402 42.4753 22.0552 41.3953 23.1352C38.6953 25.8352 36.1303 28.5351 33.4303 31.2351C30.8653 33.9351 28.0304 36.5001 25.3304 39.3351C25.0604 39.7401 24.6554 40.0101 24.5204 40.2801C24.2504 40.5501 23.9804 40.8201 23.7104 40.9551C23.4404 40.8201 23.0354 40.6851 23.0354 40.5501C22.0904 40.1451 21.1454 39.8751 20.3354 39.4701C20.8754 38.6601 21.4154 37.9851 21.9554 37.1751C22.0904 36.9051 22.6304 35.8251 22.7654 35.6901C23.5754 35.2851 25.0604 36.9051 26.0054 36.3651C26.0054 36.3651 26.5454 35.2851 26.6804 35.2851C26.9504 34.8801 27.3554 34.4751 27.7604 34.0701C29.1103 32.7201 30.4603 31.5051 31.8103 30.2901C33.9703 28.1301 36.2653 25.9702 38.5603 24.0802C39.7753 23.0002 40.8553 21.9202 42.0703 20.8402C43.1503 19.8952 44.6352 18.8152 45.3102 17.6002C46.1202 16.3852 45.3102 16.1152 44.2303 16.7902C43.1503 17.6002 42.2053 18.8152 41.1253 19.7602C38.8303 21.9202 36.5353 24.0802 34.2403 26.3752C31.8103 28.6701 29.2453 30.9651 26.9504 33.3951C26.5454 33.9351 26.1404 34.4751 25.6004 35.0151C24.7904 35.6901 25.7354 35.4201 24.6554 35.2851C23.9804 35.2851 23.1704 34.7451 22.6304 34.6101C21.8204 34.4751 20.8754 34.4751 20.0654 34.2051C17.6354 33.5301 15.3404 32.8551 13.0455 31.7751C11.4255 31.1001 9.67048 30.4251 8.05049 29.7501C7.64549 29.8851 4.81051 28.2651 4.40551 28.5351C3.59552 29.2101 9.13048 31.3701 9.80548 31.6401C11.8305 32.4501 13.8554 33.3951 15.8804 34.0701C15.3404 34.6101 14.6654 35.9601 13.9904 36.3651C13.1805 36.9051 13.9904 36.7701 13.0455 36.6351C12.6405 36.6351 12.1005 36.2301 11.6955 36.0951C9.67048 35.2851 7.64549 34.4751 5.7555 33.6651C4.13551 32.9901 3.59552 32.4501 2.92052 30.8301C2.38052 29.2101 2.38052 27.3201 2.65052 25.7002C2.78552 24.3502 4.27051 24.4852 5.35051 24.7552C7.37549 25.2952 9.26548 26.1052 11.1555 26.7802C13.5855 27.7251 16.0154 28.8051 18.5804 29.6151C20.6054 30.2901 23.0354 31.6401 25.1954 31.6401C27.0854 31.6401 28.4354 29.7501 29.6503 28.5351C31.6753 26.6452 33.7003 24.7552 35.5903 22.5952C39.1003 18.6802 42.8803 15.0352 46.6602 11.2553C47.6052 10.3103 50.5752 7.74528 49.2252 6.53029C47.7402 5.1803 44.7702 4.7753 43.0153 4.1003C38.5603 2.61531 33.8353 0.590327 29.1104 0.0503305C24.2504 -0.489666 20.3354 3.42531 17.0954 6.53029C13.4505 9.90526 9.94047 13.6852 6.1605 17.0602C4.13551 18.8152 1.84053 20.7052 0.760535 23.2702C-0.319458 25.8352 -0.0494594 28.5351 0.355538 31.1001C0.895534 33.5301 2.24553 34.4751 4.40551 35.5551C6.97049 36.7701 9.67048 37.8501 12.2355 38.9301C11.4255 40.1451 10.6155 41.3601 9.94048 42.71C9.40048 43.52 8.18549 45.275 8.05049 46.22C7.91549 46.76 7.78049 46.76 8.45548 47.165C8.59048 47.165 8.72548 47.435 8.86048 47.435C9.13048 47.435 9.26548 47.165 9.53548 47.03C10.8855 46.22 12.2355 45.005 13.5855 44.06C13.4505 44.87 12.6405 49.46 13.8554 49.865H13.7204C13.9904 50 14.1254 50 14.2604 50C14.2604 50 14.1254 50 13.9904 49.865C14.1254 49.865 14.3954 49.865 14.6654 49.73C15.3404 49.325 15.6104 47.705 16.0154 47.03C16.6904 45.815 17.5004 44.6 18.1754 43.25C19.1204 41.765 18.9854 41.7651 20.4704 42.305C21.4154 42.71 22.4954 42.98 23.5754 43.385C25.8704 44.195 26.8154 42.845 28.3004 41.3601C32.0803 37.5801 35.8603 33.9351 39.7753 30.1551C41.6653 28.2651 43.5553 26.2402 45.4452 24.2152C46.6602 23.0002 48.8202 21.6502 49.3602 19.8952C49.6302 19.2202 49.4952 18.0052 49.4952 17.3302C49.3602 16.6552 49.7652 14.7652 49.3602 13.9552ZM4.81051 21.7852C7.91549 18.4102 11.4255 15.4402 14.8004 12.2002C17.7704 9.23027 20.6054 6.39529 23.4404 3.29031C26.1404 0.455328 31.8103 3.02031 34.7803 4.1003C38.6953 5.58529 42.7453 7.07028 46.7952 8.01528C43.0153 10.8503 39.7753 14.3602 36.5353 17.8702C34.7803 19.6252 33.1603 21.5152 31.5403 23.2702C29.9203 24.8902 28.1654 26.3752 26.5454 27.9951C25.7354 28.8051 25.7354 29.4801 24.5204 28.9401C23.3054 28.5351 22.0904 27.9951 20.8754 27.5901C19.1204 27.0501 17.2304 26.5102 15.4754 25.7002C13.4505 24.8902 11.4255 24.2152 9.40048 23.5402C7.78049 23.0002 5.8905 22.1902 4.13551 22.4602C4.27051 22.3252 4.54051 22.0552 4.81051 21.7852ZM20.3354 37.5801C19.5254 38.6601 18.8504 39.8751 18.0404 40.9551C16.8254 42.845 15.4754 44.87 14.5304 47.03C14.6654 45.95 15.6104 42.845 13.9904 42.44C12.9105 42.305 11.0205 44.33 10.2105 44.87C11.1555 42.98 12.2355 41.2251 13.4505 39.4701L16.6904 35.1501C17.3654 34.3401 17.5004 34.4751 18.5804 34.7451C19.6604 35.1501 20.7404 35.4201 21.8204 35.5551C21.5504 36.2301 20.6054 37.1751 20.3354 37.5801Z" fill="#B0D182"/>
<path d="M16.5554 35.2851L16.8254 35.0151C16.8254 35.0151 16.6904 35.1501 16.5554 35.2851Z" fill="#B0D182"/>
<path d="M14.2604 49.865C14.1254 49.865 14.1254 50 14.2604 49.865V49.865Z" fill="#B0D182"/>
</svg>
