<svg width="60" height="50" viewBox="0 0 60 50" fill="none" xmlns="http://www.w3.org/2000/svg">
<path d="M0.624949 29.9024C0.341975 29.6215 0.907922 30.1833 0.624949 29.9024V29.9024Z" fill="#B0D182"/>
<path d="M0.624949 29.6215C0.766435 29.3406 0.483462 29.7619 0.624949 29.6215V29.6215Z" fill="#B0D182"/>
<path d="M59.3419 25.8291C59.0589 25.8291 58.21 25.2673 58.0685 25.1268C58.21 24.8459 58.0685 24.565 57.7855 24.4246C57.644 24.2841 57.5026 24.1437 57.3611 24.1437C56.9366 23.7223 56.5121 23.3009 55.9462 22.8796C54.1069 21.1941 52.2675 19.3682 50.5697 17.5423C47.0325 13.6095 43.0709 10.0981 39.2508 6.44631C37.4115 4.76085 35.4306 3.07539 33.4498 1.53038C31.752 0.266285 30.3371 -0.716901 28.4978 0.687651C24.9606 3.49675 21.7064 6.72722 18.3108 9.81724C18.4523 8.55314 18.7352 6.44631 17.6033 5.60358C16.6129 4.90131 14.6321 4.76085 13.5002 5.04176C11.5194 5.46313 11.8024 7.71041 11.8024 9.25541C11.8024 11.2218 11.8024 13.1882 11.9439 15.1545C11.9439 15.8568 12.3683 15.5759 11.6609 16.4186C10.9535 17.1209 10.246 17.8232 9.5386 18.5255C8.40671 19.6491 7.27482 20.7727 6.14292 21.8964C4.86955 23.1605 3.45468 24.1437 2.32279 25.4078C1.61535 26.11 -0.365457 28.0764 0.0590024 29.2C0.0590024 29.2 0.766435 29.0596 0.483462 29.2C0.483462 29.3405 0.483462 29.7619 0.483462 29.9023C1.1909 30.1832 2.03981 28.7787 2.46427 28.4978C3.73765 27.2337 5.15252 26.11 6.56739 24.9864C9.25563 22.5987 11.8024 19.93 14.2077 17.4018C16.8959 14.7332 19.8671 12.205 22.5554 9.53633C25.1021 7.14859 27.9319 5.04176 30.1956 2.37311C31.1861 3.91812 32.7424 4.90131 34.1573 6.02495C35.8551 7.4295 36.987 8.69359 38.2604 9.81724C40.9486 12.3454 43.7784 14.8736 46.3251 17.5423C48.8719 20.2109 51.4186 22.8796 54.1069 25.4078C55.0973 26.3909 56.5121 28.2169 57.927 27.655C58.21 27.5146 59.7663 25.8291 59.3419 25.8291ZM1.04941 29.481C0.907922 29.3405 0.907922 29.3405 1.1909 29.3405C1.04941 29.481 1.04941 29.481 1.04941 29.481ZM14.2077 14.0309C14.2077 12.6263 13.9247 11.3622 13.7832 9.95769C13.6417 8.83405 13.7832 8.13177 15.3396 8.41268C16.1885 8.55314 15.9055 8.41268 16.1885 9.25541C16.33 9.81724 16.1885 10.5195 16.1885 11.0813C16.1885 12.4859 15.3396 12.9073 14.2077 14.0309ZM56.7951 27.0932C56.9366 26.8123 56.2292 26.3909 56.7951 26.11C56.7951 26.6719 57.0781 26.8123 56.7951 27.0932Z" fill="#B0D182"/>
<path d="M54.1069 31.4474C50.8527 26.8123 46.8911 22.8796 42.7879 18.9469C40.2412 16.5591 37.6944 14.0309 35.4306 11.3623C34.5817 10.3791 33.5913 8.69363 32.3179 8.13181C32.1765 8.13181 30.6201 7.71045 30.6201 7.71045C28.9223 7.56999 25.951 11.5027 24.6777 12.7668C21.8479 15.7164 19.1597 18.5255 16.047 21.1941C12.9343 23.7223 10.246 26.5314 7.4163 29.2001C6.4259 30.1833 5.43549 31.026 4.58657 32.1496C4.16211 32.7115 3.31319 33.4137 4.3036 33.5542C4.44509 33.4137 6.4259 32.9924 7.13333 32.571C8.68968 31.4474 9.96306 30.0428 11.2364 28.7787C11.5194 35.5206 11.6609 42.2624 11.9439 49.1447C12.2268 49.2852 12.3683 49.5661 12.5098 49.847H27.6489C27.7904 49.4256 27.7904 49.0043 27.5074 48.4424C27.3659 48.1615 27.3659 48.1615 27.2244 47.8806C27.2244 47.7402 27.3659 47.3188 27.3659 47.1783C27.5074 46.1952 27.3659 45.212 27.3659 44.2288C27.3659 41.841 27.3659 39.5938 27.7904 37.206C28.0733 35.8015 27.9319 35.8015 29.2052 35.9419C30.3371 35.9419 31.3275 35.9419 32.4594 36.0824C32.3179 38.751 32.035 41.5601 32.3179 44.2288C32.4594 45.4929 32.7424 48.4424 33.8743 49.0043C37.6944 50.6897 43.2124 49.847 46.7496 49.2852C47.5985 49.1447 48.3059 49.4256 48.8719 48.5829C49.2963 47.8806 49.1548 46.8974 49.1548 46.0547C49.1548 44.3692 49.1548 42.6838 49.1548 41.1388C49.0134 37.206 49.0134 33.1328 48.4474 29.2001C49.1548 30.0428 49.7208 30.7451 50.4282 31.5878C50.9942 32.1496 51.8431 33.5542 52.692 33.5542C54.6728 33.2733 53.9654 32.2901 54.1069 31.4474ZM45.7592 46.0547C42.222 46.757 38.6848 46.1952 35.1477 47.1783C35.1477 44.0883 34.8647 40.9983 35.0062 37.9083C35.1477 36.3633 35.5721 34.9587 33.8743 34.116C32.6009 33.4137 30.9031 33.6946 29.4882 33.6946C28.6393 33.6946 27.3659 33.5542 26.8 34.2565C25.951 35.2397 25.951 38.0488 25.8096 39.3129C25.6681 40.8579 25.6681 42.4029 25.8096 43.9479C25.8096 44.7906 25.8096 45.6333 25.951 46.4761C25.951 46.8974 25.951 47.4593 26.3755 47.7402C25.951 47.8806 25.2436 47.7402 24.6777 47.7402C24.1117 47.7402 23.6873 47.7402 23.1213 47.7402C21.8479 47.7402 20.716 47.8806 19.4427 47.8806C19.1597 47.8806 14.6321 48.0211 14.6321 48.302C14.7736 44.2288 14.7736 40.1556 14.4906 36.0824C14.3491 33.6947 14.2077 31.4474 14.0662 29.0596C14.0662 28.4978 13.6417 27.2337 13.7832 26.8123C13.9247 26.1101 15.3396 25.2673 15.9055 24.7055C20.999 19.93 26.6585 15.4355 31.0446 9.81727C33.5913 12.4859 35.8551 15.4355 38.5434 18.1041C39.9582 19.5087 41.2316 20.7728 42.6465 22.1773C43.2124 22.7391 43.7784 23.301 44.3443 23.8628C44.7688 24.2842 46.1836 25.2673 46.1836 25.8292C46.3251 26.2505 45.6177 27.2337 45.4762 27.7955C45.3347 28.6383 45.4762 29.6215 45.6177 30.4642C45.7592 32.2901 45.7592 34.116 45.9007 36.0824C45.9007 38.3297 46.0421 40.4365 46.0421 42.6838C46.0421 43.5265 46.6081 45.9142 45.7592 46.0547Z" fill="#B0D182"/>
</svg>
