<svg width="94" height="94" viewBox="0 0 94 94" fill="none" xmlns="http://www.w3.org/2000/svg">
<path d="M0 47C0 21.0426 21.0426 0 47 0C72.9574 0 94 21.0426 94 47C94 72.9574 72.9574 94 47 94C21.0426 94 0 72.9574 0 47Z" fill="#E75E5A"/>
<path d="M21.1892 35.8396C21.1892 36.7854 21.3783 40.1903 23.0807 40.0011C24.594 39.812 24.2157 36.0288 24.2157 35.083C24.2157 32.2456 23.8374 28.2733 25.3506 25.6251C24.7832 25.8143 25.9181 25.4359 26.2964 25.4359C27.2422 25.2468 27.9989 25.2468 28.9446 25.0576C30.4579 24.8685 31.782 24.6793 33.2953 24.6793C34.0519 24.6793 37.8351 25.2468 36.8893 23.9227C36.3218 23.3552 33.8628 22.5986 32.917 22.4094C30.2688 21.8419 24.2157 21.4636 22.5133 24.1118C20.6217 27.1384 21 32.4348 21.1892 35.8396Z" fill="white"/>
<path d="M73.2077 32.0564C73.2077 29.9757 73.0185 27.3275 72.0728 25.4359C71.3161 23.9226 69.6137 23.5443 68.1004 23.3551C66.0197 23.166 63.9389 22.9768 61.8582 23.166C61.1016 23.3551 60.3449 23.5443 59.7775 23.9226C59.21 24.1118 57.6967 24.4901 57.3184 25.0576C56.7509 25.8142 60.7233 25.4359 61.2907 25.4359C62.9932 25.4359 64.8847 25.625 66.5872 25.8142C67.3438 25.8142 68.4787 25.8142 69.0462 26.1925C69.6137 26.5708 69.6137 27.3275 69.8029 28.0841C70.1812 30.354 70.1812 32.813 70.1812 35.0829C70.1812 36.4071 69.992 37.9203 70.3703 39.2444C70.5595 40.1902 71.5053 40.9469 72.2619 39.8119C72.8294 39.0553 73.0185 36.9745 73.0185 36.0287C73.2077 34.7046 73.3969 33.3805 73.2077 32.0564Z" fill="white"/>
<path d="M72.6402 58.3495C72.6402 57.4037 72.4511 53.9989 70.7486 54.188C69.2354 54.3772 69.6137 58.1604 69.6137 59.1061C69.6137 61.9435 69.992 65.9158 68.4787 68.5641C68.8571 67.9966 67.7221 68.3749 67.3438 68.5641C66.398 68.7532 65.6414 68.7532 64.6956 68.9424C63.1823 69.1315 61.8582 69.3207 60.3449 69.3207C59.5883 69.3207 55.8051 68.7532 56.7509 70.0773C57.3184 70.834 59.7775 71.4014 60.7233 71.5906C63.3715 72.1581 69.4245 72.5364 71.127 69.8882C73.2077 67.0508 73.0185 61.7544 72.6402 58.3495Z" fill="white"/>
<path d="M36.7001 69.3206C35.5652 68.7531 33.1061 69.3206 31.9712 69.3206C30.0796 69.1315 27.9989 69.1315 26.1073 68.7531C24.4048 68.3748 24.4048 66.6724 24.2157 64.97C24.0265 62.7001 24.0265 60.241 24.0265 57.9711C24.0265 57.2145 24.2157 55.3229 23.6482 54.7554C22.8916 53.8096 21.9458 54.7554 21.7566 55.5121C21 57.5928 21 60.241 21 62.5109C21 64.7808 21.1892 67.2399 21.9458 69.3206C22.5133 70.8339 24.2157 71.4014 25.729 71.5905C27.9989 71.9688 30.4579 72.158 32.7278 71.5905C33.4844 71.4014 34.2411 71.023 34.9977 70.6447C35.376 70.6447 38.0242 69.3206 36.7001 69.3206Z" fill="white"/>
<path d="M57.5076 58.5386C59.3991 56.8362 61.669 55.5121 63.1823 53.6205C62.9932 53.6205 63.7498 52.8638 63.7498 52.4855C63.7498 52.1072 63.3715 51.918 63.3715 51.7289C63.3715 51.3506 63.3715 50.7831 63.3715 50.4048C63.3715 48.5132 63.3715 46.6216 63.3715 44.73C63.3715 43.0276 63.3715 41.3252 63.3715 39.6228C63.3715 38.4878 63.3715 35.8396 62.804 35.083C62.4257 34.5155 61.6691 34.7046 60.9124 34.5155C59.9666 34.1372 59.0208 33.7588 57.8859 33.3805C55.616 32.4347 53.5352 31.2998 51.4545 30.354C50.5087 29.9757 49.5629 29.5974 48.6171 29.219C47.6713 28.8407 47.1039 28.6516 46.1581 28.8407C44.2665 29.219 42.3749 30.7323 40.8616 31.8673C39.3484 33.1914 37.6459 34.3263 36.1327 35.6504C34.4302 36.7854 32.7278 37.9203 31.2146 39.2444C30.8362 39.6228 30.8362 39.4336 30.6471 40.0011C30.4579 40.3794 30.4579 41.136 30.4579 41.5143C30.2688 43.5951 30.2688 45.6758 30.2688 47.7566C30.2688 49.8373 30.2688 51.918 30.0796 53.8096C30.0796 54.7554 29.5121 56.647 30.0796 57.4036C30.4579 57.9711 31.4037 58.1603 31.782 58.3494C32.5387 58.7277 33.2953 58.9169 34.0519 59.2952C35.7544 59.8627 37.4568 60.6193 39.1592 61.376C41.9966 62.7001 45.0231 64.2133 48.2388 64.7808C49.3738 64.97 49.1846 64.7808 50.1304 64.2133C50.887 63.6459 51.8328 63.2675 52.5894 62.7001C54.481 61.376 55.9943 59.8627 57.5076 58.5386ZM50.5087 53.8096C50.5087 51.918 50.5087 50.0265 50.3195 48.324C50.1304 47.3782 50.1304 47.1891 50.5087 46.4325C50.887 45.6758 51.6437 45.1083 52.2111 44.5409C51.2653 47.3782 50.887 50.7831 50.5087 53.8096ZM35.7544 38.1095C37.8351 36.5962 39.9158 34.8938 41.9966 33.5697C43.1315 32.8131 45.0231 30.5432 46.3472 30.7323C47.1039 30.9215 47.8605 31.4889 48.428 31.8673C49.3738 32.2456 50.3195 32.6239 51.0762 33.0022C53.7244 34.1372 56.1835 35.6504 59.0208 36.0287C57.1292 37.542 55.2377 38.8661 53.3461 40.1902C52.2111 41.136 51.0762 41.8927 49.9412 42.6493C49.5629 42.8384 48.6171 44.1626 48.2388 44.1626C47.8605 44.1626 47.293 43.5951 46.9147 43.4059C44.6448 42.271 41.9966 41.7035 39.5375 40.9469C37.6459 40.3794 35.7544 39.2444 33.6736 39.0553C34.4302 38.8661 35.1869 38.4878 35.7544 38.1095ZM46.9147 61.9434C42.7532 60.0518 38.2134 57.782 33.8628 57.0253C33.2953 56.8362 32.1603 57.0253 31.782 56.4578C31.5929 56.0795 31.782 55.1337 31.782 54.7554C31.9712 52.8638 31.9712 51.1614 31.9712 49.2698C31.9712 46.6216 31.9712 43.7842 31.782 41.136C33.8628 43.0276 37.2676 43.7842 39.7267 44.5409C41.4291 45.1083 43.1315 45.4867 45.0231 45.865C45.7797 46.0541 48.428 46.0541 48.9954 46.6216C49.3738 47.1891 48.6171 50.0265 48.6171 50.7831C48.428 52.1072 48.428 53.4313 48.428 54.7554C48.428 57.4036 48.2388 59.8627 48.428 62.5109C47.8605 62.3217 47.293 62.1326 46.9147 61.9434ZM55.8051 56.647C53.9136 58.1603 52.022 59.6735 50.3195 61.376C50.3195 59.4844 50.3195 57.782 50.3195 55.8904C51.0762 56.0795 52.4003 48.7024 52.5894 47.9457C52.7786 46.9999 52.9678 46.2433 53.1569 45.2975C53.1569 44.73 53.1569 43.7842 53.3461 43.4059C53.7244 42.271 56.1835 40.9469 57.1292 40.1902C55.9943 44.3517 54.6702 48.324 53.5352 52.2964C53.1569 53.8096 52.5894 55.5121 52.2111 57.0253C52.022 58.1603 52.5894 58.7277 53.1569 57.4036C54.481 54.1879 55.616 50.5939 56.3726 47.1891C56.9401 44.9192 57.3184 42.6493 57.8859 40.3794C58.075 39.2444 58.2642 39.0553 59.21 38.2986C59.9666 37.7312 60.7233 36.9745 61.669 36.4071C61.2907 39.6228 61.4799 43.0276 61.2907 46.2433C61.2907 47.1891 61.2907 47.9457 61.2907 48.8915C61.2907 49.6481 61.4799 50.9723 61.2907 51.5397C60.7233 52.6747 58.4534 53.9988 57.3184 54.9446C58.4534 51.7289 59.5883 48.7024 60.1558 45.4867C60.3449 43.9734 60.5341 42.4601 60.7233 40.7577C60.7233 40.1902 61.1016 38.1095 60.1558 39.4336C59.5883 40.1902 59.5883 41.8927 59.3991 42.8384C59.0208 44.5409 58.6425 46.0541 58.075 47.5674C57.5076 49.2698 57.1292 50.9723 56.5618 52.8638C56.7509 54.3771 56.7509 56.0795 55.8051 56.647Z" fill="white"/>
<path d="M47 91C22.6995 91 3 71.3005 3 47H-3C-3 74.6142 19.3858 97 47 97V91ZM91 47C91 71.3005 71.3005 91 47 91V97C74.6142 97 97 74.6142 97 47H91ZM47 3C71.3005 3 91 22.6995 91 47H97C97 19.3858 74.6142 -3 47 -3V3ZM47 -3C19.3858 -3 -3 19.3858 -3 47H3C3 22.6995 22.6995 3 47 3V-3Z" fill="#2C473E"/>
</svg>
